<svg width="512" height="512" viewBox="0 0 512 512" fill="none" xmlns="http://www.w3.org/2000/svg">
  <rect width="512" height="512" rx="28" fill="#E3AAAA"/>
  <g fill="#ffffff">
    <ellipse cx="250" cy="330" rx="115" ry="26" transform="rotate(-6 250 330)"/>
    <rect x="134" y="318" width="236" height="17" rx="8" transform="rotate(-6 134 318)"/>
    <path d="M178 296c14-40 56-66 99-66 48 0 83 30 95 72H178z"/>
    <circle cx="214" cy="372" r="14"/>
    <circle cx="318" cy="367" r="14"/>
    <path d="M255 222c-6-20-24-37-49-49-30-14-62-16-73-4-12 12-7 44 12 74 12 19 30 33 50 39l60 18z"/>
    <path d="M258 221c7-19 25-34 50-44 30-11 62-10 72 3 10 13 3 44-18 72-13 18-32 30-52 34l-58 11z"/>
    <ellipse cx="179" cy="198" rx="11" ry="7" transform="rotate(26 179 198)"/>
    <ellipse cx="167" cy="221" rx="11" ry="7" transform="rotate(20 167 221)"/>
    <ellipse cx="340" cy="205" rx="11" ry="7" transform="rotate(-21 340 205)"/>
    <ellipse cx="352" cy="224" rx="11" ry="7" transform="rotate(-17 352 224)"/>
    <rect x="249" y="208" width="14" height="54" rx="7"/>
    <ellipse cx="238" cy="216" rx="5" ry="11" transform="rotate(22 238 216)"/>
    <ellipse cx="274" cy="216" rx="5" ry="11" transform="rotate(-22 274 216)"/>
    <path d="M74 346c37-40 104-66 169-71l-8 14c-62 8-114 33-149 70L74 346z"/>
    <path d="M38 342c45-50 121-85 207-95l-8 16c-79 15-145 47-190 95L38 342z"/>
  </g>
</svg>
