<svg version="1.1" id="Layer_1" xmlns="http://www.w3.org/2000/svg" xmlns:xlink="http://www.w3.org/1999/xlink" x="0px" y="0px"
	 width="100%" viewBox="0 0 1024 1024" enable-background="new 0 0 1024 1024" xml:space="preserve">
<path fill="#000000" opacity="1.000000" stroke="none" 
	d="
M576.000000,1025.000000 
	C384.000000,1025.000000 192.500000,1025.000000 1.000000,1025.000000 
	C1.000000,683.666687 1.000000,342.333344 1.000000,1.000000 
	C342.333344,1.000000 683.666687,1.000000 1025.000000,1.000000 
	C1025.000000,342.333344 1025.000000,683.666687 1025.000000,1025.000000 
	C875.500000,1025.000000 726.000000,1025.000000 576.000000,1025.000000 
M841.773865,834.007996 
	C842.208801,833.364563 842.643799,832.721069 843.820862,832.004700 
	C845.573425,829.695557 847.325989,827.386475 849.807678,825.006165 
	C855.032043,817.022339 860.611633,809.241211 865.331726,800.969666 
	C867.714294,796.794495 868.540161,791.731079 870.865356,786.998962 
	C872.578552,782.196655 874.534424,777.463562 875.928833,772.570435 
	C877.063599,768.588501 877.475525,764.404846 878.298157,760.328857 
	C879.491150,754.418213 881.838257,748.525696 881.847534,742.622559 
	C882.053894,611.791260 882.195374,480.959076 881.843262,350.128418 
	C881.774231,324.502441 884.448425,298.762238 880.039490,273.211639 
	C879.131226,267.948120 878.923889,262.557312 877.893311,257.323669 
	C877.264038,254.127960 875.701050,251.112122 874.518738,248.030365 
	C873.037415,244.169250 870.853333,240.440460 870.148193,236.446960 
	C868.601501,227.686920 863.658386,220.577393 859.504395,213.165894 
	C852.986755,201.537201 844.121094,191.535873 834.094238,182.892349 
	C827.410095,177.130371 819.572205,172.626358 811.957336,168.047180 
	C804.337036,163.464722 796.320557,159.698380 787.506226,157.649704 
	C781.674133,156.294174 776.185242,153.451599 770.349304,152.126511 
	C764.684021,150.840179 758.773071,150.630661 752.967896,149.966843 
	C744.230225,148.967712 735.492004,147.136215 726.751770,147.122787 
	C603.920349,146.934280 481.088135,146.819931 358.257202,147.125153 
	C330.007202,147.195343 301.735840,145.392044 273.457947,149.590210 
	C260.989532,151.441284 249.000763,153.824661 237.107666,157.839859 
	C224.475525,162.104568 212.665833,167.844971 201.631577,175.175735 
	C198.658142,177.151184 196.468933,180.307053 193.165466,182.988937 
	C192.280655,183.315613 191.131302,183.392899 190.551865,184.007477 
	C184.647644,190.269821 178.115646,196.108368 173.175751,203.070526 
	C166.554184,212.402832 160.726669,222.240601 156.599701,233.210190 
	C153.625916,241.114594 150.644974,248.889938 148.989639,257.163605 
	C148.333939,260.440857 147.511368,263.690308 146.992966,266.988312 
	C145.594467,275.885773 143.178421,284.800690 143.164093,293.711884 
	C142.925690,441.995087 142.994186,590.278809 142.996231,738.562439 
	C142.996262,740.060608 142.772354,741.612488 143.079346,743.048157 
	C144.982056,751.946777 146.925949,760.838379 149.021271,769.693298 
	C150.303436,775.111694 151.331802,780.688110 153.449509,785.788635 
	C156.881729,794.054993 160.572998,802.313477 165.160278,809.973145 
	C169.959061,817.986145 175.157394,826.050049 181.605179,832.713745 
	C190.191483,841.587463 198.944489,850.515076 210.822510,855.613525 
	C219.588501,859.376160 227.367447,865.717041 236.322662,868.693237 
	C248.901382,872.873779 262.043304,875.795898 275.167999,877.768066 
	C287.038605,879.551880 299.210449,879.928345 311.247498,879.905518 
	C367.981567,879.797852 424.714966,879.336792 481.448639,879.010254 
	C486.930878,878.978699 492.415802,878.903625 497.895416,879.027161 
	C509.621796,879.291443 521.343811,879.842590 533.070801,879.964600 
	C549.037659,880.130798 565.007507,880.005920 580.976074,880.005920 
	C590.292175,880.005920 599.615479,880.244202 608.923157,879.964233 
	C647.215759,878.812500 685.544556,882.093323 723.848633,878.248596 
	C737.878174,876.840332 751.962769,877.240051 766.024414,874.316956 
	C781.909546,871.014709 796.890442,866.023071 811.064087,858.354919 
	C812.296692,857.687988 813.075317,856.181946 814.842285,855.007935 
	C815.920410,854.363708 816.998474,853.719482 818.810730,853.006165 
	C821.901001,850.698486 824.991272,848.390747 828.798096,846.007751 
	C830.226562,844.700195 831.655029,843.392578 833.777405,842.008606 
	C834.211304,841.364990 834.645203,840.721375 835.777893,840.008484 
	C836.877380,838.698181 837.976929,837.387939 839.772217,836.007996 
	C840.207581,835.364380 840.643005,834.720764 841.773865,834.007996 
z"/>
<path fill="#FFFAFB" opacity="1.000000" stroke="none" 
	d="
M814.064819,855.065674 
	C813.075317,856.181946 812.296692,857.687988 811.064087,858.354919 
	C796.890442,866.023071 781.909546,871.014709 766.024414,874.316956 
	C751.962769,877.240051 737.878174,876.840332 723.848633,878.248596 
	C685.544556,882.093323 647.215759,878.812500 608.923157,879.964233 
	C599.615479,880.244202 590.292175,880.005920 580.976074,880.005920 
	C565.007507,880.005920 549.037659,880.130798 533.070801,879.964600 
	C521.343811,879.842590 509.621796,879.291443 497.895416,879.027161 
	C492.415802,878.903625 486.930878,878.978699 481.448639,879.010254 
	C424.714966,879.336792 367.981567,879.797852 311.247498,879.905518 
	C299.210449,879.928345 287.038605,879.551880 275.167999,877.768066 
	C262.043304,875.795898 248.901382,872.873779 236.322662,868.693237 
	C227.367447,865.717041 219.588501,859.376160 210.822510,855.613525 
	C198.944489,850.515076 190.191483,841.587463 181.605179,832.713745 
	C175.157394,826.050049 169.959061,817.986145 165.160278,809.973145 
	C160.572998,802.313477 156.881729,794.054993 153.449509,785.788635 
	C151.331802,780.688110 150.303436,775.111694 149.021271,769.693298 
	C146.925949,760.838379 144.982056,751.946777 143.079346,743.048157 
	C142.772354,741.612488 142.996262,740.060608 142.996231,738.562439 
	C142.994186,590.278809 142.925690,441.995087 143.164093,293.711884 
	C143.178421,284.800690 145.594467,275.885773 146.992966,266.988312 
	C147.511368,263.690308 148.333939,260.440857 148.989639,257.163605 
	C150.644974,248.889938 153.625916,241.114594 156.599701,233.210190 
	C160.726669,222.240601 166.554184,212.402832 173.175751,203.070526 
	C178.115646,196.108368 184.647644,190.269821 190.551865,184.007477 
	C191.131302,183.392899 192.280655,183.315613 193.569061,182.981506 
	C193.972672,182.974060 194.025192,183.027435 194.030609,183.375107 
	C192.857574,185.097214 191.797287,186.598206 190.482040,187.826111 
	C179.916962,197.689575 171.348831,209.042358 164.574265,221.809204 
	C150.337204,248.639267 145.293335,277.728363 145.220779,307.539154 
	C144.887466,444.520203 145.022690,581.502563 145.186905,718.484253 
	C145.199600,729.072083 146.321243,739.710754 147.658600,750.232910 
	C149.808823,767.150818 154.768845,783.310425 162.035782,798.788452 
	C172.342194,820.740112 187.421432,838.708862 207.772232,851.708557 
	C235.137756,869.189148 265.865051,876.634827 297.904144,876.769165 
	C414.053345,877.256287 530.205872,877.158325 646.356567,876.948120 
	C679.958435,876.887329 713.575623,876.157349 747.151428,874.850891 
	C763.270691,874.223694 779.003540,870.166382 794.017029,863.992920 
	C800.766663,861.217590 807.331421,857.992615 814.000916,854.995483 
	C814.021790,855.019287 814.064819,855.065674 814.064819,855.065674 
z"/>
<path fill="#FFFAFB" opacity="1.000000" stroke="none" 
	d="
M193.946198,182.947571 
	C196.468933,180.307053 198.658142,177.151184 201.631577,175.175735 
	C212.665833,167.844971 224.475525,162.104568 237.107666,157.839859 
	C249.000763,153.824661 260.989532,151.441284 273.457947,149.590210 
	C301.735840,145.392044 330.007202,147.195343 358.257202,147.125153 
	C481.088135,146.819931 603.920349,146.934280 726.751770,147.122787 
	C735.492004,147.136215 744.230225,148.967712 752.967896,149.966843 
	C758.773071,150.630661 764.684021,150.840179 770.349304,152.126511 
	C776.185242,153.451599 781.674133,156.294174 787.506226,157.649704 
	C796.320557,159.698380 804.337036,163.464722 811.957336,168.047180 
	C819.572205,172.626358 827.410095,177.130371 834.094238,182.892349 
	C844.121094,191.535873 852.986755,201.537201 859.504395,213.165894 
	C863.658386,220.577393 868.601501,227.686920 870.148193,236.446960 
	C870.853333,240.440460 873.037415,244.169250 874.518738,248.030365 
	C875.701050,251.112122 877.264038,254.127960 877.893311,257.323669 
	C878.923889,262.557312 879.131226,267.948120 880.039490,273.211639 
	C884.448425,298.762238 881.774231,324.502441 881.843262,350.128418 
	C882.195374,480.959076 882.053894,611.791260 881.847534,742.622559 
	C881.838257,748.525696 879.491150,754.418213 878.298157,760.328857 
	C877.475525,764.404846 877.063599,768.588501 875.928833,772.570435 
	C874.534424,777.463562 872.578552,782.196655 870.442993,787.011780 
	C870.020569,787.024597 869.969727,786.981628 869.932129,786.578735 
	C870.180420,784.886841 870.362122,783.563904 870.767761,782.313721 
	C876.968567,763.206909 880.101013,743.623962 880.048035,723.527649 
	C880.020935,713.246094 880.079163,702.964172 880.124817,692.682556 
	C880.375122,636.267029 880.693054,579.851746 880.846008,523.435913 
	C880.882874,509.841431 880.148132,496.244934 880.182556,482.650360 
	C880.238647,460.512482 880.704712,438.375916 880.844971,416.237823 
	C880.883850,410.098694 880.181824,403.956726 880.164368,397.815094 
	C880.083923,369.488678 880.017212,341.161407 880.158630,312.835510 
	C880.262695,291.983246 878.981995,271.356354 873.078674,251.182953 
	C860.669922,208.778839 834.992188,178.383728 793.460449,161.936584 
	C769.745056,152.544922 744.855957,149.301941 719.764709,149.229721 
	C582.798279,148.835495 445.830017,148.885986 308.863068,149.145660 
	C294.660309,149.172592 280.372375,150.971451 266.281403,153.027115 
	C240.866028,156.734848 217.473419,165.750885 197.220001,182.027237 
	C196.410172,182.678070 195.101456,182.708145 194.025192,183.027435 
	C194.025192,183.027435 193.972672,182.974060 193.946198,182.947571 
z"/>
<path fill="#FFFAFB" opacity="1.000000" stroke="none" 
	d="
M870.045288,787.046936 
	C868.540161,791.731079 867.714294,796.794495 865.331726,800.969666 
	C860.611633,809.241211 855.032043,817.022339 849.416870,825.015991 
	C849.026001,825.025818 848.973511,824.974243 848.956909,824.614258 
	C849.557922,823.095886 850.151978,821.924255 850.796875,820.781311 
	C856.141296,811.308838 861.492126,801.840088 866.848633,792.374512 
	C867.871521,790.566956 868.928467,788.778748 869.969727,786.981628 
	C869.969727,786.981628 870.020569,787.024597 870.045288,787.046936 
z"/>
<path fill="#FFFAFB" opacity="1.000000" stroke="none" 
	d="
M828.081543,846.083069 
	C824.991272,848.390747 821.901001,850.698486 818.418213,853.015076 
	C818.025757,853.023987 817.975952,852.971741 818.006042,852.630127 
	C821.349121,850.183289 824.662109,848.078003 828.001465,846.000488 
	C828.027832,846.028320 828.081543,846.083069 828.081543,846.083069 
z"/>
<path fill="#FFFAFB" opacity="1.000000" stroke="none" 
	d="
M849.052246,825.051636 
	C847.325989,827.386475 845.573425,829.695557 843.423584,832.015381 
	C843.026245,832.026001 842.973694,831.974243 842.962097,831.618164 
	C844.958191,829.166138 846.965881,827.070190 848.973511,824.974243 
	C848.973511,824.974243 849.026001,825.025818 849.052246,825.051636 
z"/>
<path fill="#FFFAFB" opacity="1.000000" stroke="none" 
	d="
M833.083557,842.084961 
	C831.655029,843.392578 830.226562,844.700195 828.439819,846.045410 
	C828.081543,846.083069 828.027832,846.028320 827.990723,845.642883 
	C829.627258,844.162537 831.301025,843.067627 833.001831,842.001038 
	C833.028809,842.029297 833.083557,842.085022 833.083557,842.084961 
z"/>
<path fill="#FFFAFB" opacity="1.000000" stroke="none" 
	d="
M839.076477,836.077698 
	C837.976929,837.387939 836.877380,838.698181 835.402222,840.017212 
	C835.026489,840.026001 834.974060,839.973999 834.967285,839.626587 
	C836.298401,838.177429 837.636230,837.075684 838.999695,835.999817 
	C839.025269,836.025757 839.076477,836.077698 839.076477,836.077698 
z"/>
<path fill="#FFFAFB" opacity="1.000000" stroke="none" 
	d="
M818.051147,853.049622 
	C816.998474,853.719482 815.920410,854.363708 814.453552,855.036804 
	C814.064819,855.065674 814.021790,855.019287 814.139526,854.680420 
	C815.496765,853.884949 816.736328,853.428284 817.975952,852.971680 
	C817.975952,852.971741 818.025757,853.023987 818.051147,853.049622 
z"/>
<path fill="#FFFAFB" opacity="1.000000" stroke="none" 
	d="
M843.052490,832.051819 
	C842.643799,832.721069 842.208801,833.364563 841.400024,834.016846 
	C841.026123,834.025757 840.974060,833.974060 840.974487,833.640991 
	C841.641113,832.863281 842.307373,832.418762 842.973694,831.974243 
	C842.973694,831.974243 843.026245,832.026001 843.052490,832.051819 
z"/>
<path fill="#FFFAFB" opacity="1.000000" stroke="none" 
	d="
M841.052246,834.051392 
	C840.643005,834.720764 840.207581,835.364380 839.424316,836.042847 
	C839.076477,836.077698 839.025269,836.025757 839.001465,835.666687 
	C839.643066,834.863098 840.308533,834.418579 840.974060,833.974060 
	C840.974060,833.974060 841.026123,834.025757 841.052246,834.051392 
z"/>
<path fill="#FFFAFB" opacity="1.000000" stroke="none" 
	d="
M835.052734,840.051880 
	C834.645203,840.721375 834.211304,841.364990 833.430481,842.046814 
	C833.083557,842.085022 833.028809,842.029297 832.979248,841.661194 
	C833.611145,840.853394 834.292603,840.413635 834.973999,839.973999 
	C834.974060,839.973999 835.026489,840.026001 835.052734,840.051880 
z"/>
<path fill="#FDAFBC" opacity="1.000000" stroke="none" 
	d="
M834.967285,839.626587 
	C834.292603,840.413635 833.611145,840.853394 832.952271,841.632935 
	C831.301025,843.067627 829.627258,844.162537 827.964355,845.615112 
	C824.662109,848.078003 821.349121,850.183289 818.005981,852.630127 
	C816.736328,853.428284 815.496765,853.884949 814.118652,854.656616 
	C807.331421,857.992615 800.766663,861.217590 794.017029,863.992920 
	C779.003540,870.166382 763.270691,874.223694 747.151428,874.850891 
	C713.575623,876.157349 679.958435,876.887329 646.356567,876.948120 
	C530.205872,877.158325 414.053345,877.256287 297.904144,876.769165 
	C265.865051,876.634827 235.137756,869.189148 207.772232,851.708557 
	C187.421432,838.708862 172.342194,820.740112 162.035782,798.788452 
	C154.768845,783.310425 149.808823,767.150818 147.658600,750.232910 
	C146.321243,739.710754 145.199600,729.072083 145.186905,718.484253 
	C145.022690,581.502563 144.887466,444.520203 145.220779,307.539154 
	C145.293335,277.728363 150.337204,248.639267 164.574265,221.809204 
	C171.348831,209.042358 179.916962,197.689575 190.482040,187.826111 
	C191.797287,186.598206 192.857574,185.097214 194.030609,183.375107 
	C195.101456,182.708145 196.410172,182.678070 197.220001,182.027237 
	C217.473419,165.750885 240.866028,156.734848 266.281403,153.027115 
	C280.372375,150.971451 294.660309,149.172592 308.863068,149.145660 
	C445.830017,148.885986 582.798279,148.835495 719.764709,149.229721 
	C744.855957,149.301941 769.745056,152.544922 793.460449,161.936584 
	C834.992188,178.383728 860.669922,208.778839 873.078674,251.182953 
	C878.981995,271.356354 880.262695,291.983246 880.158630,312.835510 
	C880.017212,341.161407 880.083923,369.488678 880.164368,397.815094 
	C880.181824,403.956726 880.883850,410.098694 880.844971,416.237823 
	C880.704712,438.375916 880.238647,460.512482 880.182556,482.650360 
	C880.148132,496.244934 880.882874,509.841431 880.846008,523.435913 
	C880.693054,579.851746 880.375122,636.267029 880.124817,692.682556 
	C880.079163,702.964172 880.020935,713.246094 880.048035,723.527649 
	C880.101013,743.623962 876.968567,763.206909 870.767761,782.313721 
	C870.362122,783.563904 870.180420,784.886841 869.932129,786.578735 
	C868.928467,788.778748 867.871521,790.566956 866.848633,792.374512 
	C861.492126,801.840088 856.141296,811.308838 850.796875,820.781311 
	C850.151978,821.924255 849.557922,823.095886 848.956909,824.614258 
	C846.965881,827.070190 844.958191,829.166138 842.962097,831.618164 
	C842.307373,832.418762 841.641113,832.863281 840.974487,833.640991 
	C840.308533,834.418579 839.643066,834.863098 838.975830,835.640747 
	C837.636230,837.075684 836.298401,838.177429 834.967285,839.626587 
M324.169617,509.909973 
	C323.043091,510.165283 321.799377,510.194885 320.807648,510.709808 
	C306.348267,518.217529 291.512604,525.115234 277.616302,533.556946 
	C266.143799,540.526245 255.843369,549.342407 247.371841,560.078918 
	C233.396042,577.791504 231.450165,598.994263 248.247101,618.099854 
	C256.106628,627.039673 265.759430,633.305664 275.966248,638.947021 
	C294.065247,648.950317 313.777435,654.160156 333.816406,658.524658 
	C354.494049,663.028320 375.456299,665.660522 396.513885,665.739868 
	C428.111938,665.858948 459.718201,664.715576 491.314392,663.864563 
	C501.095642,663.601196 510.879456,662.780823 520.620178,661.798950 
	C541.402588,659.704163 562.165527,657.407349 582.921509,655.061157 
	C603.524231,652.732300 624.243896,651.047668 644.667358,647.620789 
	C671.314331,643.149536 697.711792,637.198547 724.235413,631.979797 
	C731.498962,630.550598 735.680054,626.302612 736.994141,619.126587 
	C739.324402,606.401062 741.739502,593.689087 743.870178,580.929810 
	C744.946594,574.483398 745.478027,567.946045 746.390625,560.325012 
	C632.786865,581.838379 519.281006,594.285522 404.320007,603.032654 
	C406.849304,610.140930 409.115875,616.320312 411.237762,622.549011 
	C412.424103,626.031311 414.531647,627.229858 418.314789,627.170044 
	C434.475800,626.914490 450.653168,627.361694 466.803528,626.866516 
	C480.060852,626.460022 493.291626,625.125549 506.528137,624.122925 
	C513.670410,623.581787 520.800171,622.874023 527.935547,622.241455 
	C526.799133,623.152466 525.587524,623.688660 524.319458,623.936646 
	C503.486359,628.011047 482.697449,632.340576 461.794586,636.022095 
	C435.360504,640.677917 408.734985,641.247131 381.961761,639.165039 
	C359.586670,637.424988 337.836670,633.086731 317.063293,624.713074 
	C302.817902,618.970703 289.237152,611.723145 278.682922,600.108582 
	C269.035583,589.492065 264.761169,577.500366 270.735138,563.450684 
	C275.507996,552.225769 282.744659,542.674988 292.143341,535.050232 
	C302.836548,526.375305 314.053619,518.346130 325.392273,509.911469 
	C325.244965,509.921967 325.097687,509.932434 324.169617,509.909973 
M621.038147,465.167664 
	C635.404297,463.834808 649.780029,462.596649 664.133545,461.139618 
	C675.991211,459.935944 687.621155,460.083496 698.883240,464.768097 
	C700.345154,465.376190 702.740112,464.921753 704.229614,464.100800 
	C719.611389,455.623291 728.779480,442.243408 732.537537,425.462128 
	C737.378113,403.847046 746.845764,384.424835 758.443359,365.815399 
	C764.801453,355.613312 770.135193,344.945587 772.538330,332.985992 
	C775.115540,320.160004 771.037781,312.168762 758.442566,308.422516 
	C750.868347,306.169678 742.903198,304.759521 735.020020,304.113129 
	C717.292358,302.659637 699.852356,305.456329 682.708435,309.711700 
	C662.086548,314.830322 642.627563,322.981750 624.353149,333.846558 
	C600.446655,348.059784 579.864136,365.883453 564.697266,389.475098 
	C561.188965,394.932190 557.872070,400.512329 554.489197,405.999939 
	C554.980347,399.296783 555.769775,392.705627 555.845764,386.106232 
	C555.902344,381.200348 553.786987,377.044586 548.921997,374.927307 
	C544.972290,373.208405 540.566040,372.889618 537.755310,376.129639 
	C534.835632,379.495178 532.846558,383.844238 531.169067,388.049774 
	C530.034180,390.894867 530.232544,394.252106 529.666931,397.349640 
	C529.143921,400.213226 528.397827,403.036072 527.750000,405.876892 
	C525.595825,388.787323 520.187561,372.962006 512.373413,357.971527 
	C499.465332,333.209045 482.220306,311.820587 461.124146,293.540680 
	C433.622070,269.710052 402.658234,252.642548 366.694672,245.420105 
	C356.219910,243.316513 345.698730,242.265579 335.156616,244.990448 
	C328.174835,246.795029 323.536163,250.780334 321.874207,258.216187 
	C319.413147,269.227570 321.658295,279.861420 324.737579,290.140289 
	C332.696106,316.706757 338.848480,343.348450 337.447601,371.462646 
	C337.076324,378.914551 339.832825,386.935547 342.731384,394.052521 
	C349.081360,409.644165 361.990112,418.503876 377.613464,424.641663 
	C374.358337,426.273346 371.340820,427.629303 368.472382,429.249207 
	C349.895081,439.740417 339.775574,455.936005 340.428528,477.014526 
	C341.171753,501.005951 352.000427,520.745361 371.241821,535.445068 
	C378.549774,541.028076 386.789368,544.801208 395.734680,546.713135 
	C398.527222,539.926575 400.895172,533.358582 403.874908,527.080933 
	C413.251404,507.326782 427.638458,493.699066 450.010712,489.931793 
	C464.237488,487.536102 478.429260,484.923157 492.599365,482.212494 
	C494.288544,481.889343 496.206818,480.678497 497.226013,479.295013 
	C501.943665,472.891144 506.322754,466.238953 510.963501,459.776520 
	C512.029236,458.292358 513.649719,457.206665 515.014954,455.937653 
	C515.364807,456.131805 515.714600,456.325958 516.064392,456.520111 
	C515.322021,463.804932 514.579651,471.089783 513.757080,479.161407 
	C517.142151,478.895874 519.563110,478.783203 521.964478,478.502899 
	C528.879395,477.695862 535.768188,476.503906 542.704102,476.107941 
	C546.129150,475.912384 547.418640,474.587372 547.906433,471.571198 
	C548.658386,466.921600 549.508911,462.287994 550.394714,457.205353 
	C553.234131,459.933655 555.909912,461.984253 557.929077,464.551361 
	C562.383606,470.214569 567.527100,473.442230 575.827515,470.953918 
	C586.642578,469.877319 597.471863,468.922211 608.265320,467.660950 
	C612.264893,467.193604 616.180420,466.007324 621.038147,465.167664 
M523.754150,553.095764 
	C525.252075,553.028198 526.766418,553.079163 528.245544,552.875305 
	C549.756348,549.909973 571.273132,546.984985 592.766479,543.897522 
	C613.119019,540.973938 633.471375,538.031738 653.776611,534.801086 
	C673.265320,531.700378 692.694214,528.223755 712.147766,524.902466 
	C720.401306,523.493286 728.650513,522.058960 736.739868,520.663940 
	C736.794800,519.622864 736.929321,519.246521 736.812256,518.981201 
	C727.113159,496.994324 703.253235,470.673859 669.596558,474.902069 
	C655.776001,476.638306 641.856812,477.583801 628.028809,479.268890 
	C611.408447,481.294281 594.848450,483.809814 578.242126,485.957306 
	C558.829163,488.467743 539.360596,490.568817 519.979065,493.294952 
	C501.433777,495.903473 482.942505,498.929291 464.480194,502.080597 
	C454.888245,503.717865 444.926300,504.258514 436.363464,509.776459 
	C421.307098,519.478943 413.836975,534.262756 409.056946,550.776672 
	C407.665558,555.583740 406.787598,560.539368 405.416656,566.557922 
	C419.485413,565.123962 432.158966,563.898376 444.816376,562.524109 
	C458.174805,561.073669 471.523254,559.527283 484.865967,557.937744 
	C497.539429,556.427917 510.199738,554.808228 523.754150,553.095764 
M234.133667,617.249084 
	C243.598404,637.299500 259.923676,650.538208 278.751129,660.788879 
	C313.144867,679.514404 350.936859,686.071899 389.301331,689.825745 
	C403.666809,691.231384 418.170441,691.194397 432.596832,692.054077 
	C434.130798,692.145508 436.064026,693.516357 436.964111,694.861145 
	C440.539612,700.203247 443.185455,706.265320 447.263397,711.153259 
	C456.269531,721.948303 468.543976,727.105774 482.284088,725.622070 
	C503.281464,723.354675 517.855530,711.696106 524.834717,691.504639 
	C526.092834,687.864868 527.997559,686.497070 531.404175,686.140381 
	C541.137390,685.121521 550.887390,684.221924 560.590088,682.962158 
	C576.044861,680.955627 591.494690,678.871582 606.884033,676.426270 
	C611.010681,675.770508 613.305725,676.170837 615.629517,680.151855 
	C624.418884,695.208923 637.353699,703.306396 655.317993,703.077698 
	C684.731750,702.703186 706.117920,676.682434 700.367676,647.271667 
	C694.193909,648.172974 688.002197,649.120483 681.797668,649.974854 
	C661.425659,652.779907 641.049072,655.552185 620.674011,658.335083 
	C604.404968,660.557251 588.157043,662.952209 571.860535,664.950623 
	C553.422546,667.211609 534.959290,669.302246 516.473328,671.126221 
	C494.852692,673.259399 473.227875,676.024902 451.547180,676.722290 
	C416.483978,677.850159 381.364838,677.903748 346.555359,671.994141 
	C319.144012,667.340637 292.635132,660.041138 268.748535,645.304199 
	C254.620087,636.587524 241.089233,626.906799 234.917404,610.540283 
	C232.472443,604.056824 231.491760,597.021179 230.203964,591.717773 
	C228.588867,600.244446 229.083984,604.200439 234.133667,617.249084 
M674.374146,540.974915 
	C654.565247,544.162720 634.776794,547.484375 614.942017,550.502319 
	C593.145508,553.818726 571.314819,556.915710 549.482788,559.993042 
	C535.040649,562.028748 520.582764,563.965637 506.108398,565.756592 
	C490.971802,567.629456 475.815826,569.356018 460.651703,570.992676 
	C449.436951,572.203125 438.197174,573.184387 426.965576,574.236084 
	C413.258728,575.519531 399.562866,576.964905 385.834473,577.955505 
	C378.508881,578.484131 374.047974,581.602051 374.266663,587.596252 
	C374.638000,597.774841 379.778046,602.815613 386.945770,601.996399 
	C392.381042,601.375183 397.808746,600.686768 403.246307,600.087036 
	C427.472961,597.415039 451.737244,595.046997 475.921143,592.033447 
	C505.533600,588.343445 535.116516,584.372375 564.644897,580.062256 
	C602.373413,574.555176 640.047363,568.668091 677.721069,562.793091 
	C706.384155,558.323303 735.009399,553.610779 763.653748,549.020874 
	C769.983276,548.006592 773.189148,542.304932 771.857361,534.331299 
	C770.692932,527.359680 766.160522,523.654358 759.832153,524.870850 
	C751.685242,526.436829 743.621765,528.441650 735.467224,529.961426 
	C715.412354,533.699219 695.325928,537.267578 674.374146,540.974915 
M397.007538,614.320068 
	C388.765137,613.566528 380.509399,612.935059 372.282898,612.035889 
	C350.032074,609.603943 328.441284,604.546082 307.881592,595.493652 
	C306.868744,595.047729 305.771545,594.793335 304.713654,594.449768 
	C308.381348,598.249878 312.382629,601.151001 316.497955,603.880005 
	C329.210022,612.309875 342.932343,617.700012 358.421112,618.087646 
	C371.271942,618.409241 384.023010,617.957092 397.007538,614.320068 
M523.565613,330.848083 
	C526.335266,333.817688 529.937805,336.366150 531.697693,339.846375 
	C535.149902,346.673309 537.576050,354.019135 540.403137,361.091064 
	C540.404358,361.089386 540.863037,360.749329 540.883545,360.384552 
	C541.523621,349.025330 541.407166,337.705566 536.778015,327.052765 
	C535.635376,324.423248 533.539917,321.999817 531.353943,320.084961 
	C528.693298,317.754272 523.322998,318.598419 521.462219,321.410858 
	C519.268433,324.726562 519.162537,327.981262 523.565613,330.848083 
M569.440430,330.932220 
	C562.025940,340.223419 557.972656,350.980865 555.347168,362.399902 
	C558.941284,358.448975 561.809326,354.079987 565.064758,350.021759 
	C569.016235,345.095856 573.109253,340.452820 580.239563,339.714600 
	C582.010254,339.531311 584.633911,336.265656 584.740784,334.301239 
	C584.864258,332.031952 583.229492,328.727417 581.311951,327.477203 
	C576.975708,324.650055 573.123596,326.957703 569.440430,330.932220 
M231.807251,586.091431 
	C231.706131,585.989929 231.605026,585.888428 231.503891,585.786926 
	C231.405472,585.892578 231.212128,586.011902 231.225006,586.101685 
	C231.281677,586.496826 231.397873,586.883484 231.492508,587.273193 
	C231.616272,587.024536 231.740036,586.775940 231.807251,586.091431 
M329.752625,507.246460 
	C329.808594,507.406525 329.864532,507.566620 329.920471,507.726685 
	C329.976776,507.560974 330.033081,507.395294 329.752625,507.246460 
M327.473938,508.651489 
	C327.473938,508.651489 327.593048,508.445465 327.593048,508.445465 
	C327.593048,508.445465 327.332001,508.477570 327.473938,508.651489 
z"/>
<path fill="#FEFDFD" opacity="1.000000" stroke="none" 
	d="
M574.941956,470.916992 
	C567.527100,473.442230 562.383606,470.214569 557.929077,464.551361 
	C555.909912,461.984253 553.234131,459.933655 550.394714,457.205353 
	C549.508911,462.287994 548.658386,466.921600 547.906433,471.571198 
	C547.418640,474.587372 546.129150,475.912384 542.704102,476.107941 
	C535.768188,476.503906 528.879395,477.695862 521.964478,478.502899 
	C519.563110,478.783203 517.142151,478.895874 513.757080,479.161407 
	C514.579651,471.089783 515.322021,463.804932 516.064392,456.520111 
	C515.714600,456.325958 515.364807,456.131805 515.014954,455.937653 
	C513.649719,457.206665 512.029236,458.292358 510.963501,459.776520 
	C506.322754,466.238953 501.943665,472.891144 497.226013,479.295013 
	C496.206818,480.678497 494.288544,481.889343 492.599365,482.212494 
	C478.429260,484.923157 464.237488,487.536102 450.010712,489.931793 
	C427.638458,493.699066 413.251404,507.326782 403.874908,527.080933 
	C400.895172,533.358582 398.527222,539.926575 395.734680,546.713135 
	C386.789368,544.801208 378.549774,541.028076 371.241821,535.445068 
	C352.000427,520.745361 341.171753,501.005951 340.428528,477.014526 
	C339.775574,455.936005 349.895081,439.740417 368.472382,429.249207 
	C371.340820,427.629303 374.358337,426.273346 377.613464,424.641663 
	C361.990112,418.503876 349.081360,409.644165 342.731384,394.052521 
	C339.832825,386.935547 337.076324,378.914551 337.447601,371.462646 
	C338.848480,343.348450 332.696106,316.706757 324.737579,290.140289 
	C321.658295,279.861420 319.413147,269.227570 321.874207,258.216187 
	C323.536163,250.780334 328.174835,246.795029 335.156616,244.990448 
	C345.698730,242.265579 356.219910,243.316513 366.694672,245.420105 
	C402.658234,252.642548 433.622070,269.710052 461.124146,293.540680 
	C482.220306,311.820587 499.465332,333.209045 512.373413,357.971527 
	C520.187561,372.962006 525.595825,388.787323 527.750000,405.876892 
	C528.397827,403.036072 529.143921,400.213226 529.666931,397.349640 
	C530.232544,394.252106 530.034180,390.894867 531.169067,388.049774 
	C532.846558,383.844238 534.835632,379.495178 537.755310,376.129639 
	C540.566040,372.889618 544.972290,373.208405 548.921997,374.927307 
	C553.786987,377.044586 555.902344,381.200348 555.845764,386.106232 
	C555.769775,392.705627 554.980347,399.296783 554.489197,405.999939 
	C557.872070,400.512329 561.188965,394.932190 564.697266,389.475098 
	C579.864136,365.883453 600.446655,348.059784 624.353149,333.846558 
	C642.627563,322.981750 662.086548,314.830322 682.708435,309.711700 
	C699.852356,305.456329 717.292358,302.659637 735.020020,304.113129 
	C742.903198,304.759521 750.868347,306.169678 758.442566,308.422516 
	C771.037781,312.168762 775.115540,320.160004 772.538330,332.985992 
	C770.135193,344.945587 764.801453,355.613312 758.443359,365.815399 
	C746.845764,384.424835 737.378113,403.847046 732.537537,425.462128 
	C728.779480,442.243408 719.611389,455.623291 704.229614,464.100800 
	C702.740112,464.921753 700.345154,465.376190 698.883240,464.768097 
	C687.621155,460.083496 675.991211,459.935944 664.133545,461.139618 
	C649.780029,462.596649 635.404297,463.834808 620.184082,465.060272 
	C599.794434,460.247772 579.910889,458.365601 558.964172,456.811829 
	C564.904785,462.056183 569.923340,466.486572 574.941956,470.916992 
M514.108459,418.273865 
	C514.199036,418.319885 514.289673,418.365875 514.380249,418.411896 
	C514.248291,418.278839 514.116333,418.145782 514.074829,417.164215 
	C513.592773,414.567474 513.613220,411.740356 512.545837,409.411926 
	C506.322876,395.837006 500.474823,382.033997 493.314423,368.957336 
	C480.560547,345.665680 465.106232,324.213501 445.451416,306.145721 
	C441.375824,302.399231 436.279144,299.603668 431.308136,297.038208 
	C426.758362,294.690216 421.861938,293.874359 417.390808,297.932007 
	C412.839172,302.062775 413.736938,307.222870 414.357666,312.344971 
	C414.514954,313.642853 415.114441,314.890472 415.537018,316.152374 
	C420.607605,331.293915 431.140228,342.792633 441.794891,353.926117 
	C455.597351,368.348877 469.855438,382.392517 484.659058,395.779205 
	C493.723969,403.976532 504.179321,410.636261 514.108459,418.273865 
M652.509155,381.028870 
	C656.240845,378.541901 660.130066,376.259186 663.672180,373.526428 
	C671.587402,367.419708 679.533386,361.220276 683.009155,351.277069 
	C685.789856,343.322540 681.330200,336.207397 673.131042,337.279144 
	C664.904663,338.354401 656.315979,340.479156 649.038269,344.324493 
	C618.787292,360.308136 594.041260,383.180115 571.859314,408.919739 
	C567.622131,413.836426 564.278320,419.522949 560.522339,424.854309 
	C562.299011,425.773743 563.144592,425.876953 563.821167,425.586426 
	C577.864746,419.555267 592.213562,414.121857 605.832031,407.243652 
	C621.530884,399.314728 636.581482,390.102448 652.509155,381.028870 
M384.502014,388.274445 
	C381.324280,394.899567 382.875244,399.412506 390.764801,404.851868 
	C403.453979,413.600372 418.025635,417.801483 432.828918,420.848938 
	C445.457458,423.448700 458.281860,425.374756 471.114807,426.611298 
	C480.407227,427.506683 489.855377,426.786011 499.520721,426.786011 
	C499.130280,425.995239 499.019806,425.481079 498.705811,425.177368 
	C486.398224,413.273956 474.127625,401.331116 461.699005,389.555084 
	C459.369354,387.347778 456.534515,384.490356 453.699921,384.199005 
	C439.536163,382.743347 425.298248,381.390503 411.079407,381.314728 
	C402.151520,381.267151 392.647064,381.319733 384.502014,388.274445 
M665.502747,447.073700 
	C670.447693,445.734406 675.483032,444.657715 680.316406,442.994324 
	C687.560730,440.501282 692.435120,432.777924 683.103882,425.563080 
	C681.800049,424.554871 680.348999,423.715454 678.898254,422.921997 
	C664.954773,415.295776 649.696716,412.264984 634.193787,409.916534 
	C628.787537,409.097534 623.922729,408.958221 618.892212,411.873291 
	C608.978943,417.617828 598.715942,422.755951 588.659180,428.257385 
	C583.853699,430.886169 579.188965,433.772278 573.739502,436.964172 
	C575.463013,437.506683 576.208679,437.836578 576.988159,437.972839 
	C595.906067,441.279755 614.746216,445.219482 633.781555,447.590942 
	C643.885681,448.849701 654.329590,447.381165 665.502747,447.073700 
M444.536713,372.325836 
	C438.209442,365.955444 432.164764,359.268616 425.479889,353.298645 
	C417.936920,346.562317 409.988403,340.292938 400.116913,336.949310 
	C392.728180,334.446625 385.549377,335.821045 380.696289,341.783356 
	C375.066437,348.699951 374.974365,356.908142 376.658020,365.026001 
	C378.329895,373.087280 380.167877,374.126892 388.253998,374.113312 
	C405.721710,374.083984 423.189545,374.089355 440.656952,374.004456 
	C442.006439,373.997925 443.352997,373.394379 444.536713,372.325836 
M449.075958,470.548553 
	C462.701080,462.778015 476.326202,455.007477 489.352173,447.578644 
	C478.679413,444.006836 468.043762,445.807343 457.843323,451.162415 
	C457.403412,451.393372 456.918701,451.538940 456.455231,451.725281 
	C434.203430,460.669464 412.114380,469.906128 393.054260,484.961334 
	C386.413452,490.206787 386.275330,496.374786 393.017120,501.380310 
	C394.740204,502.659637 396.652313,503.740234 398.599884,504.650421 
	C403.545013,506.961243 407.910645,506.331482 411.574127,501.951416 
	C414.130402,498.895111 416.575836,495.608887 419.649475,493.148193 
	C429.114136,485.570923 438.856812,478.341003 449.075958,470.548553 
M405.335602,439.735535 
	C398.597443,441.978058 391.523438,443.531006 385.194519,446.613708 
	C373.745941,452.190125 370.472137,466.814301 377.607269,477.398804 
	C381.147278,482.650177 382.402161,483.004822 387.619446,479.587097 
	C394.154205,475.306244 400.334106,470.428558 407.100311,466.567444 
	C422.159973,457.973785 437.489075,449.852264 452.495392,441.654633 
	C437.592957,439.095886 421.952637,438.146606 405.335602,439.735535 
M680.805786,414.774933 
	C683.171753,415.554260 685.532227,416.350830 687.904724,417.109680 
	C695.004761,419.380676 698.557434,418.117981 701.709717,411.503906 
	C703.476868,407.796112 704.961365,403.818726 705.742188,399.801270 
	C707.988770,388.241699 700.789062,379.840546 689.061829,380.025726 
	C675.862488,380.234131 665.245667,387.729004 653.845398,392.891296 
	C648.190369,395.451996 642.942871,398.912811 637.743469,401.835785 
	C651.975220,406.081177 666.029419,410.273590 680.805786,414.774933 
M371.654266,298.748077 
	C369.893433,298.271790 368.155457,297.669800 366.367096,297.345123 
	C362.538116,296.649902 358.708527,297.038208 356.793182,300.787292 
	C354.825745,304.638306 356.999176,307.980255 359.949280,310.393738 
	C366.931702,316.106201 374.970825,319.431427 384.040253,319.998932 
	C387.722870,320.229340 391.140808,319.658752 392.633881,315.626831 
	C394.216400,311.353485 391.946381,308.290894 388.614838,306.468384 
	C383.408356,303.620209 377.847137,301.420441 371.654266,298.748077 
M380.900940,267.465210 
	C376.265381,266.317230 371.660797,264.519989 366.981110,264.296783 
	C364.660797,264.186096 361.358978,266.474304 360.100311,268.616699 
	C359.248535,270.066528 360.483856,273.825012 361.990479,275.393799 
	C369.172058,282.871552 378.327179,286.568268 388.594330,286.810394 
	C390.845856,286.863525 394.290894,284.877228 395.125336,282.941681 
	C395.978577,280.962341 395.156036,276.941162 393.551544,275.493073 
	C390.080872,272.360809 385.641235,270.302124 380.900940,267.465210 
M698.196167,361.901154 
	C697.806458,367.303986 701.307129,369.515106 705.745239,369.877930 
	C714.152466,370.565216 722.343689,369.164520 729.363403,364.190186 
	C731.172058,362.908508 733.046021,359.824951 732.719788,357.945892 
	C732.379150,355.983673 729.691956,353.575989 727.557434,352.932373 
	C720.138794,350.695343 712.737366,352.306213 705.800720,355.123260 
	C702.993835,356.263184 700.881470,359.113190 698.196167,361.901154 
M738.124329,331.308685 
	C739.941833,325.909882 738.765808,323.354034 733.590576,322.045410 
	C725.515137,320.003418 717.837891,321.836365 710.360229,324.843719 
	C706.723389,326.306396 704.024719,328.801666 704.618530,333.068787 
	C705.286438,337.868805 709.131775,339.005127 713.145081,338.884796 
	C721.848694,338.623779 730.262268,337.040619 738.124329,331.308685 
M516.599548,454.539429 
	C516.599548,454.539429 516.446045,454.442200 516.446045,454.442200 
	C516.446045,454.442200 516.462646,454.643097 516.599548,454.539429 
z"/>
<path fill="#FEFDFD" opacity="1.000000" stroke="none" 
	d="
M325.042999,510.036224 
	C314.053619,518.346130 302.836548,526.375305 292.143341,535.050232 
	C282.744659,542.674988 275.507996,552.225769 270.735138,563.450684 
	C264.761169,577.500366 269.035583,589.492065 278.682922,600.108582 
	C289.237152,611.723145 302.817902,618.970703 317.063293,624.713074 
	C337.836670,633.086731 359.586670,637.424988 381.961761,639.165039 
	C408.734985,641.247131 435.360504,640.677917 461.794586,636.022095 
	C482.697449,632.340576 503.486359,628.011047 524.319458,623.936646 
	C525.587524,623.688660 526.799133,623.152466 527.935547,622.241455 
	C520.800171,622.874023 513.670410,623.581787 506.528137,624.122925 
	C493.291626,625.125549 480.060852,626.460022 466.803528,626.866516 
	C450.653168,627.361694 434.475800,626.914490 418.314789,627.170044 
	C414.531647,627.229858 412.424103,626.031311 411.237762,622.549011 
	C409.115875,616.320312 406.849304,610.140930 404.320007,603.032654 
	C519.281006,594.285522 632.786865,581.838379 746.390625,560.325012 
	C745.478027,567.946045 744.946594,574.483398 743.870178,580.929810 
	C741.739502,593.689087 739.324402,606.401062 736.994141,619.126587 
	C735.680054,626.302612 731.498962,630.550598 724.235413,631.979797 
	C697.711792,637.198547 671.314331,643.149536 644.667358,647.620789 
	C624.243896,651.047668 603.524231,652.732300 582.921509,655.061157 
	C562.165527,657.407349 541.402588,659.704163 520.620178,661.798950 
	C510.879456,662.780823 501.095642,663.601196 491.314392,663.864563 
	C459.718201,664.715576 428.111938,665.858948 396.513885,665.739868 
	C375.456299,665.660522 354.494049,663.028320 333.816406,658.524658 
	C313.777435,654.160156 294.065247,648.950317 275.966248,638.947021 
	C265.759430,633.305664 256.106628,627.039673 248.247101,618.099854 
	C231.450165,598.994263 233.396042,577.791504 247.371841,560.078918 
	C255.843369,549.342407 266.143799,540.526245 277.616302,533.556946 
	C291.512604,525.115234 306.348267,518.217529 320.807648,510.709808 
	C321.799377,510.194885 323.043091,510.165283 324.582092,509.950836 
	C324.994537,509.991699 325.042999,510.036224 325.042999,510.036224 
z"/>
<path fill="#FEFDFE" opacity="1.000000" stroke="none" 
	d="
M523.309998,553.166260 
	C510.199738,554.808228 497.539429,556.427917 484.865967,557.937744 
	C471.523254,559.527283 458.174805,561.073669 444.816376,562.524109 
	C432.158966,563.898376 419.485413,565.123962 405.416656,566.557922 
	C406.787598,560.539368 407.665558,555.583740 409.056946,550.776672 
	C413.836975,534.262756 421.307098,519.478943 436.363464,509.776459 
	C444.926300,504.258514 454.888245,503.717865 464.480194,502.080597 
	C482.942505,498.929291 501.433777,495.903473 519.979065,493.294952 
	C539.360596,490.568817 558.829163,488.467743 578.242126,485.957306 
	C594.848450,483.809814 611.408447,481.294281 628.028809,479.268890 
	C641.856812,477.583801 655.776001,476.638306 669.596558,474.902069 
	C703.253235,470.673859 727.113159,496.994324 736.812256,518.981201 
	C736.929321,519.246521 736.794800,519.622864 736.739868,520.663940 
	C728.650513,522.058960 720.401306,523.493286 712.147766,524.902466 
	C692.694214,528.223755 673.265320,531.700378 653.776611,534.801086 
	C633.471375,538.031738 613.119019,540.973938 592.766479,543.897522 
	C571.273132,546.984985 549.756348,549.909973 528.245544,552.875305 
	C526.766418,553.079163 525.252075,553.028198 523.309998,553.166260 
z"/>
<path fill="#FEFCFD" opacity="1.000000" stroke="none" 
	d="
M233.982986,616.898438 
	C229.083984,604.200439 228.588867,600.244446 230.203964,591.717773 
	C231.491760,597.021179 232.472443,604.056824 234.917404,610.540283 
	C241.089233,626.906799 254.620087,636.587524 268.748535,645.304199 
	C292.635132,660.041138 319.144012,667.340637 346.555359,671.994141 
	C381.364838,677.903748 416.483978,677.850159 451.547180,676.722290 
	C473.227875,676.024902 494.852692,673.259399 516.473328,671.126221 
	C534.959290,669.302246 553.422546,667.211609 571.860535,664.950623 
	C588.157043,662.952209 604.404968,660.557251 620.674011,658.335083 
	C641.049072,655.552185 661.425659,652.779907 681.797668,649.974854 
	C688.002197,649.120483 694.193909,648.172974 700.367676,647.271667 
	C706.117920,676.682434 684.731750,702.703186 655.317993,703.077698 
	C637.353699,703.306396 624.418884,695.208923 615.629517,680.151855 
	C613.305725,676.170837 611.010681,675.770508 606.884033,676.426270 
	C591.494690,678.871582 576.044861,680.955627 560.590088,682.962158 
	C550.887390,684.221924 541.137390,685.121521 531.404175,686.140381 
	C527.997559,686.497070 526.092834,687.864868 524.834717,691.504639 
	C517.855530,711.696106 503.281464,723.354675 482.284088,725.622070 
	C468.543976,727.105774 456.269531,721.948303 447.263397,711.153259 
	C443.185455,706.265320 440.539612,700.203247 436.964111,694.861145 
	C436.064026,693.516357 434.130798,692.145508 432.596832,692.054077 
	C418.170441,691.194397 403.666809,691.231384 389.301331,689.825745 
	C350.936859,686.071899 313.144867,679.514404 278.751129,660.788879 
	C259.923676,650.538208 243.598404,637.299500 233.982986,616.898438 
M669.225037,666.889893 
	C666.663879,667.267944 663.049866,666.704651 661.724060,668.187317 
	C656.035583,674.548889 649.453613,678.454224 639.274048,678.205139 
	C646.498474,683.789062 653.154541,685.053528 660.404358,683.284912 
	C669.347229,681.103210 674.853516,675.283813 678.138184,665.803345 
	C674.894958,666.193359 672.491455,666.482361 669.225037,666.889893 
M500.902802,692.166809 
	C501.249603,690.976807 501.596375,689.786743 502.046295,688.242737 
	C495.306915,688.012451 489.287903,686.747253 484.776886,693.411438 
	C482.898560,696.186340 478.596924,697.680481 475.097839,698.893372 
	C471.862244,700.014893 468.226715,699.982727 464.508331,700.494263 
	C474.048096,710.860413 494.183319,706.235535 500.902802,692.166809 
z"/>
<path fill="#FEFDFD" opacity="1.000000" stroke="none" 
	d="
M674.813171,540.939514 
	C695.325928,537.267578 715.412354,533.699219 735.467224,529.961426 
	C743.621765,528.441650 751.685242,526.436829 759.832153,524.870850 
	C766.160522,523.654358 770.692932,527.359680 771.857361,534.331299 
	C773.189148,542.304932 769.983276,548.006592 763.653748,549.020874 
	C735.009399,553.610779 706.384155,558.323303 677.721069,562.793091 
	C640.047363,568.668091 602.373413,574.555176 564.644897,580.062256 
	C535.116516,584.372375 505.533600,588.343445 475.921143,592.033447 
	C451.737244,595.046997 427.472961,597.415039 403.246307,600.087036 
	C397.808746,600.686768 392.381042,601.375183 386.945770,601.996399 
	C379.778046,602.815613 374.638000,597.774841 374.266663,587.596252 
	C374.047974,581.602051 378.508881,578.484131 385.834473,577.955505 
	C399.562866,576.964905 413.258728,575.519531 426.965576,574.236084 
	C438.197174,573.184387 449.436951,572.203125 460.651703,570.992676 
	C475.815826,569.356018 490.971802,567.629456 506.108398,565.756592 
	C520.582764,563.965637 535.040649,562.028748 549.482788,559.993042 
	C571.314819,556.915710 593.145508,553.818726 614.942017,550.502319 
	C634.776794,547.484375 654.565247,544.162720 674.813171,540.939514 
z"/>
<path fill="#FFFAFB" opacity="1.000000" stroke="none" 
	d="
M396.788452,614.593140 
	C384.023010,617.957092 371.271942,618.409241 358.421112,618.087646 
	C342.932343,617.700012 329.210022,612.309875 316.497955,603.880005 
	C312.382629,601.151001 308.381348,598.249878 304.713654,594.449768 
	C305.771545,594.793335 306.868744,595.047729 307.881592,595.493652 
	C328.441284,604.546082 350.032074,609.603943 372.282898,612.035889 
	C380.509399,612.935059 388.765137,613.566528 396.788452,614.593140 
z"/>
<path fill="#E4E2E3" opacity="1.000000" stroke="none" 
	d="
M575.384766,470.935455 
	C569.923340,466.486572 564.904785,462.056183 558.964172,456.811829 
	C579.910889,458.365601 599.794434,460.247772 619.732178,465.050903 
	C616.180420,466.007324 612.264893,467.193604 608.265320,467.660950 
	C597.471863,468.922211 586.642578,469.877319 575.384766,470.935455 
z"/>
<path fill="#FFFAFB" opacity="1.000000" stroke="none" 
	d="
M523.238831,330.664124 
	C519.162537,327.981262 519.268433,324.726562 521.462219,321.410858 
	C523.322998,318.598419 528.693298,317.754272 531.353943,320.084961 
	C533.539917,321.999817 535.635376,324.423248 536.778015,327.052765 
	C541.407166,337.705566 541.523621,349.025330 540.883545,360.384552 
	C540.863037,360.749329 540.404358,361.089386 540.403137,361.091064 
	C537.576050,354.019135 535.149902,346.673309 531.697693,339.846375 
	C529.937805,336.366150 526.335266,333.817688 523.238831,330.664124 
z"/>
<path fill="#FFFAFB" opacity="1.000000" stroke="none" 
	d="
M569.697205,330.672363 
	C573.123596,326.957703 576.975708,324.650055 581.311951,327.477203 
	C583.229492,328.727417 584.864258,332.031952 584.740784,334.301239 
	C584.633911,336.265656 582.010254,339.531311 580.239563,339.714600 
	C573.109253,340.452820 569.016235,345.095856 565.064758,350.021759 
	C561.809326,354.079987 558.941284,358.448975 555.347168,362.399902 
	C557.972656,350.980865 562.025940,340.223419 569.697205,330.672363 
z"/>
<path fill="#FEFCFD" opacity="1.000000" stroke="none" 
	d="
M231.835526,586.309326 
	C231.740036,586.775940 231.616272,587.024536 231.492493,587.273193 
	C231.397873,586.883484 231.281677,586.496826 231.225006,586.101685 
	C231.212128,586.011902 231.405472,585.892578 231.503906,585.786926 
	C231.605026,585.888428 231.706131,585.989929 231.835526,586.309326 
z"/>
<path fill="#FEFDFD" opacity="1.000000" stroke="none" 
	d="
M329.920990,507.238037 
	C330.033081,507.395294 329.976776,507.560974 329.920471,507.726685 
	C329.864532,507.566620 329.808594,507.406525 329.920990,507.238037 
z"/>
<path fill="#FEFDFD" opacity="1.000000" stroke="none" 
	d="
M324.972473,509.967316 
	C325.097687,509.932434 325.244965,509.921967 325.217651,509.973846 
	C325.042999,510.036224 324.994537,509.991699 324.972473,509.967316 
z"/>
<path fill="#FEFDFD" opacity="1.000000" stroke="none" 
	d="
M327.402954,508.564514 
	C327.332001,508.477570 327.593048,508.445465 327.593048,508.445465 
	C327.593048,508.445465 327.473938,508.651489 327.402954,508.564514 
z"/>
<path fill="#FEB1BD" opacity="1.000000" stroke="none" 
	d="
M514.010254,417.986511 
	C504.179321,410.636261 493.723969,403.976532 484.659058,395.779205 
	C469.855438,382.392517 455.597351,368.348877 441.794891,353.926117 
	C431.140228,342.792633 420.607605,331.293915 415.537018,316.152374 
	C415.114441,314.890472 414.514954,313.642853 414.357666,312.344971 
	C413.736938,307.222870 412.839172,302.062775 417.390808,297.932007 
	C421.861938,293.874359 426.758362,294.690216 431.308136,297.038208 
	C436.279144,299.603668 441.375824,302.399231 445.451416,306.145721 
	C465.106232,324.213501 480.560547,345.665680 493.314423,368.957336 
	C500.474823,382.033997 506.322876,395.837006 512.545837,409.411926 
	C513.613220,411.740356 513.592773,414.567474 514.036987,417.582458 
	C513.999084,418.000671 514.010254,417.986511 514.010254,417.986511 
z"/>
<path fill="#FEB1BE" opacity="1.000000" stroke="none" 
	d="
M652.211426,381.238159 
	C636.581482,390.102448 621.530884,399.314728 605.832031,407.243652 
	C592.213562,414.121857 577.864746,419.555267 563.821167,425.586426 
	C563.144592,425.876953 562.299011,425.773743 560.522339,424.854309 
	C564.278320,419.522949 567.622131,413.836426 571.859314,408.919739 
	C594.041260,383.180115 618.787292,360.308136 649.038269,344.324493 
	C656.315979,340.479156 664.904663,338.354401 673.131042,337.279144 
	C681.330200,336.207397 685.789856,343.322540 683.009155,351.277069 
	C679.533386,361.220276 671.587402,367.419708 663.672180,373.526428 
	C660.130066,376.259186 656.240845,378.541901 652.211426,381.238159 
z"/>
<path fill="#FEB1BE" opacity="1.000000" stroke="none" 
	d="
M384.764435,387.992859 
	C392.647064,381.319733 402.151520,381.267151 411.079407,381.314728 
	C425.298248,381.390503 439.536163,382.743347 453.699921,384.199005 
	C456.534515,384.490356 459.369354,387.347778 461.699005,389.555084 
	C474.127625,401.331116 486.398224,413.273956 498.705811,425.177368 
	C499.019806,425.481079 499.130280,425.995239 499.520721,426.786011 
	C489.855377,426.786011 480.407227,427.506683 471.114807,426.611298 
	C458.281860,425.374756 445.457458,423.448700 432.828918,420.848938 
	C418.025635,417.801483 403.453979,413.600372 390.764801,404.851868 
	C382.875244,399.412506 381.324280,394.899567 384.764435,387.992859 
z"/>
<path fill="#FEB1BE" opacity="1.000000" stroke="none" 
	d="
M665.061401,447.108704 
	C654.329590,447.381165 643.885681,448.849701 633.781555,447.590942 
	C614.746216,445.219482 595.906067,441.279755 576.988159,437.972839 
	C576.208679,437.836578 575.463013,437.506683 573.739502,436.964172 
	C579.188965,433.772278 583.853699,430.886169 588.659180,428.257385 
	C598.715942,422.755951 608.978943,417.617828 618.892212,411.873291 
	C623.922729,408.958221 628.787537,409.097534 634.193787,409.916534 
	C649.696716,412.264984 664.954773,415.295776 678.898254,422.921997 
	C680.348999,423.715454 681.800049,424.554871 683.103882,425.563080 
	C692.435120,432.777924 687.560730,440.501282 680.316406,442.994324 
	C675.483032,444.657715 670.447693,445.734406 665.061401,447.108704 
z"/>
<path fill="#FEB2BE" opacity="1.000000" stroke="none" 
	d="
M444.618805,372.697083 
	C443.352997,373.394379 442.006439,373.997925 440.656952,374.004456 
	C423.189545,374.089355 405.721710,374.083984 388.253998,374.113312 
	C380.167877,374.126892 378.329895,373.087280 376.658020,365.026001 
	C374.974365,356.908142 375.066437,348.699951 380.696289,341.783356 
	C385.549377,335.821045 392.728180,334.446625 400.116913,336.949310 
	C409.988403,340.292938 417.936920,346.562317 425.479889,353.298645 
	C432.164764,359.268616 438.209442,365.955444 444.618805,372.697083 
z"/>
<path fill="#FEB2BE" opacity="1.000000" stroke="none" 
	d="
M448.783691,470.762329 
	C438.856812,478.341003 429.114136,485.570923 419.649475,493.148193 
	C416.575836,495.608887 414.130402,498.895111 411.574127,501.951416 
	C407.910645,506.331482 403.545013,506.961243 398.599884,504.650421 
	C396.652313,503.740234 394.740204,502.659637 393.017120,501.380310 
	C386.275330,496.374786 386.413452,490.206787 393.054260,484.961334 
	C412.114380,469.906128 434.203430,460.669464 456.455231,451.725281 
	C456.918701,451.538940 457.403412,451.393372 457.843323,451.162415 
	C468.043762,445.807343 478.679413,444.006836 489.352173,447.578644 
	C476.326202,455.007477 462.701080,462.778015 448.783691,470.762329 
z"/>
<path fill="#FEB2BE" opacity="1.000000" stroke="none" 
	d="
M405.756836,439.595703 
	C421.952637,438.146606 437.592957,439.095886 452.495392,441.654633 
	C437.489075,449.852264 422.159973,457.973785 407.100311,466.567444 
	C400.334106,470.428558 394.154205,475.306244 387.619446,479.587097 
	C382.402161,483.004822 381.147278,482.650177 377.607269,477.398804 
	C370.472137,466.814301 373.745941,452.190125 385.194519,446.613708 
	C391.523438,443.531006 398.597443,441.978058 405.756836,439.595703 
z"/>
<path fill="#FEB1BD" opacity="1.000000" stroke="none" 
	d="
M680.444702,414.620483 
	C666.029419,410.273590 651.975220,406.081177 637.743469,401.835785 
	C642.942871,398.912811 648.190369,395.451996 653.845398,392.891296 
	C665.245667,387.729004 675.862488,380.234131 689.061829,380.025726 
	C700.789062,379.840546 707.988770,388.241699 705.742188,399.801270 
	C704.961365,403.818726 703.476868,407.796112 701.709717,411.503906 
	C698.557434,418.117981 695.004761,419.380676 687.904724,417.109680 
	C685.532227,416.350830 683.171753,415.554260 680.444702,414.620483 
z"/>
<path fill="#FEB2BE" opacity="1.000000" stroke="none" 
	d="
M372.045227,298.847015 
	C377.847137,301.420441 383.408356,303.620209 388.614838,306.468384 
	C391.946381,308.290894 394.216400,311.353485 392.633881,315.626831 
	C391.140808,319.658752 387.722870,320.229340 384.040253,319.998932 
	C374.970825,319.431427 366.931702,316.106201 359.949280,310.393738 
	C356.999176,307.980255 354.825745,304.638306 356.793182,300.787292 
	C358.708527,297.038208 362.538116,296.649902 366.367096,297.345123 
	C368.155457,297.669800 369.893433,298.271790 372.045227,298.847015 
z"/>
<path fill="#FEB2BE" opacity="1.000000" stroke="none" 
	d="
M381.249451,267.634766 
	C385.641235,270.302124 390.080872,272.360809 393.551544,275.493073 
	C395.156036,276.941162 395.978577,280.962341 395.125336,282.941681 
	C394.290894,284.877228 390.845856,286.863525 388.594330,286.810394 
	C378.327179,286.568268 369.172058,282.871552 361.990479,275.393799 
	C360.483856,273.825012 359.248535,270.066528 360.100311,268.616699 
	C361.358978,266.474304 364.660797,264.186096 366.981110,264.296783 
	C371.660797,264.519989 376.265381,266.317230 381.249451,267.634766 
z"/>
<path fill="#FEB2BE" opacity="1.000000" stroke="none" 
	d="
M698.324585,361.543091 
	C700.881470,359.113190 702.993835,356.263184 705.800720,355.123260 
	C712.737366,352.306213 720.138794,350.695343 727.557434,352.932373 
	C729.691956,353.575989 732.379150,355.983673 732.719788,357.945892 
	C733.046021,359.824951 731.172058,362.908508 729.363403,364.190186 
	C722.343689,369.164520 714.152466,370.565216 705.745239,369.877930 
	C701.307129,369.515106 697.806458,367.303986 698.324585,361.543091 
z"/>
<path fill="#FEB2BE" opacity="1.000000" stroke="none" 
	d="
M737.865112,331.596191 
	C730.262268,337.040619 721.848694,338.623779 713.145081,338.884796 
	C709.131775,339.005127 705.286438,337.868805 704.618530,333.068787 
	C704.024719,328.801666 706.723389,326.306396 710.360229,324.843719 
	C717.837891,321.836365 725.515137,320.003418 733.590576,322.045410 
	C738.765808,323.354034 739.941833,325.909882 737.865112,331.596191 
z"/>
<path fill="#FEB1BD" opacity="1.000000" stroke="none" 
	d="
M513.991699,418.006714 
	C514.116333,418.145782 514.248291,418.278839 514.380249,418.411896 
	C514.289673,418.365875 514.199036,418.319885 514.059326,418.130188 
	C514.010254,417.986511 513.999084,418.000671 513.991699,418.006714 
z"/>
<path fill="#FDAFBC" opacity="1.000000" stroke="none" 
	d="
M516.531128,454.591248 
	C516.462646,454.643097 516.446045,454.442200 516.446045,454.442200 
	C516.446045,454.442200 516.599548,454.539429 516.531128,454.591248 
z"/>
<path fill="#FEB2BE" opacity="1.000000" stroke="none" 
	d="
M669.656494,666.830627 
	C672.491455,666.482361 674.894958,666.193359 678.138184,665.803345 
	C674.853516,675.283813 669.347229,681.103210 660.404358,683.284912 
	C653.154541,685.053528 646.498474,683.789062 639.274048,678.205139 
	C649.453613,678.454224 656.035583,674.548889 661.724060,668.187317 
	C663.049866,666.704651 666.663879,667.267944 669.656494,666.830627 
z"/>
<path fill="#FEB2BE" opacity="1.000000" stroke="none" 
	d="
M500.728333,692.504395 
	C494.183319,706.235535 474.048096,710.860413 464.508331,700.494263 
	C468.226715,699.982727 471.862244,700.014893 475.097839,698.893372 
	C478.596924,697.680481 482.898560,696.186340 484.776886,693.411438 
	C489.287903,686.747253 495.306915,688.012451 502.046295,688.242737 
	C501.596375,689.786743 501.249603,690.976807 500.728333,692.504395 
z"/>
</svg>