<?xml version="1.0" encoding="UTF-8" standalone="no"?>
<!-- Created with Inkscape (http://www.inkscape.org/) -->

<svg
   version="1.1"
   id="svg1"
   width="1024"
   height="1024"
   viewBox="0 0 1024 1024"
   sodipodi:docname="logo.svg"
   inkscape:export-filename="logo.svg"
   inkscape:export-xdpi="96"
   inkscape:export-ydpi="96"
   inkscape:version="1.4.2 (ebf0e940d0, 2025-05-08)"
   xmlns:inkscape="http://www.inkscape.org/namespaces/inkscape"
   xmlns:sodipodi="http://sodipodi.sourceforge.net/DTD/sodipodi-0.dtd"
   xmlns="http://www.w3.org/2000/svg"
   xmlns:svg="http://www.w3.org/2000/svg">
  <defs
     id="defs1" />
  <sodipodi:namedview
     id="namedview1"
     pagecolor="#ffffff"
     bordercolor="#000000"
     borderopacity="0.25"
     inkscape:showpageshadow="2"
     inkscape:pageopacity="0.0"
     inkscape:pagecheckerboard="0"
     inkscape:deskcolor="#d1d1d1"
     showgrid="false"
     inkscape:zoom="0.25"
     inkscape:cx="1390"
     inkscape:cy="496"
     inkscape:window-width="1366"
     inkscape:window-height="700"
     inkscape:window-x="0"
     inkscape:window-y="0"
     inkscape:window-maximized="1"
     inkscape:current-layer="g1">
    <inkscape:page
       x="0"
       y="0"
       width="1024"
       height="1024"
       id="page2"
       margin="0"
       bleed="0" />
  </sodipodi:namedview>
  <g
     inkscape:groupmode="layer"
     inkscape:label="Image"
     id="g1">
    <g
       id="g2"
       transform="translate(-0.6760047,0.95325521)">
      <g
         id="g137"
         style="fill:#fb90ac;fill-opacity:1;stroke:#000000;stroke-opacity:1"
         transform="translate(0,2)">
        <path
           id="rect52"
           style="fill:#fb90ac;fill-opacity:1;stroke:#000000;stroke-opacity:1"
           d="m 492.20921,752.39049 c -17.51471,-0.82743 -59.79885,20.43844 -5.21094,16.47071 2.36841,-0.83832 4.73706,-1.67535 7.10547,-2.51367 8.01991,-9.92519 4.95905,-13.63326 -1.89453,-13.95704 z" />
        <path
           id="path137"
           style="fill:#fb90ac;fill-opacity:1;stroke:#000000;stroke-opacity:1"
           d="m 242.81663,615.47057 c 14.98222,11.17274 44.74635,32.83072 57.68359,30.46875 14.42953,0.7999 28.9091,0.75523 43.32813,-0.23633 -10.88952,-6.02528 -69.61999,-13.16734 -101.01172,-30.23242 z" />
        <path
           id="path136"
           style="fill:#fb90ac;fill-opacity:1;stroke:#000000;stroke-opacity:1"
           d="m 233.89085,609.06628 c -0.16515,0.0156 0.25085,0.53779 1.35547,1.68359 2.28004,1.65336 4.82002,3.2256 7.57031,4.7207 -5.14673,-3.83809 -8.5489,-6.43998 -8.92578,-6.40429 z" />
        <path
           id="path135"
           style="fill:#fb90ac;fill-opacity:1;stroke:#fb90ac;stroke-opacity:1"
           d="m 128.00413,598.1444 c -2.26249,0.14461 -3.04368,23.91741 3.20508,37.19727 44.27852,75.47225 137.80043,98.13413 218.5625,110.24218 50.12183,-12.10218 77.70396,26.69674 115.72851,48.76758 12.97569,2.94049 26.86413,1.39539 38.96875,-4.07812 35.1336,-50.60815 95.8628,-42.96665 150.53907,-48.80274 26.8453,16.3261 85.0139,49.08613 113.86132,3.25 25.44889,-41.25414 -15.77833,-33.9098 -31.90625,-9.15625 -25.71203,21.44118 -50.46331,-6.49141 -10.47461,-14.88086 -129.24536,13.27955 -260.43844,26.26629 -389.72851,6.36133 -75.71851,-14.06376 -166.11644,-33.83052 -205.02734,-108.23242 -1.16576,-15.17427 -2.62358,-20.73859 -3.72852,-20.66797 z" />
        <path
           id="path134"
           style="fill:#fb90ac;fill-opacity:1;stroke:#000000;stroke-opacity:1"
           d="m 865.75218,536.99987 c -135.03215,23.28069 -270.55784,44.86287 -407.2168,55.96094 -36.28975,17.22036 -128.65661,-22.71164 -123.44336,34.9082 l 0.29297,0.0996 2.75195,0.94922 c 145.53482,-1.42435 290.22582,-26.62191 434.42578,-45.9336 28.47816,-8.23437 131.22287,0.73209 93.18946,-45.98437 z" />
        <path
           id="path133"
           style="fill:#fb90ac;fill-opacity:1;stroke:#fb90ac;stroke-opacity:1"
           d="m 255.71897,484.57018 c -5.17907,0.0277 -32.39007,11.33341 -44.73437,19.02539 -51.33672,19.03724 -95.25107,84.10931 -53.67383,133.26367 78.20057,71.83213 190.27821,79.84258 291.18945,85.46485 100.40093,2.39397 201.41464,-1.85117 300.31641,-20.27735 68.43957,7.39685 98.31956,-56.08453 92.50391,-115.32226 -112.1397,17.99309 -224.94228,32.15139 -338.22657,40.50391 -43.34341,11.50648 -96.11117,-7.62345 -133.36914,14.89843 14.00179,49.31626 97.49463,18.18081 140.57227,25.28711 47.71699,-6.03352 17.2035,4.27535 -11.09766,7.65039 -91.16908,10.23834 -192.81099,11.73382 -272.73437,-39.8789 -61.96313,-29.54365 -45.29266,-110.9875 10.65625,-137.38477 17.47562,-9.7118 21.50299,-13.24598 18.59765,-13.23047 z" />
        <path
           id="path132"
           style="fill:#fb90ac;fill-opacity:1;stroke:#000000;stroke-opacity:1"
           d="m 759.29319,464.11706 c -84.99619,0.10451 -169.07249,14.02075 -253.17969,24.58789 -61.71552,-3.27403 -140.41489,25.73489 -141.11523,98.58008 141.61335,-6.54449 283.38825,-29.54026 423.85938,-51.40625 75.45055,5.96585 9.80809,-70.3863 -29.56446,-71.76172 z" />
        <path
           id="path131"
           style="fill:#fb90ac;fill-opacity:1;stroke:#000000;stroke-opacity:1"
           d="m 759.29319,464.11706 c 39.37255,1.37542 105.01501,77.72757 29.56446,71.76172 -140.47113,21.86599 -282.24603,44.86176 -423.85938,51.40625 0.70034,-72.84519 79.39971,-101.85411 141.11523,-98.58008 84.1072,-10.56714 168.1835,-24.48338 253.17969,-24.58789 z m 106.45899,72.88281 c 38.03341,46.71646 -64.7113,37.75 -93.18946,45.98437 -144.19996,19.31169 -288.89096,44.50925 -434.42578,45.9336 l -2.75195,-0.94922 -0.29297,-0.0996 c -5.21325,-57.61984 87.15361,-17.68784 123.44336,-34.9082 136.65896,-11.09807 272.18465,-32.68025 407.2168,-55.96094 z" />
        <path
           id="path130"
           style="fill:#fb90ac;fill-opacity:1;stroke:#000000;stroke-opacity:1"
           d="m 476.06858,419.65221 c -44.62436,1.6359 -91.64012,27.59639 -120.96289,59.02149 -5.673,13.76783 12.09762,16.33854 21.21094,14.17578 23.7423,-30.72626 88.89797,-59.25498 99.75195,-73.19727 z" />
        <path
           id="path129"
           style="fill:#fb90ac;fill-opacity:1;stroke:#000000;stroke-opacity:1"
           d="m 476.06858,419.65221 c -10.85398,13.94229 -76.00965,42.47101 -99.75195,73.19727 -9.11332,2.16276 -26.88394,-0.40795 -21.21094,-14.17578 29.32277,-31.4251 76.33853,-57.38559 120.96289,-59.02149 z" />
        <path
           id="path128"
           style="fill:#fb90ac;fill-opacity:1;stroke:#000000;stroke-opacity:1"
           d="m 387.03147,407.0526 c -33.47233,-1.2004 -75.10532,51.77137 -29.11328,49.40039 2.07013,-1.30821 4.14081,-2.61757 6.21094,-3.92578 14.66594,-15.79246 99.41739,-43.57919 36.46875,-41.32422 -4.16938,-2.70187 -8.78464,-3.9789 -13.56641,-4.15039 z" />
        <path
           id="path127"
           style="fill:#fb90ac;fill-opacity:1;stroke:#000000;stroke-opacity:1"
           d="m 671.8264,369.9862 c -13.65641,0.28051 -25.60252,3.79419 -31.50391,11.88086 -24.1992,6.16621 -57.31839,35.77725 -9.97852,33.31054 30.75409,6.03015 62.4687,7.26279 93.57032,3.31446 45.24629,-21.10062 -11.11866,-49.3474 -52.08789,-48.50586 z" />
        <path
           id="path126"
           style="fill:#fb90ac;fill-opacity:1;stroke:#000000;stroke-opacity:1"
           d="m 671.8264,369.9862 c 40.96923,-0.84154 97.33418,27.40524 52.08789,48.50586 -31.10162,3.94833 -62.81623,2.71569 -93.57032,-3.31446 -47.33987,2.46671 -14.22068,-27.14433 9.97852,-33.31054 5.90139,-8.08667 17.8475,-11.60035 31.50391,-11.88086 z" />
        <path
           id="path125"
           style="fill:#fb90ac;fill-opacity:1;stroke:#000000;stroke-opacity:1"
           d="m 740.36546,331.33581 c -20.28157,0.72982 -43.99809,9.48717 -52.43946,24.50586 13.7523,12.0275 52.36335,18.58677 73.86329,16.25 25.04993,-29.3613 4.65247,-41.6942 -21.42383,-40.75586 z" />
        <path
           id="path124"
           style="fill:#fb90ac;fill-opacity:1;stroke:#000000;stroke-opacity:1"
           d="m 740.36546,331.33581 c 26.0763,-0.93834 46.47376,11.39456 21.42383,40.75586 -21.49994,2.33677 -60.11099,-4.2225 -73.86329,-16.25 8.44137,-15.01869 32.15789,-23.77604 52.43946,-24.50586 z" />
        <path
           id="path123"
           style="fill:#fb90ac;fill-opacity:1;stroke:#000000;stroke-opacity:1"
           d="m 392.69163,327.39635 c -13.10001,0.48246 -26.4102,3.80876 -39.43164,10.53516 2.27401,48.98769 87.20241,47.41457 127.73437,53.53125 4.55751,-1.53152 30.59551,5.98237 10.45313,-6.71289 -22.0473,-34.66065 -59.45582,-58.80089 -98.75586,-57.35352 z" />
        <path
           id="path122"
           style="fill:#fb90ac;fill-opacity:1;stroke:#000000;stroke-opacity:1"
           d="m 798.93186,291.76159 c -16.96428,0.76466 -55.04715,23.4806 -2.39453,17.76172 l 1.9336,-0.4668 c 11.52051,-13.45451 8.17197,-17.64249 0.46093,-17.29492 z" />
        <path
           id="path121"
           style="fill:#fb90ac;fill-opacity:1;stroke:#000000;stroke-opacity:1"
           d="m 715.80296,272.12096 c -30.08228,1.47422 -72.4681,43.78791 -91.38281,61.78907 -14.97699,17.21067 -36.81961,33.40003 -40.79688,56.96875 55.74789,-27.6386 118.75211,-48.27403 159.69922,-97.82422 -5.85939,-15.83367 -15.74821,-21.51046 -27.51953,-20.9336 z" />
        <path
           id="path120"
           style="fill:#fb90ac;fill-opacity:1;stroke:#000000;stroke-opacity:1"
           d="m 358.18772,269.66003 c -14.47699,-0.36213 -24.6743,8.50144 -22.11132,33.32226 24.46508,23.97492 61.17543,7.78462 90.92382,14.20117 -8.66442,-20.68997 -44.68418,-46.91989 -68.8125,-47.52343 z" />
        <path
           id="path119"
           style="fill:#fb90ac;fill-opacity:1;stroke:#000000;stroke-opacity:1"
           d="m 604.85569,256.43932 c -9.89783,0.47547 -39.83131,28.02833 -33.6582,45.31055 5.35405,5.98221 21.10116,-31.10467 33.87891,-33.43164 4.31907,-8.68027 3.35936,-12.05088 -0.22071,-11.87891 z" />
        <path
           id="path118"
           style="fill:#fb90ac;fill-opacity:1;stroke:#000000;stroke-opacity:1"
           d="m 807.16429,251.45885 c -17.26332,-0.75636 -58.24936,26.05289 -2.87305,18.60938 l 2.81055,-0.75391 2.23437,-0.59961 c 7.70458,-12.44161 4.58333,-16.95989 -2.17187,-17.25586 z" />
        <path
           id="path117"
           style="fill:#fb90ac;fill-opacity:1;stroke:#000000;stroke-opacity:1"
           d="m 534.55491,243.48424 c -9.00553,-0.12102 11.98838,39.37314 16.04297,53.48438 5.98034,29.85996 2.09061,-43.79065 -0.39063,-42.63867 -8.25581,-7.67254 -13.13079,-10.81182 -15.65234,-10.84571 z" />
        <path
           id="path116"
           style="fill:#fb90ac;fill-opacity:1;stroke:#000000;stroke-opacity:1"
           d="m 327.72874,217.23229 c -18.19526,0.16929 -33.4772,11.6346 1.91797,23.95703 7.40531,2.57828 15.77898,3.96984 23.35351,1.0586 4.79468,-18.44646 -11.11962,-25.1473 -25.27148,-25.01563 z" />
        <path
           id="path115"
           style="fill:#fb90ac;fill-opacity:1;stroke:#000000;stroke-opacity:1"
           d="m 409.83421,214.91589 c -62.76696,1.69007 10.03484,78.39138 33.19531,96.97656 23.41071,19.77154 41.72086,50.57071 71.7832,59.85742 C 494.44907,311.82341 463.64594,251.29578 409.83421,214.91589 Z" />
        <path
           id="path114"
           style="fill:#fb90ac;fill-opacity:1;stroke:#000000;stroke-opacity:1"
           d="m 325.9514,173.28503 c -16.34419,0.70678 -27.50465,9.75086 4.18164,23.27734 7.09659,2.92324 14.99516,5.35343 22.73632,3.47461 10.9545,-19.82793 -10.57378,-27.45874 -26.91796,-26.75195 z" />
        <path
           id="path113"
           style="fill:#fb90ac;fill-opacity:1;stroke:#000000;stroke-opacity:1"
           d="m 513.70725,443.04674 c 2.19904,-3.53701 4.12501,-7.49034 5.73633,-11.92187 -3.13432,4.34302 -4.9584,8.32788 -5.73633,11.92187 z" />
        <path
           id="path112"
           style="fill:#fb90ac;fill-opacity:1;stroke:#fb90ac;stroke-opacity:1"
           d="m 302.19358,142.59557 c -75.21511,1.91593 -22.84083,97.40298 -16.41992,142.55274 -8.30228,46.05209 18.93776,76.2015 46.40625,104.875 -60.9114,30.65912 -44.82234,123.38065 10.25195,151.72656 21.06435,3.81842 25.8385,-25.47811 37.3086,-37.40234 33.71706,-38.64763 105.9918,-16.30464 133.96679,-61.30079 0.77793,-3.59399 2.60201,-7.57885 5.73633,-11.92187 -1.61132,4.43153 -3.53729,8.38486 -5.73633,11.92187 -6.11684,28.25981 52.40686,32.36525 46.5254,-3.36914 21.61187,15.64589 64.606,19.08955 99.04296,9.38477 53.04205,-7.33723 126.15339,10.83631 148.62305,-55.70117 -0.81533,-55.9916 91.19299,-112.06386 35.93359,-160.67969 -55.459,-14.5664 -114.5058,-0.61252 -164.39648,25.28711 -45.53605,20.81962 -81.36766,54.90817 -105.83984,98.49219 12.09493,-33.74953 -43.06764,-41.30986 -39.49414,1.49414 C 516.79108,247.53758 417.37812,161.71041 309.87718,142.7069 c -2.69766,-0.13776 -5.2573,-0.17313 -7.6836,-0.11133 z m 23.75782,30.68946 c 16.34418,-0.70679 37.87246,6.92402 26.91796,26.75195 -7.74116,1.87882 -15.63973,-0.55137 -22.73632,-3.47461 -31.68629,-13.52648 -20.52583,-22.57056 -4.18164,-23.27734 z m 83.88281,41.63086 c 53.81173,36.37989 84.61486,96.90752 104.97851,156.83398 -30.06234,-9.28671 -48.37249,-40.08588 -71.7832,-59.85742 -23.16047,-18.58518 -95.96227,-95.28649 -33.19531,-96.97656 z m -82.10547,2.3164 c 14.15186,-0.13167 30.06616,6.56917 25.27148,25.01563 -7.57453,2.91124 -15.9482,1.51968 -23.35351,-1.0586 -35.39517,-12.32243 -20.11323,-23.78774 -1.91797,-23.95703 z m 206.82617,26.25195 c 2.52155,0.0339 7.39653,3.17317 15.65234,10.84571 2.48124,-1.15198 6.37097,72.49863 0.39063,42.63867 -4.05459,-14.11124 -25.0485,-53.6054 -16.04297,-53.48438 z m 272.60938,7.97461 c 6.7552,0.29597 9.87645,4.81425 2.17187,17.25586 l -2.23437,0.59961 -2.81055,0.75391 c -55.37631,7.44351 -14.39027,-19.36574 2.87305,-18.60938 z m -202.3086,4.98047 c 3.58007,-0.17197 4.53978,3.19864 0.22071,11.87891 -12.77775,2.32697 -28.52486,39.41385 -33.87891,33.43164 -6.17311,-17.28222 23.76037,-44.83508 33.6582,-45.31055 z m -246.66797,13.22071 c 24.12832,0.60354 60.14808,26.83346 68.8125,47.52343 -29.74839,-6.41655 -66.45874,9.77375 -90.92382,-14.20117 -2.56298,-24.82082 7.63433,-33.68439 22.11132,-33.32226 z m 357.61524,2.46093 c 11.77132,-0.57686 21.66014,5.09993 27.51953,20.9336 -40.94711,49.55019 -103.95133,70.18562 -159.69922,97.82422 3.97727,-23.56872 25.81989,-39.75808 40.79688,-56.96875 18.91471,-18.00116 61.30053,-60.31485 91.38281,-61.78907 z m 83.1289,19.64063 c 7.71104,-0.34757 11.05958,3.84041 -0.46093,17.29492 l -1.9336,0.4668 c -52.65262,5.71888 -14.56975,-16.99706 2.39453,-17.76172 z m -406.24023,35.63476 c 39.30004,-1.44737 76.70856,22.69287 98.75586,57.35352 20.14238,12.69526 -5.89562,5.18137 -10.45313,6.71289 -40.53196,-6.11668 -125.46036,-4.54356 -127.73437,-53.53125 13.02144,-6.7264 26.33163,-10.0527 39.43164,-10.53516 z m -5.66016,79.65625 c 4.78177,0.17149 9.39703,1.44852 13.56641,4.15039 62.94864,-2.25497 -21.80281,25.53176 -36.46875,41.32422 -2.07013,1.30821 -4.14081,2.61757 -6.21094,3.92578 -45.99204,2.37098 -4.35905,-50.60079 29.11328,-49.40039 z" />
        <path
           id="path107"
           style="fill:#fb90ac;fill-opacity:1;stroke:#fb90ac;stroke-opacity:1"
           d="m 0.6760047,123.30456 v 776.0625 c 0.7039275,2.70731 1.5206508,6.4027 2.4667969,11.24414 7.5996944,47.02748 75.6078244,94.2247 108.7539084,109.9551 H 898.4885 c 59.77025,-15.0944 117.3619,-67.17381 126.7129,-127.08206 V 121.82604 C 1008.9531,65.452482 952.11713,12.299793 895.79124,-0.95325521 H 124.176 C 64.114941,13.452117 10.473901,69.545147 1.0900672,130.49987 0.92425029,128.10201 0.78738216,125.70387 0.6760047,123.30456 Z M 302.19358,142.59557 c 2.4263,-0.0618 4.98594,-0.0264 7.6836,0.11133 107.50094,19.00351 206.9139,104.83068 224.22461,215.24805 -3.5735,-42.804 51.58907,-35.24367 39.49414,-1.49414 24.47218,-43.58402 60.30379,-77.67257 105.83984,-98.49219 49.89068,-25.89963 108.93748,-39.85351 164.39648,-25.28711 55.2594,48.61583 -36.74892,104.68809 -35.93359,160.67969 -22.46966,66.53748 -95.581,48.36394 -148.62305,55.70117 -34.43696,9.70478 -77.43109,6.26112 -99.04296,-9.38477 5.88146,35.73439 -52.64224,31.62895 -46.5254,3.36914 -27.97499,44.99615 -100.24973,22.65316 -133.96679,61.30079 -11.4701,11.92423 -16.24425,41.22076 -37.3086,37.40234 -55.07429,-28.34591 -71.16335,-121.06744 -10.25195,-151.72656 -27.46849,-28.6735 -54.70853,-58.82291 -46.40625,-104.875 -6.42091,-45.14976 -58.79519,-140.63681 16.41992,-142.55274 z m -46.47461,341.97461 c 2.90534,-0.0155 -1.12203,3.51867 -18.59765,13.23047 -55.94891,26.39727 -72.61938,107.84112 -10.65625,137.38477 79.92338,51.61272 181.56529,50.11724 272.73437,39.8789 28.30116,-3.37504 58.81465,-13.68391 11.09766,-7.65039 -43.07764,-7.1063 -126.57048,24.02915 -140.57227,-25.28711 37.25797,-22.52188 90.02573,-3.39195 133.36914,-14.89843 113.28429,-8.35252 226.08687,-22.51082 338.22657,-40.50391 5.81565,59.23773 -24.06434,122.71911 -92.50391,115.32226 -98.90177,18.42618 -199.91548,22.67132 -300.31641,20.27735 -100.91124,-5.62227 -212.98888,-13.63272 -291.18945,-85.46485 -41.57724,-49.15436 2.33711,-114.22643 53.67383,-133.26367 12.3443,-7.69198 39.5553,-18.99773 44.73437,-19.02539 z M 128.00413,598.1444 c 1.10494,-0.0706 2.56276,5.4937 3.72852,20.66797 38.9109,74.4019 129.30883,94.16866 205.02734,108.23242 129.29007,19.90496 260.48315,6.91822 389.72851,-6.36133 -39.9887,8.38945 -15.23742,36.32204 10.47461,14.88086 16.12792,-24.75355 57.35514,-32.09789 31.90625,9.15625 -28.84742,45.83613 -87.01602,13.0761 -113.86132,-3.25 -54.67627,5.83609 -115.40547,-1.80541 -150.53907,48.80274 -12.10462,5.47351 -25.99306,7.01861 -38.96875,4.07812 -38.02455,-22.07084 -65.60668,-60.86976 -115.72851,-48.76758 -80.76207,-12.10805 -174.28398,-34.76993 -218.5625,-110.24218 -6.24876,-13.27986 -5.46757,-37.05266 -3.20508,-37.19727 z m 105.88672,10.92188 c 0.37688,-0.0357 3.77905,2.5662 8.92578,6.40429 31.39173,17.06508 90.1222,24.20714 101.01172,30.23242 -14.41903,0.99156 -28.8986,1.03623 -43.32813,0.23633 -12.93724,2.36197 -42.70137,-19.29601 -57.68359,-30.46875 -2.75029,-1.4951 -5.29027,-3.06734 -7.57031,-4.7207 -1.10462,-1.1458 -1.52062,-1.66796 -1.35547,-1.68359 z m 258.31836,143.32421 c 6.85358,0.32378 9.91444,4.03185 1.89453,13.95704 -2.36841,0.83832 -4.73706,1.67535 -7.10547,2.51367 -54.58791,3.96773 -12.30377,-17.29814 5.21094,-16.47071 z" />
      </g>
      <g
         id="g52">
        <path
           style="fill:#fb90ac;fill-opacity:1;stroke-width:2.12448"
           d="m 360.1184,492.26387 c -2.91081,-1.47271 -5.63111,-4.4365 -6.0451,-6.58621 -1.76701,-9.17532 38.15383,-40.1259 67.20961,-52.10754 16.62821,-6.85692 44.74093,-13.75422 50.74457,-12.4499 3.79106,0.82363 -0.79418,4.0434 -54.29173,38.12384 -9.78061,6.2307 -23.78943,16.82565 -31.1307,23.54432 -13.83722,12.6637 -17.55577,13.994 -26.48665,9.47549 z"
           id="path18"
           transform="translate(0.6760047,-0.95325521)" />
        <path
           style="fill:#fb90ac;fill-opacity:1;stroke:#fb90ac;stroke-opacity:1"
           d="m 334.40922,537.82577 c -26.88696,-17.05119 -45.05068,-56.64787 -41.20094,-89.81751 1.91832,-16.52833 11.11054,-35.05897 22.64396,-45.64805 5.22786,-4.79982 10.81084,-9.16214 12.40662,-9.69407 1.95225,-0.65075 -1.77687,-6.45007 -11.39918,-17.72735 -25.48726,-29.87092 -33.40905,-48.93965 -33.12335,-79.73201 0.14294,-15.40522 -1.24428,-22.80042 -9.74564,-51.95367 -11.92696,-40.9005 -14.68953,-68.99668 -8.03913,-81.76051 12.22928,-23.47115 51.29806,-22.57795 108.55567,2.48183 41.3874,18.1139 86.66201,53.93995 113.34398,89.68973 16.23896,21.75773 34.0923,57.80452 40.33655,81.4416 2.65293,10.04237 5.03141,17.38418 5.28556,16.31514 0.25413,-1.06905 1.04937,-4.60242 1.76717,-7.85194 1.53925,-6.96831 12.26801,-14.25486 21.00591,-14.26641 8.02625,-0.0106 18.4258,10.37166 18.4258,18.39516 0,5.33049 1.04954,4.41857 9.6226,-8.36086 12.39659,-18.47897 34.04386,-41.37206 51.78914,-54.76962 18.7876,-14.1845 58.6301,-34.34651 85.91473,-43.47651 23.51423,-7.86835 56.27507,-13.7872 75.74407,-13.68458 17.6026,0.0928 44.42794,5.46017 49.29723,9.8637 7.98858,7.22444 13.15661,20.13409 13.07522,32.6616 -0.0936,14.41098 -5.85309,27.72855 -25.57969,59.14767 -17.42981,27.76099 -23.4097,40.60781 -26.37926,56.67165 -5.76399,31.18036 -25.29779,50.23201 -58.68089,57.23249 -7.92264,1.66139 -29.22307,3.61262 -47.33427,4.33607 -18.1112,0.72345 -40.4442,2.66633 -49.62888,4.31752 -31.74776,5.7075 -65.30688,3.19226 -84.38376,-6.32454 -8.67598,-4.32814 -8.32761,-4.4141 -8.32761,2.05443 0,3.21828 -2.55947,8.03409 -6.21003,11.68465 -5.07405,5.07405 -8.00802,6.21003 -16.03911,6.21003 -13.14805,0 -22.16877,-4.86134 -23.75708,-12.80287 l -1.2493,-6.24646 -10.42287,9.37106 c -11.82731,10.63378 -25.25087,15.79597 -58.10584,22.3453 -47.2998,9.42879 -58.30241,15.655 -74.23812,42.01026 -7.35903,12.17073 -12.64349,18.47774 -17.35542,20.71369 -8.46216,4.01557 -6.81804,4.27354 -18.01384,-2.82662 z m 54.18524,-55.27508 c 8.28135,-6.84939 30.47321,-22.52232 49.31525,-34.82872 18.84205,-12.30642 34.91175,-23.43267 35.71045,-24.72499 2.50646,-4.05555 -12.03899,-2.68456 -31.57179,2.97582 -23.7201,6.87381 -43.2005,16.78113 -64.38797,32.74638 -23.80162,17.93506 -28.69569,26.33556 -19.21259,32.97779 8.27887,5.79873 14.27772,3.97873 30.14665,-9.14628 z m -23.3842,-30.7869 c 3.61568,-2.74982 16.7669,-10.43749 29.22493,-17.08369 32.14435,-17.14865 34.32199,-21.06107 12.96805,-23.29881 -6.73734,-0.70603 -15.87852,-1.88775 -20.31374,-2.62607 -16.67634,-2.77602 -45.21482,17.17822 -49.60925,34.68698 -3.11143,12.39692 15.16129,17.88044 27.73001,8.32159 z m 361.7315,-34.62078 c 4.06161,-1.92735 8.89597,-5.81071 10.74302,-8.62966 11.16814,-17.04474 -27.41448,-37.98726 -67.06463,-36.40248 -15.532,0.6208 -19.56488,1.56453 -25.84007,6.04681 -4.08962,2.92116 -11.73776,7.33226 -16.99585,9.80244 -20.49253,9.62713 -27.57632,23.3056 -13.80913,26.66483 13.74975,3.355 39.73428,5.41979 71.9113,5.71424 27.34749,0.25024 35.05744,-0.34997 41.05536,-3.19618 z M 485.24073,377.62656 c -17.715,-20.75096 -29.68799,-30.49814 -48.65982,-39.61384 -15.32167,-7.36185 -16.83112,-7.65587 -39.3029,-7.65587 -28.65894,0 -43.55187,4.45507 -43.55187,13.0281 0,16.88466 19.82543,31.66554 52.57874,39.20015 12.88957,2.96513 68.53182,9.9018 81.89415,10.20938 l 10.19076,0.23457 z m 138.39377,-4.88387 c 53.37569,-24.8161 79.53011,-40.69639 101.65741,-61.72374 l 18.11388,-17.21342 -3.9021,-6.15588 c -6.58483,-10.38808 -12.00994,-13.49703 -23.55348,-13.49766 -17.68941,-9.7e-4 -35.58974,10.18832 -69.01032,39.28232 -21.33191,18.57032 -53.45263,52.86394 -58.13464,62.06734 -3.46174,6.80469 -6.29626,15.40291 -5.07779,15.40291 0.46401,0 18.42219,-8.17283 39.90704,-18.16187 z m 143.21371,-8.04968 c 12.01388,-20.50014 3.15526,-32.00755 -24.51774,-31.84872 -18.29704,0.10502 -35.79263,5.78238 -46.76691,15.17596 l -8.83685,7.564 4.77331,3.86518 c 8.31365,6.73199 37.27778,13.72145 58.88346,14.2094 10.8947,0.24606 11.14658,0.1089 16.46473,-8.96582 z m -254.93559,2.31114 C 505.11704,344.38237 484.08495,300.65536 468.93585,277.65274 449.91684,248.774 416.0732,216.6971 404.62288,216.6971 c -15.83491,0 -23.43652,10.31007 -18.3936,24.94726 7.5371,21.87661 20.54402,37.68964 70.92461,86.2259 39.79667,38.3398 58.54521,51.73863 54.75873,39.13389 z m -89.98376,-56.52188 c -19.19758,-26.96051 -64.00793,-47.83387 -77.91967,-36.29619 -8.82471,7.31875 -12.21263,26.50576 -5.68554,32.19921 9.27582,8.0911 14.27664,9.09832 50.45643,10.16243 19.8639,0.58423 36.45948,0.87828 36.87907,0.65344 0.41958,-0.22485 -1.25905,-3.24834 -3.73029,-6.71889 z m 378.46948,-4.1114 c 2.04481,-1.77572 3.71784,-5.47045 3.71784,-8.21051 0,-4.2166 -1.06069,-4.97274 -6.90456,-4.92209 -8.53519,0.074 -25.7921,8.63201 -26.68228,13.23224 -1.20492,6.22679 22.67559,6.14713 29.869,-0.0996 z m 8.09744,-38.81686 c 5.75458,-5.75459 4.68631,-13.44793 -1.99863,-14.39336 -10.83823,-1.53281 -32.54064,10.81765 -29.01971,16.51461 0.76764,1.24209 7.07541,2.25835 14.01724,2.25835 9.91436,0 13.56086,-0.93937 17.0011,-4.3796 z M 352.69594,242.13904 c 2.89708,-4.68759 -1.58045,-15.17778 -8.20158,-19.21508 -14.32518,-8.73491 -43.62259,-2.36589 -35.31342,7.67685 7.93119,9.5859 39.54147,17.96753 43.515,11.53823 z m 0.94351,-45.39651 c 4.39408,-11.5573 -3.57546,-19.78643 -21.18168,-21.87163 -11.38239,-1.34807 -23.34574,2.19899 -23.34574,6.92188 0,6.30073 24.68259,19.70031 36.69989,19.92348 4.31809,0.0802 6.41186,-1.25023 7.82753,-4.97373 z"
           id="path19"
           transform="translate(0.6760047,-0.95325521)" />
        <path
           style="fill:#fb90ac;fill-opacity:1;stroke-width:2.12448"
           d="M 414.27386,722.06935 C 299.55997,714.08489 228.2825,693.57601 174.61917,653.11278 c -27.44589,-20.69475 -36.87731,-38.21119 -34.62572,-64.30834 2.11331,-24.49439 17.60744,-50.3326 40.57165,-67.65781 17.83236,-13.45351 71.70941,-39.07406 75.08009,-35.70338 1.52884,1.52884 -4.80497,6.04146 -19.82776,14.12658 -16.81252,9.04833 -32.81484,25.35479 -40.34392,41.11067 -4.85623,10.16251 -6.2829,16.5277 -7.03673,31.39493 -0.89159,17.58416 -0.56271,19.42569 5.76474,32.27856 7.31156,14.85189 13.69271,20.76366 37.63509,34.86676 31.77673,18.71787 68.92683,31.1104 112.32937,37.47081 42.28153,6.19615 131.25891,3.84043 171.96327,-4.5528 8.11341,-1.67299 15.13009,-3.42023 15.59263,-3.88276 0.46252,-0.46254 -15.73589,-0.19774 -35.99647,0.58844 -20.2606,0.78618 -51.17769,1.42942 -68.70466,1.42942 -29.37939,0 -32.53348,-0.38201 -40.40165,-4.89329 -8.09448,-4.64106 -18.02159,-16.17597 -18.02159,-20.94041 0,-2.77443 12.9829,-8.50975 25.49378,-11.26212 5.25809,-1.15677 27.80404,-2.12659 50.10211,-2.15515 22.29806,-0.0286 45.72047,-0.97452 52.04979,-2.10213 6.32932,-1.1276 29.67216,-3.57123 51.87299,-5.43029 76.01898,-6.36569 196.63469,-21.07885 266.92413,-32.56041 13.2714,-2.16784 24.98184,-3.4658 26.02317,-2.88434 1.04136,0.58146 1.3213,9.76627 0.62209,20.41069 -3.74671,57.03846 -35.11924,94.73996 -78.84411,94.74982 -7.09475,0.002 -20.55799,1.35072 -29.91828,2.99809 -42.33741,7.45109 -93.20291,12.98963 -147.62857,16.0747 -43.32625,2.4559 -134.32703,2.34434 -171.02075,-0.20967 z"
           id="path21"
           transform="translate(0.6760047,-0.95325521)" />
        <path
           style="fill:#fb90ac;fill-opacity:1;stroke-width:2.12448"
           d="m 334.60581,621.57379 c 0,-9.29771 8.12409,-19.19154 18.59674,-22.64783 5.64036,-1.86148 18.56512,-2.21462 46.13794,-1.26059 28.72198,0.99378 41.49106,0.60149 51.04955,-1.56834 7.01079,-1.59149 20.87303,-3.53059 30.80498,-4.30912 66.23092,-5.19159 201.39975,-23.3984 315.48548,-42.49488 l 67.9834,-11.37955 3.611,4.57023 c 9.83559,12.44834 5.08017,23.48407 -12.70301,29.47934 -5.97796,2.01536 -24.5421,5.1046 -41.25365,6.86497 -16.71155,1.76037 -64.32322,8.01254 -105.80372,13.8937 -183.39711,26.00233 -280.77528,36.12475 -347.5217,36.12475 h -26.38701 z"
           id="path22"
           transform="translate(0.6760047,-0.95325521)" />
        <path
           style="fill:#fb90ac;fill-opacity:1;stroke-width:1.50224"
           d="m 455.06918,788.98909 c -5.72416,-3.95756 -15.47762,-10.95655 -21.67434,-15.55332 -32.94845,-24.44136 -51.98114,-31.60765 -75.19988,-28.31464 -8.44693,1.198 -13.52623,0.82776 -31.21756,-2.27546 -73.15605,-12.83225 -121.76929,-31.977 -158.52904,-62.43151 -13.74724,-11.38924 -30.32021,-30.60724 -36.59764,-42.43856 -5.43977,-10.25258 -8.34497,-31.70426 -5.00787,-36.9776 1.00768,-1.59236 1.56745,-0.8137 2.15989,3.00447 0.43983,2.83463 1.22473,7.85791 1.74422,11.16283 2.85021,18.13247 32.06514,49.82824 62.3034,67.594 48.41787,28.44675 126.38745,47.19611 222.16676,53.42449 31.73222,2.06349 131.8592,1.15552 167.65012,-1.52028 19.4816,-1.45649 104.10332,-8.98133 128.44111,-11.42141 l 8.26229,-0.82837 -4.50671,2.52206 c -7.0426,3.94121 -9.76453,6.8426 -9.76453,10.40832 0,7.35832 9.98203,10.65453 21.12687,6.9764 2.91099,-0.96071 8.98138,-5.51321 13.48977,-10.11667 12.6757,-12.943 28.6236,-19.39713 34.18573,-13.83499 2.9887,2.98869 2.04324,11.4153 -2.26885,20.22174 -17.81432,36.38156 -54.26951,39.90169 -106.27971,10.26238 -9.14674,-5.21249 -12.95813,-6.60781 -16.49485,-6.03865 -2.52971,0.40712 -16.09158,1.45515 -30.13748,2.32896 -59.32068,3.69042 -83.44785,11.82921 -106.26013,35.84462 -12.2487,12.89469 -17.65244,15.19673 -35.67235,15.19673 -11.2966,0 -11.70605,-0.1344 -21.91922,-7.19554 z m 32.7374,-19.91145 c 9.29326,-2.58099 13.64231,-12.21302 6.70526,-14.85048 -7.39105,-2.81007 -34.82788,6.52126 -34.82788,11.84505 0,4.1609 17.30369,6.01014 28.12262,3.00543 z"
           id="path23"
           transform="translate(0.6760047,-0.95325521)" />
        <path
           style="fill:#fb90ac;fill-opacity:1;stroke-width:1.50224"
           d="m 645.96112,418.10825 c -17.38459,-1.47636 -31.92324,-3.9205 -34.92697,-5.87169 -7.69482,-4.99846 -0.87718,-14.00202 18.53338,-24.47567 6.53778,-3.5277 14.92891,-8.22332 18.64694,-10.43472 6.38928,-3.80021 7.78999,-4.01628 25.538,-3.93946 27.52267,0.11913 49.04126,7.09415 59.84401,19.3978 5.99656,6.82971 6.19112,12.38076 0.62095,17.71606 -8.30357,7.95344 -12.33566,8.64541 -48.77439,8.37051 -18.41014,-0.13889 -36.17701,-0.48217 -39.48192,-0.76283 z"
           id="path24"
           transform="translate(0.6760047,-0.95325521)" />
        <path
           style="fill:#fb90ac;fill-opacity:1;stroke-width:1.50224"
           d="m 289.93138,645.37177 c -3.30491,-1.03983 -7.69895,-2.7801 -9.76452,-3.86727 -6.66432,-3.50762 -31.67991,-19.94693 -31.15376,-20.47308 0.28028,-0.28028 7.23554,1.75495 15.45612,4.52274 8.22059,2.76778 28.46663,8.23428 44.99122,12.14776 16.52459,3.91349 30.68691,7.71078 31.47183,8.43843 2.27632,2.11024 -44.07096,1.41178 -51.00089,-0.76858 z"
           id="path25"
           transform="translate(0.6760047,-0.95325521)" />
        <path
           style="fill:#fb90ac;fill-opacity:1;stroke-width:1.50224"
           d="m 288.12562,643.78702 c -6.02336,-1.88273 -34.19592,-18.65878 -33.12789,-19.72682 0.28116,-0.28116 4.62155,0.76809 9.6453,2.33165 5.02376,1.56357 22.57089,6.28506 38.99364,10.4922 16.42274,4.20714 30.53554,7.91722 31.36177,8.24461 4.31075,1.70814 -41.29173,0.40286 -46.87282,-1.34164 z"
           id="path26"
           transform="translate(0.6760047,-0.95325521)" />
        <path
           style="fill:#fb90ac;fill-opacity:1;stroke-width:1.50224"
           d="m 550.56918,301.50058 c 0,-1.4035 -3.98386,-12.5238 -8.85302,-24.71177 -10.64917,-26.65587 -11.59072,-30.16554 -8.4191,-31.3826 2.20942,-0.84784 12.32575,5.07272 15.78061,9.23556 2.44877,2.95059 5.30603,45.59611 3.1963,47.70583 -1.27156,1.27157 -1.70479,1.05632 -1.70479,-0.84702 z"
           id="path27"
           transform="translate(0.6760047,-0.95325521)" />
        <path
           style="fill:#fb90ac;fill-opacity:1;stroke-width:1.50224"
           d="m 550.56918,299.76651 c 0,-1.20052 -4.05603,-12.6693 -9.01341,-25.48618 -9.43669,-24.39778 -10.31657,-27.91376 -6.98545,-27.91376 4.04072,0 14.08631,8.70385 15.01351,13.00824 1.41463,6.56718 3.0795,42.57446 1.96852,42.57446 -0.54074,0 -0.98317,-0.98225 -0.98317,-2.18276 z"
           id="path28"
           transform="translate(0.6760047,-0.95325521)" />
        <path
           style="fill:#fb90ac;fill-opacity:1;stroke-width:1.50224"
           d="m 570.09824,297.91685 c 0,-3.04405 1.48375,-8.6211 3.29722,-12.39344 6.34184,-13.19212 28.71153,-31.78475 33.03727,-27.45901 2.55457,2.55457 -0.47306,8.98508 -6.51731,13.84238 -3.29261,2.64601 -9.6235,9.7288 -14.06864,15.73953 -13.11175,17.72972 -15.74854,19.44933 -15.74854,10.27054 z"
           id="path29"
           transform="translate(0.6760047,-0.95325521)" />
        <path
           style="fill:#fb90ac;fill-opacity:1;stroke-width:1.50224"
           d="m 336.47384,538.35206 c -23.73168,-15.68925 -40.66603,-45.96539 -42.42071,-75.84205 -0.89451,-15.23059 1.05162,-25.0967 7.66916,-38.8797 4.43206,-9.23105 19.00782,-26.16246 25.45038,-29.56349 3.81368,-2.01325 2.585,-4.28909 -12.64112,-23.41459 -13.28638,-16.689 -23.53082,-34.07191 -26.76684,-45.41832 -0.94257,-3.30492 -2.33925,-16.14903 -3.10374,-28.54247 -1.22803,-19.90821 -2.27215,-25.77141 -8.96183,-50.32487 -12.93495,-47.47579 -15.35495,-70.95115 -8.67684,-84.1703 9.94877,-19.69335 39.5373,-21.9821 84.19706,-6.51288 64.1328,22.21429 123.20388,71.20996 154.60999,128.23905 7.45553,13.53818 18.00733,38.97653 22.12098,53.32935 1.89442,6.60984 3.99142,12.61088 4.65999,13.33564 0.66856,0.72479 1.97173,-1.49042 2.89594,-4.92266 2.18734,-8.12317 11.36044,-15.17304 19.74275,-15.17304 7.37002,0 15.59859,6.90309 18.07292,15.16167 0.96723,3.22831 2.15859,5.85077 2.64748,5.82773 0.48889,-0.0231 5.28293,-6.2656 10.65342,-13.87233 13.89764,-19.68454 41.04262,-46.63742 58.58717,-58.17253 17.78451,-11.69288 54.29913,-29.5811 75.02409,-36.7537 8.62717,-2.98574 24.1753,-7.23841 34.5514,-9.45038 35.13113,-7.48924 81.66981,-4.47784 92.91445,6.01227 8.35195,7.79152 12.99892,24.46893 10.73712,38.53418 -1.68525,10.48 -8.42117,24.50725 -23.83626,49.63805 -17.34098,28.27052 -22.43164,38.99808 -26.68618,56.23592 -4.38998,17.78664 -8.91584,27.27552 -17.45735,36.60093 -16.83079,18.37542 -35.3437,23.62091 -94.17128,26.6827 -9.50163,0.49453 -28.4298,2.2947 -42.06258,4.00035 -38.1919,4.77839 -68.37168,2.52823 -85.87826,-6.40296 -7.16362,-3.65461 -8.76256,-3.61764 -8.76256,0.20258 0,4.58285 -3.79975,11.08134 -9.07471,15.51992 -7.68412,6.46575 -24.44597,5.21355 -32.61231,-2.43634 -1.85902,-1.74144 -3.39038,-4.23144 -3.40303,-5.5333 -0.0127,-1.30189 -0.62696,-3.32113 -1.36513,-4.48723 -1.06024,-1.67487 -3.1185,-0.53688 -9.80007,5.4183 -14.18601,12.64378 -25.31177,16.80906 -71.43473,26.74376 -34.17102,7.36031 -45.95061,14.28491 -59.61236,35.043 -10.58523,16.08353 -14.77904,21.29973 -19.82963,24.66376 -5.40567,3.60053 -8.98607,3.30561 -15.97678,-1.31602 z m 36.08353,-44.11785 c 2.17482,-0.82688 12.86592,-8.16561 23.75799,-16.30831 10.89208,-8.1427 30.28187,-21.7641 43.08842,-30.2698 26.6141,-17.6762 34.55141,-23.61599 34.55141,-25.85611 0,-2.58892 -18.92498,-0.3612 -33.80029,3.97874 -19.47827,5.68289 -44.03641,18.38307 -62.69246,32.42127 -22.01985,16.56936 -27.5405,24.62086 -21.80827,31.8059 4.27692,5.36087 10.09582,6.81646 16.9032,4.22831 z m 3.00142,-47.60818 c 8.26229,-4.93036 20.7684,-12.20357 27.79135,-16.16266 15.02843,-8.47212 18.02682,-10.87987 18.02682,-14.47583 0,-3.27107 -1.70229,-3.8135 -18.77794,-5.9836 -20.36856,-2.58859 -25.16429,-2.20553 -36.02652,2.87751 -23.21772,10.86488 -37.49541,34.71426 -25.27284,42.21561 1.4917,0.91551 6.43022,1.40102 10.97448,1.07892 6.85367,-0.48579 10.82343,-2.11394 23.28465,-9.54995 z M 723.6564,419.05715 c 3.07341,-0.85357 7.97445,-3.80264 10.89121,-6.5535 10.4466,-9.85241 5.46588,-21.5241 -13.05437,-30.59123 -15.57805,-7.62669 -26.70144,-9.95658 -47.74077,-9.99969 -20.7691,-0.0426 -18.35452,-0.78854 -42.81371,13.22689 -23.3767,13.39516 -30.56354,23.40843 -20.5263,28.59888 3.95438,2.0449 20.36007,4.69612 36.29977,5.86621 17.03926,1.25079 71.87396,0.86057 76.94417,-0.54756 z M 493.24858,385.73443 c -20.89648,-25.14594 -36.06523,-38.10924 -56.65443,-48.41714 -8.78205,-4.3967 -13.7811,-5.8234 -24.17119,-6.89834 -17.04844,-1.76382 -42.89226,0.44613 -51.92064,4.43981 -6.39127,2.82716 -6.72594,3.28211 -6.72594,9.14322 0,3.39241 0.97024,8.04426 2.1561,10.33745 5.56068,10.75318 25.39322,22.74324 45.91542,27.75887 5.37049,1.31255 22.60864,4.07687 38.307,6.14294 35.62103,4.68812 36.80816,4.81093 49.33809,5.10395 l 10.27997,0.24042 z M 626.73417,372.0738 c 49.1393,-23.0588 73.63874,-37.90052 96.82547,-58.65668 7.7208,-6.91147 15.54528,-14.20732 17.38773,-16.21299 l 3.34992,-3.64669 -5.13198,-7.62055 c -18.43109,-27.36861 -57.93587,-9.97452 -118.79597,52.30623 -10.77056,11.02199 -22.16324,23.23654 -25.31708,27.14346 -5.65276,7.00255 -13.37111,23.27542 -12.05203,25.40974 0.76885,1.24402 5.50712,-0.78445 43.73394,-18.72252 z m 136.79731,-1.39728 c 4.4157,-4.70367 9.29607,-15.98505 9.33552,-21.57981 0.0483,-6.85271 -4.9144,-12.1644 -13.84232,-14.81571 -20.38495,-6.05368 -48.93287,0.55251 -66.75104,15.44664 -5.1188,4.27879 -6.05929,5.77811 -4.67258,7.44899 3.19058,3.84441 16.09073,9.40059 28.60019,12.3183 15.60042,3.63862 18.78366,4.05979 32.77668,4.33654 10.02263,0.19822 11.75904,-0.17819 14.55355,-3.15495 z m -250.51817,-1.13671 c 0,-9.46561 -27.89889,-68.34249 -43.77434,-92.37993 -11.93434,-18.07009 -38.03912,-46.02468 -51.16298,-54.78847 -10.53938,-7.03793 -18.36863,-7.93892 -26.40562,-3.03877 -9.60662,5.85715 -10.00008,16.06032 -1.29829,33.66719 7.28186,14.73383 24.41859,34.69964 56.79826,66.17498 45.90841,44.62624 65.84297,59.87471 65.84297,50.365 z M 425.88367,316.3554 c 0,-1.16515 -2.72485,-5.56565 -6.05523,-9.77889 -15.8468,-20.04771 -49.26142,-37.78018 -67.35005,-35.74132 -8.08848,0.91168 -14.11175,6.57575 -16.62774,15.63609 -2.56359,9.23181 -1.95356,14.83124 2.14667,19.70407 6.51593,7.74376 13.63912,9.49631 43.57041,10.71983 44.47707,1.81814 44.31594,1.8201 44.31594,-0.53978 z m 366.68068,-6.08028 c 7.05266,-1.12552 12.26868,-6.64611 11.62189,-12.30054 -0.41504,-3.62841 -1.25071,-4.3607 -5.43552,-4.76303 -9.90493,-0.95227 -28.8552,8.30803 -28.8552,14.10046 0,1.15015 1.85901,2.5012 4.13114,3.00233 2.27213,0.50113 4.80716,1.11983 5.63338,1.37489 0.82623,0.25507 2.85425,0.23489 4.50671,-0.0448 1.65246,-0.27975 5.43138,-0.89592 8.3976,-1.36927 z m 14.6476,-40.77551 c 8.16701,-5.72039 6.4808,-17.1241 -2.53204,-17.1241 -7.12981,0 -18.1306,4.5866 -23.78003,9.9147 -4.49284,4.23729 -5.07419,5.45602 -3.50468,7.34714 2.72436,3.28267 25.0809,3.17939 29.81675,-0.13774 z M 351.40016,243.95249 c 6.24246,-2.39545 0.4809,-17.8321 -8.44855,-22.63579 -10.71577,-5.76465 -35.74452,-2.05526 -35.74452,5.29753 0,9.25294 32.27019,21.9135 44.19307,17.33826 z m 0.87398,-44.15521 c 7.37044,-7.37044 1.15842,-20.40312 -11.38514,-23.88577 -13.71368,-3.80752 -32.17968,-0.56604 -32.17968,5.64875 0,5.17023 11.0712,12.92819 26.28912,18.42166 9.77226,3.52766 13.60436,3.4867 17.2757,-0.18464 z"
           id="path30"
           transform="translate(0.6760047,-0.95325521)" />
        <path
           style="fill:#fb90ac;fill-opacity:1;stroke:#fb90ac;stroke-opacity:1"
           d="m 473.20407,391.0522 c -2.47868,-0.31956 -15.3228,-1.91971 -28.54246,-3.5559 -29.93112,-3.70456 -37.59155,-5.15601 -52.11597,-9.87462 -20.44958,-6.64352 -34.58913,-17.98081 -37.27445,-29.88716 -2.37361,-10.52427 6.35137,-14.75596 33.98665,-16.48382 21.30918,-1.33233 32.73776,0.61727 48.10293,8.20587 16.64804,8.22218 30.33997,19.34121 46.07788,37.41922 l 13.23904,15.20759 -9.48346,-0.22509 c -5.2159,-0.12379 -11.51147,-0.48654 -13.99016,-0.80609 z"
           id="path31"
           transform="translate(0.6760047,-0.95325521)" />
        <path
           style="fill:#fb90ac;fill-opacity:1;stroke:#fb90ac;stroke-opacity:1"
           d="m 504.53246,368.23539 c -10.14184,-6.18051 -24.10686,-18.53919 -57.23954,-50.65551 -37.38782,-36.24093 -51.70756,-53.53132 -58.60955,-70.76823 -4.51854,-11.28453 -4.68826,-17.42135 -0.63907,-23.10792 2.20442,-3.09582 8.14156,-5.8651 13.65358,-6.36848 4.28233,-0.39108 5.06055,-0.21382 9.67943,2.20481 7.20988,3.77537 13.13906,8.52314 24.54769,19.65642 23.38,22.81573 36.77764,42.06519 54.91576,78.90181 11.11009,22.56345 21.04587,46.82195 21.04587,51.38415 0,2.32555 -2.06688,1.97507 -7.35417,-1.24705 z"
           id="path32"
           transform="translate(0.6760047,-0.95325521)" />
        <path
           style="fill:#fb90ac;fill-opacity:1;stroke-width:0.751118"
           d="m 390.9567,316.17308 c -34.0081,-0.84638 -41.98374,-2.12464 -49.62751,-7.95386 -4.82289,-3.67798 -6.30362,-7.35904 -5.76915,-14.342 0.69912,-9.13431 5.38232,-17.81845 11.34389,-21.03521 3.82405,-2.06339 14.36506,-1.64933 22.0921,0.8678 16.28238,5.30407 31.36847,14.58385 43.97887,27.05234 4.01029,3.96517 10.1515,11.66044 11.8737,14.8784 0.81391,1.52082 3.88176,1.47261 -33.8919,0.53253 z"
           id="path33"
           transform="translate(0.6760047,-0.95325521)" />
        <path
           style="fill:#fb90ac;fill-opacity:1;stroke:#fb90ac;stroke-opacity:1"
           d="m 343.97461,454.92273 c -3.61704,-1.65583 -6.34726,-5.40477 -6.34726,-8.7156 0,-3.8558 4.25499,-12.15065 8.90652,-17.36274 8.54515,-9.57492 21.74007,-17.46276 32.68386,-19.5382 4.32083,-0.81943 16.22104,0.42773 19.40062,2.03321 1.21554,0.61377 4.46823,1.02415 8.11747,1.02415 3.34905,0 7.58065,0.37556 9.40355,0.83457 9.48134,2.38742 5.58602,6.07724 -22.92932,21.71967 -8.46885,4.64569 -18.60894,10.48106 -22.53353,12.96749 -3.92458,2.48643 -8.46119,5.18024 -10.08133,5.98625 -3.84979,1.91523 -13.41206,2.52002 -16.62058,1.0512 z"
           id="path34"
           transform="translate(0.6760047,-0.95325521)" />
        <path
           style="fill:#fb90ac;fill-opacity:1;stroke-width:0.751118"
           d="m 583.99392,389.38803 c 0,-2.0293 4.49803,-12.80747 6.78722,-16.26352 7.51072,-11.33912 43.64697,-48.72235 62.05042,-64.19164 27.67847,-23.26554 43.20426,-32.33429 58.07728,-33.92347 10.54138,-1.12634 18.17714,0.87178 23.04553,6.03053 2.37479,2.51644 8.52536,11.65705 8.52536,12.6699 0,0.84098 -23.53368,22.74902 -30.34286,28.24686 -7.78346,6.28448 -24.60656,17.45131 -35.98091,23.88339 -10.16007,5.74542 -43.61577,22.43732 -60.23955,30.05504 -31.49181,14.4309 -31.92249,14.61295 -31.92249,13.49291 z"
           id="path35"
           transform="translate(0.6760047,-0.95325521)" />
        <path
           style="fill:#fb90ac;fill-opacity:1;stroke-width:0.751118"
           d="m 740.60193,372.76796 c -1.65246,-0.15672 -6.95803,-0.94985 -11.79015,-1.76251 -17.84904,-3.00184 -31.16523,-7.41018 -37.88676,-12.54245 l -3.55449,-2.71406 4.45773,-4.01773 c 8.78022,-7.91356 18.09395,-12.88254 30.03018,-16.02146 8.60464,-2.26279 26.61345,-2.8694 34.31543,-1.15587 9.95104,2.2139 15.53527,7.42858 15.58295,14.55171 0.0401,5.9923 -7.38163,21.06068 -11.40075,23.14698 -1.94806,1.01123 -11.8124,1.26859 -19.75414,0.51539 z"
           id="path36"
           transform="translate(0.6760047,-0.95325521)" />
        <path
           style="fill:#fb90ac;fill-opacity:1;stroke-width:0.751118"
           d="m 776.32094,310.18261 c -8.40492,-1.74681 -6.68399,-5.70679 5.02174,-11.55538 8.37213,-4.18301 16.25954,-5.9344 20.09588,-4.46226 3.29878,1.26586 2.62428,8.0396 -1.15178,11.56697 -3.95213,3.69185 -16.4497,6.01275 -23.96584,4.45067 z"
           id="path37"
           transform="translate(0.6760047,-0.95325521)" />
        <path
           style="fill:#fb90ac;fill-opacity:1;stroke-width:0.751118"
           d="m 784.79141,271.15647 c -6.16066,-0.67471 -7.00916,-1.04099 -7.00916,-3.02569 0,-6.14836 21.62644,-16.63375 29.46911,-14.28783 3.20192,0.95776 4.33118,2.5892 4.33118,6.25721 0,3.49932 -3.54664,8.25635 -7.24684,9.72003 -3.72649,1.47408 -12.69013,2.08694 -19.54429,1.33628 z"
           id="path38"
           transform="translate(0.6760047,-0.95325521)" />
        <path
           style="fill:#fb90ac;fill-opacity:1;stroke:#fb90ac;stroke-opacity:1"
           d="m 328.87346,240.33332 c -10.53245,-3.38005 -19.18021,-8.74501 -19.87006,-12.32713 -1.43843,-7.46913 23.58275,-11.18961 33.79066,-5.02444 5.74046,3.46701 9.98086,10.74938 9.25542,15.89505 -0.46332,3.28639 -1.33709,3.77328 -7.28651,4.06025 -3.71803,0.17934 -10.86831,-0.99234 -15.88951,-2.60373 z"
           id="path39"
           transform="translate(0.6760047,-0.95325521)" />
        <path
           style="fill:#fb90ac;fill-opacity:1;stroke-width:1.50224"
           d="m 333.47946,197.78469 c -11.71659,-4.35735 -23.58828,-12.49009 -22.96403,-15.73159 0.72867,-3.78367 7.10759,-6.24588 16.22072,-6.26106 16.91316,-0.0282 27.04023,5.75507 27.04023,15.44183 0,5.62555 -3.76511,10.11254 -8.38058,9.98737 -1.5874,-0.043 -6.94975,-1.5895 -11.91634,-3.43655 z"
           id="path40"
           transform="translate(0.6760047,-0.95325521)" />
        <path
           style="fill:#fb90ac;fill-opacity:1;stroke-width:1.50224"
           d="m 462.12041,767.78712 c -2.91414,-1.84579 -1.21997,-3.83934 6.18225,-7.27476 8.63723,-4.0086 21.30558,-6.86939 25.09438,-5.66688 4.98561,1.58238 4.00492,7.77733 -1.79059,11.31091 -3.73093,2.2748 -7.53917,2.97268 -16.14902,2.95939 -6.19672,-0.01 -12.19838,-0.60746 -13.33702,-1.32866 z"
           id="path41"
           transform="translate(0.6760047,-0.95325521)" />
        <path
           id="path43"
           style="fill:#ffffff;fill-opacity:1;stroke-width:1.06224"
           d="m 299.40234,145.54688 c -7.59246,0.21655 -14.24996,1.32224 -18.44531,3.27539 -11.87366,5.52779 -16.95609,13.67322 -17.79492,28.52343 -0.89695,15.87888 1.69851,29.16294 16.92578,86.6211 2.56422,9.67573 3.26369,15.06311 4.06055,31.33593 1.67987,34.30534 6.85972,47.06093 31.27929,77.01172 14.58759,17.89178 15.2439,19.22056 10.88868,22.07422 -5.37313,3.5206 -14.95554,13.16453 -19.00586,19.12891 -9.55114,14.06466 -13.56134,27.04376 -13.58594,43.97265 -0.0235,16.19242 3.16083,29.06715 11.11523,44.94922 7.65927,15.29284 16.60821,25.6472 30.22071,34.96485 4.33972,2.9705 8.77947,5.40039 9.86718,5.40039 3.08377,0 9.52469,-3.70652 13.2168,-7.60742 1.84558,-1.94996 7.17026,-9.32452 11.83399,-16.38672 4.66374,-7.06219 10.93281,-15.25316 13.92968,-18.20313 10.13731,-9.97868 23.25417,-15.24853 54.79688,-22.01562 41.62276,-8.92963 50.27036,-12.33552 65.75976,-25.89649 3.45023,-3.02069 6.8616,-5.49219 7.58204,-5.49219 0.72042,10e-6 1.62156,1.65988 2.00195,3.6875 1.63859,8.73445 9.62037,13.38807 23.11328,13.47657 7.08557,0.0465 8.94433,-0.32994 12.0957,-2.44727 5.09231,-3.42139 10.01172,-11.01887 10.01172,-15.46289 0,-4.75851 1.887,-5.25337 8.125,-2.12891 18.38056,9.20638 49.93651,11.98443 82.69727,7.28126 15.51362,-2.22715 33.95723,-3.89727 54.70508,-4.95508 20.57815,-1.04916 42.62918,-3.57591 50.66406,-5.80469 29.20528,-8.10121 44.59964,-24.1846 51.91797,-54.24023 4.85836,-19.95277 8.77803,-28.40991 27.09179,-58.45118 21.70927,-35.61119 27.06278,-49.87288 24.4961,-65.2539 -1.49244,-8.9435 -6.16888,-18.96423 -10.97071,-23.50586 -6.23367,-5.89585 -23.0432,-9.89529 -45.11132,-10.73242 -37.87857,-1.43687 -80.47892,9.50035 -125.17579,32.13867 -31.26513,15.83534 -43.39533,24.24748 -62.74609,43.51172 -13.48619,13.42589 -21.23133,22.58191 -31.8418,37.63867 -3.53284,5.01328 -6.8711,9.11523 -7.41797,9.11523 -0.54687,0 -1.28187,-1.76678 -1.63281,-3.92578 -1.39892,-8.60637 -10.27738,-16.80357 -18.15625,-16.76367 -9.13696,0.0462 -17.94262,6.42031 -20.41015,14.77734 -0.72125,2.44271 -1.76353,4.46469 -2.31641,4.49219 -0.55286,0.0275 -1.60308,-1.79269 -2.33398,-4.04492 -0.73091,-2.25223 -3.18868,-9.83102 -5.46094,-16.8418 -17.27064,-53.28651 -47.96422,-95.16444 -96.5,-131.66406 -32.04522,-24.09847 -71.47377,-42.60475 -105.43946,-49.48828 -7.93087,-1.60728 -16.45831,-2.28101 -24.05078,-2.06445 z m 27.51758,28.74804 c 10.56191,-0.0975 21.59139,3.50708 25.74414,9.21094 2.71553,3.72982 2.83574,11.48409 0.24024,15.44531 -1.65289,2.52264 -2.56283,2.87312 -7.43555,2.85742 -9.03121,-0.0291 -26.6299,-8.00405 -33.9668,-15.39062 -4.89047,-4.92358 -3.25273,-8.25096 5.28321,-10.73242 3.1448,-0.91422 6.61412,-1.35812 10.13476,-1.39063 z m 75.94141,42.39258 c 4.38262,0.15843 8.99178,1.64129 13.22461,4.48047 19.10047,12.81167 43.62802,40.09426 58.94922,65.56836 14.04052,23.34479 35.83434,70.79575 37.23242,81.06445 0.49655,3.64701 0.32778,3.98438 -2.00586,3.98438 -6.80241,0 -35.0292,-24.61948 -76.90625,-67.07618 -31.97383,-32.4164 -43.14605,-47.429 -47.82813,-64.26953 -2.24181,-8.06337 -1.46637,-12.96847 2.82618,-17.85742 3.61029,-4.11189 8.87301,-6.09823 14.50781,-5.89453 z m -75.69141,2.66602 c 10.81907,0 12.05018,0.21378 16.62696,2.90429 3.66977,2.1573 5.65335,4.33197 7.70117,8.44141 2.85466,5.72856 3.3681,8.88619 1.83593,11.30273 -3.05177,4.81322 -21.10559,2.43984 -35.19336,-4.62695 -11.1644,-5.60037 -13.58642,-11.62299 -6.37304,-15.8457 3.13718,-1.83651 5.54261,-2.17578 15.40234,-2.17578 z m 206.69727,26.64257 c -0.22807,-0.004 -0.39515,0.0397 -0.49219,0.13672 -1.65175,1.65175 -0.0827,7.24647 7.89648,28.14649 4.7065,12.32788 8.8542,23.89258 9.2168,25.70117 l 0.6582,3.28906 0.88868,-3.1875 c 0.94303,-3.38544 0.373,-16.8491 -1.41407,-33.45898 -0.93056,-8.64895 -1.49054,-10.5228 -3.91992,-13.11133 -2.84659,-3.03309 -10.6293,-7.47932 -12.83398,-7.51563 z m 270.91992,6.88282 c 2.25092,0.0489 4.0824,0.54258 5.20508,1.55859 4.49962,4.07211 1.63385,13.2767 -4.9961,16.04688 -3.92541,1.64013 -21.76156,1.88679 -25.57617,0.35351 -3.50307,-1.40806 -2.92607,-4.58614 1.54492,-8.51172 6.53724,-5.73979 17.06952,-9.59384 23.82227,-9.44726 z m -200.29688,5.33203 c -1.81983,0.0188 -4.71232,1.39928 -8.89648,4.19336 -13.88228,9.27023 -24.63667,24.71122 -24.63867,35.37695 -6e-4,3.6198 0.39001,5.01199 1.32617,4.7207 0.73029,-0.22723 5.48882,-5.60945 10.57422,-11.96093 5.08541,-6.35149 12.08281,-14.45008 15.54883,-17.99805 6.88266,-7.04542 9.14253,-10.58231 8.25,-12.9082 -0.36693,-0.9562 -1.07216,-1.43514 -2.16407,-1.42383 z m -248.96875,12.66015 c 16.77499,0 41.30084,12.49655 58.22071,29.66602 4.38174,4.44638 9.07387,10.10651 10.42578,12.57812 l 2.45703,4.49415 -17.85938,-0.16407 c -39.68667,-0.3678 -57.90016,-2.15939 -64.82031,-6.375 -8.51878,-5.18946 -11.03247,-12.09107 -8.25976,-22.67187 3.26098,-12.44407 9.01215,-17.52735 19.83593,-17.52735 z m 362.52149,3.34766 c 10.69108,0.4503 14.47251,2.69009 21.43945,12.70117 3.79437,5.45229 4.36411,6.87849 3.27735,8.19727 -3.42198,4.15258 -28.77701,26.75253 -36.13086,32.20508 -18.58166,13.77746 -49.8379,30.70878 -95.70118,51.83984 -12.77632,5.88656 -24.39234,10.99511 -25.8125,11.35156 -2.39365,0.60076 -2.52712,0.42459 -1.83984,-2.40234 1.25374,-5.15693 5.30558,-13.41478 9.26758,-18.88867 11.17756,-15.44291 46.41474,-50.56354 67.99609,-67.77149 27.15829,-21.65476 40.45268,-27.95061 57.50391,-27.23242 z m 80.00586,19.01953 c 2.60993,-0.0407 4.59817,0.40203 5.42187,1.39453 3.74012,4.50656 -2.02757,13.20351 -10.27539,15.49414 -4.70084,1.30555 -16.83735,1.34705 -20.00195,0.0684 -6.03143,-2.43707 -2.34559,-7.68538 9.14648,-13.02343 5.28249,-2.45372 11.3591,-3.86579 15.70899,-3.9336 z m -399.66602,37.125 c 21.48314,-0.007 26.08469,0.9578 40.91992,8.57813 20.03845,10.29305 32.30203,21.2982 58.19336,52.22851 1.46626,1.75162 0.94741,1.84965 -8.96679,1.68946 -12.01859,-0.19418 -10.79357,-0.0838 -39.73242,-3.61719 -41.24883,-5.03648 -55.35775,-8.3176 -71.39844,-16.60742 -14.35162,-7.4169 -22.40511,-16.42958 -23.80469,-26.64063 -0.6111,-4.4585 -0.3863,-5.19183 2.48242,-8.06055 5.49401,-5.49401 17.05219,-7.56131 42.30664,-7.57031 z m 348.46094,2.35938 c 17.62033,0.6785 26.9049,7.31515 25.48437,18.59961 -0.66322,5.26861 -6.04691,16.43363 -9.67187,20.05859 -2.31731,2.31731 -3.34652,2.52008 -12.40039,2.42578 -22.91917,-0.23881 -51.71799,-7.64336 -61.39258,-15.7832 l -2.65625,-2.23438 5.8418,-5.35156 c 6.51544,-5.96784 19.5281,-12.81184 29.21289,-15.36719 3.5054,-0.9249 11.3929,-1.94659 17.52734,-2.26953 2.85047,-0.15006 5.5375,-0.17505 8.05469,-0.0781 z m -73.4707,39.0625 c 29.85128,0 57.5506,10.50432 64.97265,24.64257 4.96321,9.45441 -4.41979,20.74146 -19.26172,23.17188 -7.42168,1.21533 -52.66148,1.12882 -71.37304,-0.13672 -13.87834,-0.93864 -31.23789,-3.43102 -35.69336,-5.125 -1.49135,-0.567 -3.47817,-2.20341 -4.41602,-3.63477 -1.50445,-2.29609 -1.52832,-3.02483 -0.20117,-6.20117 2.01278,-4.81724 9.66916,-11.38664 18.96875,-16.27343 4.18787,-2.20067 11.37905,-6.28727 15.98047,-9.08204 10.08469,-6.12516 15.29584,-7.36132 31.02344,-7.36132 z M 385.16992,408.4082 c 3.35912,0.16487 7.92014,0.68087 14.9336,1.60742 18.48559,2.44215 21.07421,3.21983 21.07421,6.3418 0,2.95811 -5.88076,7.32089 -21.58398,16.00781 -7.69986,4.25951 -19.23814,10.86554 -25.64063,14.67969 -6.40249,3.81415 -13.33345,7.53937 -15.40234,8.2793 -7.6634,2.74076 -17.67546,0.89503 -20.14258,-3.71484 -2.05495,-3.8397 -1.29155,-9.96087 1.94727,-15.60743 6.52199,-11.37047 24.29287,-24.35557 37.08789,-27.09961 2.2096,-0.47387 4.36744,-0.659 7.72656,-0.49414 z m 82.05274,12.34375 c 4.12614,-0.21523 7.06836,0.0374 7.06836,0.84766 0,1.91012 -7.73027,7.62032 -35.97266,26.57031 -15.85119,10.63579 -35.69553,24.52946 -44.09766,30.875 -8.40214,6.34553 -17.22736,12.53184 -19.61132,13.74805 -2.38396,1.2162 -5.95581,2.21094 -7.9375,2.21094 -4.25155,0 -10.104,-3.64751 -12.38672,-7.71875 -1.51086,-2.69464 -1.44272,-3.22571 1.01172,-7.85547 3.28773,-6.2016 15.37444,-16.7204 32.30859,-28.11524 20.43255,-13.74889 42.9363,-23.5868 65.43945,-28.60742 4.74024,-1.05758 10.05159,-1.73984 14.17774,-1.95508 z m 303.96484,47.16602 -39.30273,0.0703 c -43.23554,0.0779 -60.63471,1.3212 -119.41602,8.5332 -65.54881,8.04232 -82.03387,9.94468 -99.9375,11.53516 -30.9667,2.75094 -39.27897,3.76939 -52.74023,6.46094 -30.65754,6.12992 -51.17157,16.11674 -68.47657,33.33594 -9.2604,9.21449 -16.88405,20.40238 -20.56054,30.16992 -2.65282,7.0479 -5.875,22.08626 -5.875,27.42578 0,3.07918 0.0447,3.10051 5.04687,2.52148 2.77511,-0.32123 17.95229,-1.551 33.72656,-2.73242 93.41418,-6.9963 153.69456,-14.13578 286.80469,-33.9707 61.63132,-9.18377 91.05106,-13.21767 104.09961,-14.27149 12.09594,-0.97689 18.83179,-3.12087 23.43359,-7.46093 3.7951,-3.57924 3.89677,-3.87402 3.45704,-9.95313 -0.34289,-4.74035 -1.34224,-7.73702 -4.11133,-12.31836 -7.00854,-11.59534 -27.2002,-29.83679 -40.30664,-36.41406 z M 256,485.33594 l -3.66797,0.71679 c -9.52511,1.86291 -50.92095,21.80443 -65.57617,31.58985 -15.94501,10.64662 -28.259,24.32166 -36.8125,40.88281 -6.64153,12.85923 -9.19727,23.09405 -9.19727,36.83789 0,26.21519 11.29079,42.13391 46.74024,65.90625 54.45387,36.51668 134.35977,56.19223 249.625,61.4668 4.38175,0.20046 38.08203,0.23074 74.88867,0.0664 67.05563,-0.29941 84.06421,-0.98921 130.125,-5.28125 25.00138,-2.32969 57.91644,-6.47461 80.73047,-10.16601 10.8083,-1.74881 26.34223,-3.64325 34.52148,-4.20899 8.17926,-0.56572 17.06878,-1.48074 19.75391,-2.0332 28.89337,-5.94479 50.76211,-30.2354 59.99805,-66.64453 2.81309,-11.08953 5.35571,-36.30068 4.2539,-42.17383 -0.87138,-4.6448 -0.88093,-4.64479 -20.80273,-1.62695 -90.54579,13.71624 -175.00383,24.24853 -250.6875,31.26172 -44.62163,4.13484 -72.63619,7.0398 -73.5957,7.63281 -0.47697,0.29478 -23.19056,1.19432 -50.47461,1.99805 -53.35341,1.5717 -55.45429,1.81241 -68.96289,7.9375 -3.67771,1.66755 -6.96876,3.7663 -7.3125,4.66211 -1.42796,3.72118 10.77563,17.22835 19.84179,21.96093 4.02687,2.10204 6.83853,2.54106 19.57422,3.06641 15.14539,0.62476 83.08805,-0.34468 108.61328,-1.55078 15.47409,-0.73116 18.09215,0.31529 7.43555,2.97266 -35.33084,8.81017 -116.42562,12.71304 -167.56836,8.06445 -24.71205,-2.24618 -57.9953,-9.67243 -81,-18.07227 -23.25254,-8.49035 -50.84539,-23.0564 -65.91211,-34.79297 -7.63798,-5.94978 -12.11882,-11.97201 -17.9707,-24.15234 l -4.54493,-9.45703 0.12696,-14.89649 c 0.18388,-21.71289 2.71359,-31.18382 12.21484,-45.73828 9.42364,-14.43556 20.63444,-24.15148 42.08399,-36.4707 4.22753,-2.42801 9.00824,-5.61639 10.62304,-7.08594 z m 608.28711,53.17578 -38.05273,6.35351 c -102.06661,17.03888 -170.56206,27.20091 -250.92383,37.22852 -31.31214,3.90715 -48.51036,5.79161 -92.52149,10.13672 -9.63983,0.95171 -22.78633,2.71413 -29.21289,3.91601 -10.66108,1.99362 -15.2978,2.16691 -52.9375,1.99024 -46.2459,-0.21708 -48.87572,0.0986 -56.67383,6.77344 -5.76699,4.93633 -8.82812,11.37264 -8.82812,18.56054 v 5.63672 l 29.47656,-0.71094 c 80.13379,-1.93337 152.13825,-9.48167 340.1836,-35.66015 29.50374,-4.10733 70.97708,-9.62399 92.16406,-12.25977 52.11926,-6.48393 59.45327,-7.9596 67.82226,-13.64648 9.68225,-6.57926 10.24444,-15.81112 1.57618,-25.90625 z m -736.37109,62.63086 c -0.15169,0.0211 -0.53607,0.46379 -0.97852,1.14844 -2.77397,4.2924 0.32533,24.56017 5.2793,34.52148 4.7005,9.45166 12.90794,19.83202 26.0332,32.92969 34.42031,34.34797 83.50335,56.22129 158.45312,70.61133 23.5349,4.51859 31.54827,5.28605 42.57227,4.07421 17.20355,-1.89114 33.02797,2.11285 51.20703,12.95508 4.92542,2.93759 17.83084,11.72425 28.67969,19.52735 10.84885,7.8031 21.63768,15.23681 23.97461,16.51953 3.83483,2.1049 5.43972,2.29279 16.46484,1.92383 16.00744,-0.53571 19.2791,-2.02331 32.70508,-14.8711 11.66735,-11.1649 16.91294,-15.04361 27.46094,-20.31054 18.2119,-9.09377 37.33355,-12.61656 87.63086,-16.14258 l 26.17187,-1.83594 16.84961,8.5293 C 696.17075,763.75537 709.82761,768 726,768 c 19.99943,0 35.13133,-9.81491 44.86523,-29.09766 4.10521,-8.13237 5.19415,-17.39763 2.375,-20.21679 -1.5323,-1.5323 -2.96803,-1.79858 -7.07226,-1.3125 -7.00973,0.83021 -13.37088,4.52412 -24.99805,14.51367 -12.32101,10.58563 -15.0569,12.01881 -23.14258,12.12695 -14.06525,0.18809 -17.90614,-9.97586 -6.55859,-17.35351 2.17211,-1.41221 3.77506,-2.74055 3.5625,-2.95313 -0.21258,-0.21257 -10.37021,0.57535 -22.57227,1.75195 -49.79152,4.80121 -109.3486,9.69033 -130.94921,10.75 -37.92774,1.86062 -136.07595,1.55026 -159.98243,-0.50586 -110.86216,-9.53489 -188.16125,-32.56737 -232.10351,-69.16015 -15.84555,-13.19533 -31.24913,-31.23367 -36.16797,-42.35352 -1.65457,-3.74042 -5.13617,-18.90462 -5.27148,-22.96093 -0.001,-0.0388 -0.0106,-0.0637 -0.0273,-0.0762 -0.0103,-0.006 -0.0259,-0.0119 -0.041,-0.01 z m 127.21289,22.71094 c -0.20678,-0.0116 -0.3337,0.002 -0.375,0.043 -0.82323,0.82323 17.54225,12.61648 27.08984,17.39454 5.82515,2.91517 9.70445,4.07376 15.40234,4.5996 12.06176,1.11319 41.63869,1.14446 40.49414,0.043 -0.55502,-0.53414 -13.67799,-4.14442 -29.16015,-8.02343 -15.48215,-3.879 -33.7911,-8.75487 -40.6875,-10.83399 -6.03435,-1.81923 -11.31627,-3.14174 -12.76367,-3.22265 z m 236.50976,129.43359 c 0.82269,0.008 1.52438,0.0783 2.07422,0.2168 7.01706,1.76768 5.51455,10.44527 -2.51758,14.54297 -5.36903,2.73907 -19.53682,3.70036 -26.46484,1.79687 -4.04037,-1.1101 -4.7793,-1.7241 -4.7793,-3.96875 0,-2.21829 1.17099,-3.23551 7.11719,-6.17578 7.11802,-3.5197 18.8115,-6.47142 24.57031,-6.41211 z"
           transform="translate(0.6760047,-0.95325521)" />
      </g>
      <path
         style="fill:#fb90ac;fill-opacity:1;stroke:#fb90ac;stroke-width:0.176777;stroke-opacity:1"
         d="m 277.00665,640.17604 c -8.591,-4.67899 -18.50662,-11.21146 -31.11027,-20.49564 -2.139,-1.57564 -4.68458,-3.32199 -5.65685,-3.88077 -3.02094,-1.73618 -5.61696,-3.53668 -6.59843,-4.57641 -0.97362,-1.03139 -1.07399,-1.39147 -0.4149,-1.48846 0.44324,-0.0652 0.32223,-0.14572 5.42234,3.60674 3.19015,2.34719 4.37513,3.10434 6.59356,4.213 4.02944,2.01372 9.37506,4.30855 13.43063,5.76566 2.00685,0.72103 1.00881,0.56422 -1.57765,-0.24788 -1.39515,-0.43806 -3.21281,-0.99027 -4.03924,-1.22714 -0.82643,-0.23687 -2.41206,-0.83841 -3.52361,-1.33675 -1.11156,-0.49834 -2.10593,-0.90538 -2.20971,-0.90452 -0.10379,8.5e-4 0.22893,0.29368 0.73938,0.65072 0.51044,0.35704 0.92807,0.7452 0.92807,0.86258 0,0.69371 17.71121,12.53322 27.33468,18.27256 3.70443,2.20929 3.54854,2.11003 3.33365,2.1225 -0.0986,0.006 -1.29181,-0.59557 -2.65165,-1.33619 z"
         id="path1"
         transform="translate(0.6760047,-0.95325521)" />
      <path
         style="fill:#fb90ac;fill-opacity:1;stroke:#000000;stroke-width:0.176777;stroke-opacity:1"
         d=""
         id="path2"
         transform="translate(0.6760047,-0.95325521)" />
      <path
         style="fill:#fb90ac;fill-opacity:1;stroke:#fb90ac;stroke-width:0.176777;stroke-opacity:1"
         d="m 395.44947,680.48477 c -13.74579,-0.26971 -27.25835,-0.94008 -37.29989,-1.85048 -21.57807,-1.95634 -48.34495,-7.44257 -71.24082,-14.60174 -12.70483,-3.9726 -24.49467,-8.78119 -38.71428,-15.78997 -6.80709,-3.35518 -13.27406,-6.80825 -13.21618,-7.05685 0.0232,-0.0998 -0.0887,-0.13051 -0.24997,-0.0686 -0.21162,0.0812 -0.2522,0.0476 -0.14734,-0.12207 0.0953,-0.15426 0.0763,-0.19187 -0.0557,-0.11025 -0.25576,0.15807 -0.95851,-0.20915 -0.82223,-0.42965 0.0579,-0.0937 -0.0295,-0.11523 -0.20082,-0.0495 -0.2221,0.0852 -0.26459,0.0537 -0.15865,-0.11772 0.0978,-0.15817 0.0765,-0.19201 -0.0654,-0.1043 -0.35292,0.21812 -7.93487,-4.28801 -14.25185,-8.47021 -11.50864,-7.61939 -16.42376,-12.39551 -21.46869,-20.86154 -1.94512,-3.26415 -3.30807,-5.8935 -6.54152,-12.6196 l -2.83732,-5.90208 0.004,-7.97489 c 0.003,-7.46643 0.18451,-14.84992 0.45718,-18.62568 l 0.11809,-1.63519 h 89.95512 c 49.47531,0 89.95512,0.0359 89.95512,0.0797 0,0.0439 -0.35646,1.52199 -0.79212,3.28475 -1.86303,7.53813 -2.95438,14.01628 -2.98707,17.73095 -0.0208,2.36901 -0.008,2.45609 0.39582,2.78424 0.51485,0.41789 1.38554,0.43298 4.73451,0.0821 3.92603,-0.41139 13.98213,-1.22815 34.88808,-2.83364 10.7436,-0.82506 20.15033,-1.55286 20.90384,-1.61733 l 1.37002,-0.11721 v 7.26096 7.26097 l -30.36139,0.0749 c -20.55818,0.0507 -31.3032,0.14131 -33.27822,0.28059 -11.1635,0.78727 -14.11412,1.77238 -19.73186,6.58773 -4.61655,3.95717 -7.61575,9.22891 -8.45108,14.85458 -0.18506,1.24631 -0.27811,3.12213 -0.27811,5.60674 v 3.73382 l 1.19325,-6e-5 c 2.49274,-1.1e-4 33.44763,-0.78563 42.02866,-1.06653 10.32475,-0.33797 23.064,-0.89936 32.08497,-1.4139 6.91149,-0.39422 14.63069,-0.87479 15.68893,-0.97674 l 1.10485,-0.10645 v 2.54981 2.54981 l -5.87782,0.12107 c -6.73175,0.13866 -11.12962,0.3492 -15.42377,0.73837 -3.28186,0.29743 -9.30825,1.10319 -9.45446,1.26412 -0.0503,0.0554 0.30627,0.0511 0.7924,-0.009 3.28853,-0.40994 14.63365,-1.05387 22.18548,-1.25921 1.99316,-0.0542 4.55863,-0.14398 5.70105,-0.19952 2.00661,-0.0976 2.07712,-0.0887 2.07712,0.26006 0,0.47643 -0.28843,0.51385 -4.94974,0.64221 -16.69662,0.45978 -28.42628,1.46365 -34.13597,2.92146 -5.93205,1.51458 -15.55858,5.92096 -17.9579,8.21991 -0.80262,0.76904 -0.80707,0.77991 -0.72531,1.7658 0.40512,4.88532 12.06098,17.06728 20.29226,21.20819 4.48732,2.25743 9.87524,2.84165 28.0633,3.04296 l 9.41336,0.10419 v 0.79733 0.79733 l -6.14299,-0.11077 c -6.31027,-0.11379 -8.30382,-0.23292 -13.656,-0.81603 -1.70147,-0.18538 -4.04818,-0.39007 -5.21491,-0.45487 -1.16673,-0.0648 -3.11569,-0.2631 -4.33103,-0.44068 -1.21534,-0.17757 -2.23424,-0.29862 -2.26423,-0.26899 -0.12377,0.12229 5.37186,1.35972 7.8327,1.76366 5.74054,0.94231 11.04725,1.33819 18.60573,1.388 l 5.17068,0.0341 4e-5,4.01124 c 0,2.23685 -0.0716,4.05548 -0.16184,4.11126 -0.18063,0.11165 -27.13744,0.25586 -31.56956,0.16889 z m -8.01494,-14.78799 c -4.62506,-2.54911 -10.6673,-7.92375 -14.35852,-12.77206 -1.29556,-1.70169 -1.59865,-2.00784 -1.05002,-1.06066 3.55613,6.13951 8.24492,10.4783 15.02658,13.90492 2.68445,1.35638 2.90002,1.31563 0.38196,-0.0722 z m -52.79625,-17.98233 c 7.71072,-0.40043 10.32472,-0.59579 10.22085,-0.76385 -0.20329,-0.32893 -4.03817,-2.03242 -5.9783,-2.65561 -4.11415,-1.32152 -10.07171,-2.79576 -22.98088,-5.68678 -35.48148,-7.9461 -51.86054,-12.71149 -66.82159,-19.44133 -4.56896,-2.05523 -6.30278,-3.0391 -9.37864,-5.322 -4.85404,-3.60267 -5.92308,-4.31884 -6.44684,-4.31884 -1.01138,0 -0.76782,0.9631 0.56431,2.23141 0.92285,0.87863 3.1966,2.40537 6.07231,4.07732 1.16867,0.67946 3.51538,2.26647 5.21491,3.52666 18.78032,13.92553 33.81117,23.02948 43.59461,26.40457 4.6388,1.6003 5.76773,1.77677 11.99814,1.87554 2.72236,0.0432 6.81916,0.1486 9.104,0.23433 4.80892,0.18043 20.1779,0.0805 24.83712,-0.16142 z m 36.57692,-5.92118 c 3.57483,-2.37861 11.93805,-5.73169 18.56274,-7.44239 1.06144,-0.2741 1.84139,-0.52785 1.73324,-0.5639 -0.34392,-0.11465 -6.20677,1.4919 -9.20801,2.52319 -4.43452,1.5238 -8.5812,3.39164 -12.42613,5.59725 l -1.5308,0.87813 0.16078,0.56061 c 0.0884,0.30834 0.16078,0.59915 0.16078,0.64625 0,0.0471 0.24225,-0.20825 0.53834,-0.56746 0.2961,-0.35921 1.20017,-1.09346 2.00906,-1.63168 z m -138.66546,-2.12058 c 0,-0.0452 -0.17898,-0.16891 -0.39775,-0.27492 -0.38194,-0.18509 -0.38411,-0.18183 -0.0546,0.0822 0.36067,0.28896 0.45235,0.32802 0.45235,0.19275 z m -0.88388,-0.53033 c 0,-0.0452 -0.17899,-0.16891 -0.39775,-0.27492 -0.38195,-0.18509 -0.38412,-0.18183 -0.0546,0.0822 0.36067,0.28896 0.45235,0.32802 0.45235,0.19275 z m -0.88388,-0.53033 c 0,-0.0452 -0.17899,-0.16891 -0.39775,-0.27492 -0.38195,-0.18509 -0.38412,-0.18183 -0.0546,0.0822 0.36067,0.28896 0.45235,0.32802 0.45235,0.19275 z m -0.88389,-0.51737 c 0,-0.11132 -3.54868,-2.3283 -4.41942,-2.76096 -1.28729,-0.63964 -0.70381,-0.22563 1.89442,1.3442 2.5538,1.54298 2.525,1.52682 2.525,1.41676 z m 162.98811,-4.52699 c 0.34995,-0.11207 0.36835,-0.14153 0.0884,-0.14153 -0.19445,0 -0.55242,0.0637 -0.79549,0.14153 -0.34995,0.11208 -0.36835,0.14154 -0.0884,0.14154 0.19445,0 0.55243,-0.0637 0.79549,-0.14154 z m 1.01279,-0.28358 c -0.0587,-0.0587 -0.21121,-0.065 -0.33882,-0.014 -0.14102,0.0564 -0.0991,0.0983 0.1068,0.1068 0.18634,0.008 0.29077,-0.0341 0.23202,-0.0928 z m 2.03661,-0.36382 c -0.12153,-0.049 -0.32041,-0.049 -0.44194,0 -0.12153,0.049 -0.0221,0.0892 0.22097,0.0892 0.24307,0 0.34251,-0.0401 0.22097,-0.0892 z"
         id="path3"
         transform="translate(0.6760047,-0.95325521)" />
      <path
         style="fill:#fb90ac;fill-opacity:1;stroke:#fb90ac;stroke-width:0.176777;stroke-opacity:1"
         d="m 393.41653,680.47176 c -16.16799,-0.38283 -30.26364,-1.20062 -40.74702,-2.36402 -24.63692,-2.73412 -57.19355,-10.35545 -78.17808,-18.30108 -23.2539,-8.80491 -50.20175,-23.19858 -64.21555,-34.29948 -3.06818,-2.43043 -7.10996,-6.49179 -9.04304,-9.08685 -3.4755,-4.66566 -5.75727,-8.77179 -11.26307,-20.26833 l -1.79098,-3.73971 0.003,-8.72304 c 0.003,-8.02985 0.17347,-14.81584 0.45844,-18.2248 l 0.11452,-1.37002 h 89.95652 c 62.75622,0 89.95651,0.0562 89.95651,0.18577 0,0.10218 -0.27927,1.29475 -0.62061,2.65016 -1.97486,7.84202 -3.0917,14.55346 -3.0917,18.5789 0,2.31273 0.0913,2.52842 1.15467,2.72791 0.33713,0.0632 1.90567,-0.014 3.48564,-0.17173 3.73259,-0.37254 7.36788,-0.68374 15.60062,-1.33548 7.563,-0.59872 38.05869,-2.96046 40.43767,-3.13169 l 1.54679,-0.11134 v 7.27431 7.27432 l -17.54508,0.0269 c -40.21276,0.0617 -43.28182,0.0992 -49.1704,0.6008 -9.03504,0.76954 -12.60085,2.30261 -18.05367,7.7619 -2.35591,2.35872 -3.54886,3.98144 -4.83635,6.57871 -1.84877,3.72955 -2.30976,5.95341 -2.44368,11.78871 l -0.10087,4.39481 4.22314,-0.11467 c 2.32273,-0.0631 10.58711,-0.27129 18.36528,-0.46272 26.67297,-0.65643 42.47582,-1.30489 62.40218,-2.56064 3.79186,-0.23896 6.95395,-0.43497 7.02687,-0.43558 0.0729,-6e-4 0.13258,1.15237 0.13258,2.56216 v 2.56327 l -1.63518,0.002 c -3.64427,0.005 -13.53189,0.36687 -17.01476,0.62293 -3.51045,0.25809 -10.69244,1.08118 -10.85534,1.24407 -0.10969,0.1097 0.10622,0.0988 3.6075,-0.18262 4.50934,-0.3624 21.9784,-1.15623 25.44416,-1.15623 0.59669,0 0.64366,0.65984 0.0559,0.78519 -0.21877,0.0466 -3.02289,0.17121 -6.23138,0.2768 -17.62395,0.58002 -27.84654,1.55038 -33.5434,3.18404 -4.6021,1.31972 -12.05255,4.59314 -15.27147,6.70966 -1.3668,0.8987 -2.36199,1.98313 -2.36199,2.57381 0,0.61854 0.64331,2.46939 1.19367,3.43431 1.36954,2.4011 3.48004,5.03209 6.57751,8.19964 3.89409,3.9822 7.59335,7.00976 11.05231,9.04546 4.78686,2.81722 8.59852,3.41842 24.06436,3.79558 3.87836,0.0946 8.82155,0.17361 10.98485,0.17562 l 3.93328,0.004 v 0.7955 0.79549 l -4.02167,-0.005 c -5.15145,-0.006 -9.36927,-0.22203 -15.33538,-0.78385 -2.62513,-0.24721 -6.08553,-0.57031 -7.68978,-0.718 -1.60425,-0.1477 -3.11569,-0.31833 -3.35876,-0.3792 -0.24307,-0.0609 -0.38997,-0.0536 -0.32647,0.0162 0.16246,0.17844 4.16866,1.08919 6.64617,1.51091 5.64784,0.96135 9.30943,1.25054 17.32738,1.36848 l 6.76491,0.0995 -0.0474,4.08589 -0.0474,4.08589 -4.94974,0.10861 c -4.72728,0.10373 -24.82779,0.13035 -28.72622,0.038 z m -6.54354,-15.04733 c -4.25677,-2.48873 -9.75092,-7.35622 -13.18056,-11.67721 -0.7704,-0.97061 -1.42815,-1.73743 -1.46168,-1.70406 -0.0335,0.0334 0.31471,0.64313 0.77389,1.35501 3.16496,4.90675 7.48155,8.82418 12.99076,11.78947 1.95598,1.05279 2.54523,1.21178 0.87759,0.23679 z m -53.0302,-17.72325 c 2.28484,-0.0937 5.38727,-0.25179 6.89429,-0.35121 1.50702,-0.0994 3.03835,-0.19134 3.40295,-0.20427 0.3646,-0.0129 0.66291,-0.0731 0.66291,-0.13363 0,-0.0606 -0.76948,-0.49479 -1.70995,-0.96492 -3.64269,-1.82095 -9.51812,-3.42668 -26.83948,-7.33511 -15.73726,-3.55099 -22.06579,-5.05299 -30.67076,-7.27936 -16.48391,-4.26488 -30.00533,-8.95425 -39.77476,-13.79427 -2.69214,-1.33376 -3.59827,-1.90414 -6.98268,-4.39538 -4.32236,-3.18165 -5.23589,-3.77263 -5.69612,-3.6849 -0.17285,0.033 -0.34026,0.24235 -0.37201,0.46532 -0.13788,0.96824 2.04262,2.73708 7.10361,5.7625 1.2501,0.7473 4.31275,2.8536 6.8059,4.68066 23.20939,17.00864 39.20657,25.83201 48.90394,26.97336 0.48614,0.0572 3.0715,0.14734 5.74525,0.20029 2.67374,0.0529 7.44671,0.15984 10.6066,0.23755 6.38754,0.1571 15.59486,0.0829 21.92031,-0.17663 z m 37.52874,-6.05931 c 1.66707,-1.06641 4.97265,-2.6547 8.08214,-3.88335 2.76061,-1.09081 8.23947,-2.94261 9.51189,-3.21494 0.32294,-0.0691 0.54713,-0.16571 0.49819,-0.21465 -0.22834,-0.22834 -7.23716,1.9495 -10.63129,3.30344 -3.67473,1.46588 -9.92863,4.60276 -10.26659,5.1496 -0.0595,0.0962 -0.0574,0.37698 0.005,0.6239 l 0.11268,0.44893 0.83391,-0.78002 c 0.45864,-0.42902 1.29319,-1.07383 1.85453,-1.43291 z m -144.0367,-5.17596 c -0.45281,-0.34899 -0.97227,-0.63501 -0.97227,-0.53533 0,0.0899 1.10624,0.8144 1.23743,0.81047 0.0486,-10e-4 -0.0707,-0.12526 -0.26516,-0.27514 z m 162.85185,-2.29793 c -0.0587,-0.0587 -0.21121,-0.065 -0.33883,-0.014 -0.14101,0.0564 -0.0991,0.0983 0.10681,0.1068 0.18634,0.008 0.29077,-0.0341 0.23202,-0.0928 z"
         id="path4"
         transform="translate(0.6760047,-0.95325521)" />
      <path
         style="fill:#fb90ac;fill-opacity:1;stroke:#fb90ac;stroke-width:0.176777;stroke-opacity:1"
         d=""
         id="path5"
         transform="translate(0.6760047,-0.95325521)" />
      <path
         style="fill:#fb90ac;fill-opacity:1;stroke:#fb90ac;stroke-width:0.176777;stroke-opacity:1"
         d="m 391.64877,680.47256 c -28.7554,-0.87556 -42.38056,-2.16633 -62.40218,-5.91164 -17.8394,-3.3371 -36.96763,-8.35301 -51.17685,-13.41988 -22.45192,-8.00614 -50.3369,-22.43899 -65.80071,-34.05746 -5.48536,-4.12134 -9.54858,-8.24682 -12.61724,-12.81057 -2.6717,-3.9734 -4.59249,-7.49948 -8.58566,-15.76111 l -2.9217,-6.04481 0.0234,-9.28077 c 0.0217,-8.60127 0.20311,-15.62907 0.46652,-18.07542 l 0.10945,-1.01647 h 89.96198 c 76.0991,0 89.96198,0.0374 89.96198,0.24244 0,0.13333 -0.39162,1.86353 -0.87026,3.84489 -2.2673,9.38564 -3.40833,17.85267 -2.61668,19.41709 0.39713,0.78479 0.2768,0.7856 9.8509,-0.0659 2.77097,-0.24645 15.37957,-1.244 28.0191,-2.21678 12.63954,-0.97278 23.23951,-1.80517 23.5555,-1.84976 l 0.57452,-0.0811 v 7.29837 7.29836 l -8.52947,0.10305 c -4.69121,0.0567 -17.51857,0.11017 -28.50524,0.11889 -10.98668,0.009 -21.84518,0.0919 -24.13002,0.18493 -13.51525,0.55009 -17.42864,1.89375 -23.62471,8.11152 -3.55652,3.56897 -5.77819,7.55355 -6.70006,12.0166 -0.30334,1.4686 -0.59681,5.70563 -0.60561,8.74367 l -0.006,1.91316 3.0494,-0.10696 c 1.67717,-0.0588 8.02125,-0.22449 14.09794,-0.36815 30.60154,-0.72341 49.65299,-1.49207 70.00358,-2.82439 2.18761,-0.14322 4.19623,-0.26068 4.46361,-0.26102 l 0.48613,-6.3e-4 v 2.5437 2.54369 l -3.84489,0.107 c -11.76307,0.32734 -16.71807,0.63079 -22.05289,1.35058 -2.78906,0.3763 -2.9695,0.37935 5.12652,-0.0866 5.23602,-0.30134 17.34339,-0.80111 19.41355,-0.80135 1.33243,-1.6e-4 1.38027,0.0142 1.32582,0.39758 -0.0539,0.3795 -0.15383,0.40317 -2.17782,0.51573 -1.16672,0.0649 -4.62713,0.20839 -7.68978,0.31889 -15.2285,0.54944 -24.72403,1.50342 -30.11665,3.02572 -5.33599,1.50632 -13.6712,5.28931 -16.34523,7.4184 -1.25252,0.99728 -1.50125,1.50818 -1.26246,2.59312 0.96621,4.38971 9.37384,13.75265 16.78842,18.69601 6.15343,4.10253 9.16811,4.63762 28.39645,5.0402 4.45937,0.0934 9.08242,0.1716 10.27345,0.17386 l 2.16551,0.004 v 0.7955 0.79549 l -4.19844,-9.1e-4 c -4.64752,-10e-4 -9.5306,-0.22347 -13.56761,-0.61813 -1.45841,-0.14258 -4.48129,-0.41871 -6.71752,-0.61362 -2.23622,-0.19492 -4.42384,-0.39429 -4.86136,-0.44305 -1.38124,-0.15391 -0.0448,0.20577 3.27037,0.88016 5.88477,1.19711 10.57786,1.62412 19.72711,1.7949 l 6.34745,0.11848 v 4.09721 4.09721 l -5.06689,0.11685 c -4.644,0.10709 -26.94035,0.10646 -30.46522,-8.7e-4 z m -5.12653,-15.14464 c 0,-0.0328 -0.61651,-0.46567 -1.37002,-0.96203 -3.47477,-2.28892 -8.70756,-7.09171 -11.35394,-10.42097 -0.62982,-0.79232 -1.17357,-1.41212 -1.20834,-1.37735 -0.1155,0.1155 1.72481,2.71833 3.03262,4.28918 2.37452,2.85209 5.70402,5.61468 9.13179,7.57692 1.66748,0.95455 1.76789,1.00534 1.76789,0.89425 z m -53.29817,-17.62875 c 5.21394,-0.20821 10.74669,-0.5541 11.13632,-0.69619 0.291,-0.10612 0.13586,-0.23767 -0.88388,-0.74952 -3.91703,-1.9661 -9.28173,-3.43902 -27.84172,-7.64414 -17.53114,-3.97202 -26.07339,-6.03692 -34.38307,-8.31133 -15.15414,-4.14777 -26.22612,-8.09138 -35.22956,-12.54805 -3.29747,-1.63224 -3.49367,-1.75931 -9.67172,-6.26397 -2.23376,-1.62872 -3.00003,-2.03225 -3.4078,-1.79459 -0.2519,0.14681 -0.21105,0.1784 0.23648,0.18284 0.41149,0.004 1.36366,0.60384 3.97748,2.50533 4.47236,3.25352 5.84515,4.14271 8.26141,5.35113 2.37093,1.18575 6.27384,2.93789 8.93125,4.00951 1.05167,0.42409 1.83331,0.79736 1.73697,0.82947 -0.29243,0.0975 -4.20324,-1.18557 -6.1956,-2.03263 -2.73739,-1.16382 -2.92172,-1.12939 -1.41616,0.26454 1.64808,1.52587 2.60693,2.23962 7.58657,5.64735 4.60272,3.14978 10.59462,7.06375 15.5065,10.129 1.77128,1.10536 3.18703,2.04323 3.14612,2.08414 -0.0941,0.0941 -3.06167,-1.63319 -6.72019,-3.91163 -3.73774,-2.32777 -11.52411,-7.57593 -15.82151,-10.66401 -1.89593,-1.3624 -4.87904,-3.50725 -6.62913,-4.76634 -1.75009,-1.25909 -3.88451,-2.72493 -4.74316,-3.25741 -3.84812,-2.3864 -5.94363,-3.85171 -6.9683,-4.87269 -1.27485,-1.27025 -1.5021,-1.1896 -0.29233,0.10375 0.91623,0.97952 2.7953,2.30549 6.17856,4.35989 1.26858,0.77031 4.19065,2.76982 6.49349,4.44335 24.85255,18.06095 40.05253,26.41264 49.62471,27.26648 4.73903,0.42273 29.61607,0.64611 37.38827,0.33572 z m 37.94526,-5.97138 c 2.36219,-1.58477 7.69585,-3.92184 13.23159,-5.79776 1.79871,-0.60953 3.16439,-1.11199 3.03489,-1.11658 -0.44156,-0.0156 -8.06696,2.59764 -10.01757,3.4331 -2.16885,0.92892 -7.90625,3.8229 -8.54148,4.30837 -0.32675,0.24973 -0.38477,0.41265 -0.28643,0.80445 l 0.12331,0.4913 0.81677,-0.78566 c 0.44921,-0.43211 1.18674,-1.03386 1.63892,-1.33722 z"
         id="path6"
         transform="translate(0.6760047,-0.95325521)" />
      <path
         style="fill:#fb90ac;fill-opacity:1;stroke:#fb90ac;stroke-opacity:1"
         d="m 387.67129,680.40137 c -15.1641,-0.52121 -27.20969,-1.31332 -36.32761,-2.38887 -22.74109,-2.68256 -49.66048,-8.76525 -70.97584,-16.03767 -19.28394,-6.57934 -43.92368,-18.65775 -60.98796,-29.89631 -6.58344,-4.33586 -9.74537,-6.78161 -13.4998,-10.44207 -5.83286,-5.68688 -8.62752,-10.13763 -15.99043,-25.46619 l -1.87247,-3.89823 0.087,-9.09486 c 0.0844,-8.82349 0.34165,-17.54521 0.54799,-18.57688 l 0.10117,-0.50586 h 89.95724 c 86.04006,0 89.95724,0.0137 89.95724,0.3138 0,0.17258 -0.23185,1.26639 -0.51522,2.43068 -1.65535,6.80133 -2.69434,12.47194 -3.03365,16.55692 -0.22519,2.71138 -0.13592,4.0354 0.30164,4.47296 0.34298,0.34298 1.59622,0.34442 5.28016,0.006 5.08408,-0.46698 13.28689,-1.12402 34.20629,-2.73991 11.32697,-0.87494 20.97234,-1.63899 21.43417,-1.69791 l 0.83969,-0.1071 v 7.35282 c 0,4.04405 -0.0199,7.36397 -0.0442,7.3776 -0.0243,0.0136 -13.88581,0.0857 -30.80334,0.16012 -19.12416,0.0841 -31.76216,0.20845 -33.4108,0.32865 -11.03625,0.80464 -14.63967,2.1787 -20.17362,7.6926 -2.34533,2.33683 -3.76402,4.21535 -4.96687,6.57675 -1.97236,3.87208 -2.45705,6.34162 -2.56318,13.05943 l -0.0503,3.18198 2.38649,-0.0509 c 37.19832,-0.79352 58.4652,-1.56917 81.11738,-2.95853 3.92499,-0.24074 7.44506,-0.43771 7.82237,-0.43771 h 0.68603 v 2.54465 2.54465 l -2.69584,0.10187 c -1.48272,0.056 -5.20166,0.18571 -8.26431,0.2882 -5.38489,0.18019 -10.51378,0.51968 -13.25825,0.87756 -0.72921,0.0951 -1.4783,0.17535 -1.66466,0.17835 -0.18634,0.003 -0.2962,0.0481 -0.24414,0.10013 0.0521,0.0521 2.23304,-0.0281 4.84663,-0.17825 6.31936,-0.36293 16.81454,-0.79767 19.29184,-0.79913 1.85113,-10e-4 1.98873,0.0226 1.98873,0.34195 0,0.18871 -0.0711,0.38707 -0.15804,0.44079 -0.0869,0.0537 -3.16944,0.21597 -6.85009,0.36056 -21.70038,0.85251 -29.35844,1.72766 -35.9486,4.10817 -6.14715,2.22049 -11.72177,4.99076 -13.72247,6.81929 -0.85951,0.78554 -0.94959,0.93812 -0.94581,1.6018 0.0127,2.22411 2.91588,6.53364 7.68287,11.4047 5.87177,5.99994 11.11081,9.73242 15.5268,11.06182 4.0167,1.2092 8.73485,1.57102 24.33907,1.86648 5.0072,0.0948 9.32276,0.17343 9.59014,0.17471 0.45795,0.002 0.48613,0.0484 0.48613,0.79782 v 0.79549 l -4.64039,-0.002 c -5.54274,-0.002 -8.2549,-0.15449 -17.43294,-0.98087 -3.82741,-0.34462 -6.99143,-0.59409 -7.03113,-0.55437 -0.0952,0.0952 3.03702,0.76002 5.59316,1.18714 5.06333,0.84606 9.20036,1.15765 17.81025,1.34141 l 5.70105,0.12167 v 4.09994 4.09993 l -3.31456,0.11584 c -4.36034,0.15238 -31.22064,0.0989 -36.19503,-0.0721 z m -2.13016,-15.69038 c -0.0924,-0.0804 -0.71759,-0.53098 -1.38937,-1.00132 -2.91493,-2.04083 -6.86587,-5.66528 -9.42208,-8.64347 -1.94371,-2.26459 -1.93397,-2.25473 -1.535,-1.55407 1.92421,3.37932 6.65037,7.93775 10.83671,10.45213 1.39194,0.83602 1.90249,1.08854 1.50974,0.74673 z M 330.57242,647.7213 c 5.69465,-0.16657 10.43929,-0.40285 12.99309,-0.64704 l 1.14904,-0.10987 -1.23743,-0.62923 c -4.07895,-2.07412 -8.75188,-3.34717 -30.29206,-8.2525 -29.0532,-6.61626 -43.04859,-10.46632 -55.62142,-15.30117 -3.3164,-1.27531 -3.62158,-1.37114 -2.29809,-0.7216 0.58336,0.2863 0.91806,0.52664 0.74377,0.53409 -0.43868,0.0187 -4.29561,-1.25128 -6.39853,-2.10693 -0.95697,-0.38938 -1.82623,-0.70609 -1.93168,-0.7038 -0.28365,0.006 1.69926,1.78498 3.52057,3.15825 3.16626,2.38734 12.47853,8.59832 20.28864,13.53185 3.32795,2.10222 4.19634,2.82303 1.94958,1.61826 -0.66099,-0.35444 -1.04269,-0.51882 -0.84824,-0.36529 0.66787,0.52729 6.13886,3.49295 6.47896,3.51204 0.18712,0.0105 0.39689,0.10863 0.46616,0.21806 0.16345,0.25819 3.16818,1.76091 5.58555,2.79343 4.51728,1.92944 7.84848,2.83788 11.42258,3.115 5.17292,0.40108 25.29722,0.61188 34.02951,0.35645 z m 39.27966,-4.96269 c 1.63935,-1.49827 4.96373,-3.2367 9.81414,-5.13216 1.33363,-0.52116 2.39724,-0.97508 2.36361,-1.00872 -0.12917,-0.12916 -4.19666,1.46805 -6.64835,2.61065 -2.73782,1.27594 -6.08354,3.04553 -6.56192,3.47066 -0.25288,0.22473 -0.27066,0.94491 -0.0234,0.94491 0.048,0 0.5231,-0.3984 1.05587,-0.88534 z m -98.05791,-5.56079 c 0,-0.0452 -0.17899,-0.16891 -0.39775,-0.27492 -0.38195,-0.18509 -0.38412,-0.18183 -0.0546,0.0822 0.36067,0.28895 0.45235,0.32802 0.45235,0.19275 z m -2.38649,-1.50883 c -0.0601,-0.0972 -0.20399,-0.17555 -0.31979,-0.17407 -0.1265,0.002 -0.1047,0.0711 0.0546,0.17407 0.33961,0.21948 0.4008,0.21948 0.26516,0 z m -5.84247,-3.6882 c -0.33849,-0.30773 -2.90797,-1.97661 -2.90797,-1.88873 0,0.0499 0.65557,0.5296 1.45683,1.06604 1.3528,0.90571 1.85669,1.19138 1.45114,0.82269 z m -3.08475,-2.03671 c 0,-0.0374 -0.21876,-0.20125 -0.48614,-0.36404 l -0.48613,-0.29599 0.41733,0.36405 c 0.40724,0.35524 0.55494,0.43402 0.55494,0.29598 z m -1.59099,-1.07643 c 0,-0.0461 -0.73583,-0.57378 -1.63518,-1.17262 -0.89936,-0.59884 -1.54536,-0.99233 -1.43556,-0.87443 0.16724,0.17958 2.89083,2.0876 3.02655,2.12025 0.0243,0.006 0.0442,-0.0271 0.0442,-0.0732 z m -3.45598,-2.3758 c -0.0924,-0.0888 -2.15668,-1.58427 -4.58736,-3.32318 -2.43068,-1.73892 -4.83705,-3.46356 -5.3475,-3.83253 -0.51044,-0.36898 -0.92807,-0.63189 -0.92807,-0.58425 0,0.12327 10.75785,7.87863 10.95131,7.89483 0.0438,0.004 0.004,-0.066 -0.0884,-0.15487 z m -2.55443,-5.58371 c -0.24307,-0.13895 -0.52149,-0.25264 -0.61872,-0.25264 -0.0972,0 0.0221,0.11369 0.26517,0.25264 0.24307,0.13895 0.52149,0.25264 0.61872,0.25264 0.0972,0 -0.0221,-0.11369 -0.26517,-0.25264 z m -0.88388,-0.33464 c 0,-0.0382 -0.12346,-0.11685 -0.27435,-0.17475 -0.15732,-0.0604 -0.22827,-0.0307 -0.16634,0.0695 0.10381,0.16798 0.44069,0.24845 0.44069,0.10528 z m -1.59099,-0.70711 c 0,-0.0382 -0.12346,-0.11685 -0.27435,-0.17475 -0.15732,-0.0604 -0.22827,-0.0307 -0.16634,0.0695 0.10381,0.16797 0.44069,0.24845 0.44069,0.10527 z m -2.65165,-1.25635 c -0.24307,-0.13895 -0.52149,-0.25263 -0.61872,-0.25263 -0.0972,0 0.0221,0.11368 0.26516,0.25263 0.24307,0.13895 0.5215,0.25264 0.61872,0.25264 0.0972,0 -0.0221,-0.11369 -0.26516,-0.25264 z m -3.88909,-0.33191 c 0,-0.0367 -0.13921,-0.17591 -0.30936,-0.30935 -0.28038,-0.21989 -0.28663,-0.21364 -0.0667,0.0667 0.23093,0.29446 0.3761,0.38811 0.3761,0.24261 z m -2.82843,-1.947 c 0,-0.0381 -0.85515,-0.6121 -1.90035,-1.27564 -2.57814,-1.63673 -4.62226,-3.10267 -5.24798,-3.7636 -0.28557,-0.30162 -0.59774,-0.54841 -0.69373,-0.54841 -0.25061,0 0.52535,0.78801 1.56088,1.58512 0.73808,0.56815 6.09365,4.06261 6.23699,4.06959 0.0243,10e-4 0.0442,-0.029 0.0442,-0.0671 z m -1.24375,-2.29807 c -0.30744,-0.29212 -4.44692,-3.26121 -5.2086,-3.73593 -1.10289,-0.68738 -0.17693,0.0364 2.5159,1.96653 2.69285,1.93016 3.24091,2.29029 2.6927,1.7694 z m -6.22874,-4.28027 c -0.0588,-0.0587 -0.21122,-0.065 -0.33883,-0.014 -0.14102,0.0564 -0.0991,0.0983 0.10681,0.1068 0.18635,0.008 0.29076,-0.0341 0.23202,-0.0928 z"
         id="path7"
         transform="translate(0.6760047,-0.95325521)" />
      <path
         style="fill:#fb90ac;fill-opacity:1;stroke:#fb90ac;stroke-opacity:1"
         d="m 386.52224,680.39851 c -12.14558,-0.41817 -23.30544,-1.10809 -31.46625,-1.94531 -25.22673,-2.58802 -57.90726,-10.08364 -80.07984,-18.36715 -15.96516,-5.96447 -35.62051,-15.57012 -50.17885,-24.52264 -12.57869,-7.73514 -19.08809,-13.05905 -24.02952,-19.65329 -2.50928,-3.34857 -4.66476,-7.14306 -8.83912,-15.56033 l -3.98092,-8.02721 0.12047,-9.82724 c 0.11506,-9.38643 0.36867,-17.42932 0.57047,-18.09155 0.0896,-0.2941 4.53219,-0.30936 90.06169,-0.30936 89.86599,0 89.96743,4e-4 89.96743,0.35375 0,0.19456 -0.35117,1.84521 -0.78037,3.66812 -1.53979,6.53985 -2.43135,11.62365 -2.73586,15.60035 -0.268,3.49955 0.0148,4.41941 1.35867,4.41941 0.33181,0 4.35374,-0.31555 8.93761,-0.70123 4.5839,-0.38568 14.06192,-1.14438 21.06228,-1.68601 17.99426,-1.39224 28.09206,-2.18628 29.47751,-2.31798 l 1.19324,-0.11343 v 7.34016 c 0,6.53019 -0.0308,7.352 -0.27962,7.44746 -0.1538,0.059 -8.88436,0.11212 -19.40124,0.118 -25.4727,0.0143 -43.9707,0.24373 -47.3175,0.587 -8.19711,0.84077 -11.80202,2.22719 -16.02313,6.16235 -3.48169,3.24584 -5.10376,5.34911 -6.72415,8.71892 -1.61828,3.36543 -2.17824,6.62787 -2.17824,12.691 v 2.64345 l 5.52427,-0.12097 c 32.72494,-0.71657 54.87782,-1.51645 74.29041,-2.68242 4.08354,-0.24527 8.47865,-0.49504 9.76691,-0.55505 l 2.34229,-0.10911 v 2.63565 2.63565 l -2.96101,0.0497 c -7.25838,0.12189 -16.12109,0.56712 -19.87919,0.99867 -2.76159,0.31711 -1.44469,0.32115 4.4623,0.0137 7.50069,-0.39041 13.48518,-0.622 16.07296,-0.622 h 2.30494 v 0.4245 c 0,0.49845 0.34025,0.46875 -10.42982,0.91044 -15.11973,0.62006 -23.29675,1.42061 -28.82553,2.82208 -6.32586,1.60352 -16.77602,6.60056 -18.13227,8.67047 -0.2664,0.40657 -0.28024,0.59441 -0.1053,1.42846 0.55548,2.64829 3.54944,6.78041 8.43516,11.64183 6.84715,6.81308 11.96595,9.94266 17.90338,10.94593 3.66555,0.61939 9.49823,0.92971 20.20595,1.07504 4.02849,0.0547 8.13989,0.14432 9.13647,0.19922 l 1.81196,0.0998 v 0.77848 0.77848 h -4.90857 c -5.33512,0 -7.99259,-0.13669 -15.42075,-0.79319 -2.67374,-0.2363 -5.5773,-0.47028 -6.45235,-0.51996 l -1.59099,-0.0903 0.97228,0.25275 c 1.50461,0.39113 5.84333,1.10885 8.48528,1.40366 3.03131,0.33825 7.77069,0.58612 14.00955,0.73269 l 4.90555,0.11525 v 4.10697 4.10698 l -2.14907,0.11555 c -2.90091,0.15598 -33.52593,0.0954 -38.50957,-0.0762 z m -2.19735,-16.47926 c -3.34884,-2.50808 -7.71607,-6.52284 -9.74485,-8.95837 -0.5654,-0.67875 -1.06047,-1.20162 -1.10015,-1.16193 -0.0397,0.0397 0.38127,0.68532 0.93548,1.43472 2.07022,2.79934 5.5084,6.01033 8.63487,8.06427 1.548,1.01695 2.27811,1.37284 1.27465,0.62131 z m -49.33305,-16.3978 c 4.70804,-0.18991 9.31174,-0.49078 9.43775,-0.61679 0.15207,-0.15208 -3.47611,-1.73115 -5.52454,-2.40442 -4.14646,-1.36282 -8.99943,-2.55649 -29.72261,-7.31074 -22.96841,-5.26935 -36.77814,-8.99527 -47.07974,-12.70231 -1.48983,-0.53612 -2.83533,-0.9262 -2.99001,-0.86684 -0.20291,0.0779 -0.24046,0.042 -0.13483,-0.12895 0.10579,-0.17117 0.068,-0.20677 -0.13636,-0.12836 -0.15551,0.0597 -0.30777,0.0417 -0.33836,-0.0399 -0.0589,-0.15711 -2.79565,-1.26342 -2.79565,-1.13011 0,0.0429 0.25853,0.19586 0.57452,0.3399 l 0.57453,0.26188 -0.79488,-0.11654 c -0.82619,-0.12113 -5.1099,-1.53419 -6.60152,-2.17763 -0.47061,-0.20301 -0.92123,-0.32859 -1.00137,-0.27906 -0.0801,0.0495 -0.18138,-0.01 -0.22499,-0.13202 -0.0436,-0.12214 -0.12828,-0.17733 -0.18817,-0.12266 -0.0599,0.0547 0.24204,0.44382 0.67094,0.86476 0.46456,0.45593 0.76261,0.64802 0.73724,0.47514 -0.0234,-0.15961 -0.19703,-0.407 -0.38579,-0.54977 -0.53854,-0.40733 -0.15555,-0.31763 1.21817,0.28531 0.69689,0.30587 2.69896,0.98647 4.44905,1.51243 1.75009,0.52597 5.60824,1.74326 8.57367,2.7051 2.96543,0.96184 6.02042,1.92783 6.78887,2.14663 0.76845,0.21881 1.31605,0.42488 1.21689,0.45793 -0.0992,0.0331 -2.27911,-0.54548 -4.84433,-1.28562 -7.6085,-2.19529 -11.82349,-3.1291 -11.82349,-2.61944 0,1.48318 20.57464,14.42969 29.16815,18.35394 6.52201,2.97829 9.81245,3.60752 21.92031,4.1918 6.03102,0.29104 27.36953,0.29455 29.84609,0.005 2.23153,-0.26097 2.6032,-0.41796 1.87144,-0.79043 -1.31077,-0.66721 -11.55483,-3.48784 -27.3865,-7.5407 -3.01404,-0.77158 -5.35378,-1.40881 -5.19941,-1.41605 0.66362,-0.0312 20.94921,5.00322 28.44555,7.05949 3.52176,0.96603 7.3506,2.16354 7.54768,2.36062 0.0462,0.0462 -0.0644,0.16344 -0.24584,0.26052 -1.32973,0.71165 -12.11892,1.0552 -24.06802,0.76637 -4.92516,-0.11905 -10.22762,-0.29395 -11.78326,-0.38867 -1.55563,-0.0947 -4.33987,-0.24789 -6.18718,-0.34038 -5.42957,-0.27186 -8.71325,-1.02468 -14.35634,-3.29136 -1.14614,-0.46038 -2.72029,-1.15321 -3.49811,-1.53962 -3.09409,-1.53714 -12.67365,-7.52536 -21.88015,-13.67737 -3.08917,-2.06426 -5.57186,-3.68068 -5.51708,-3.59204 0.13846,0.22403 11.45322,7.75821 15.64158,10.41529 5.01088,3.17888 6.63449,4.27401 6.58705,4.44301 -0.0231,0.0824 0.0893,0.0995 0.24997,0.0378 0.18751,-0.072 0.249,-0.0424 0.17178,0.0825 -0.0661,0.10703 -0.0271,0.25216 0.0867,0.32252 0.13672,0.0845 0.15935,0.0509 0.0667,-0.0991 -0.0941,-0.15227 -0.0595,-0.19764 0.10527,-0.1378 0.13507,0.0491 0.22665,0.17586 0.20351,0.28174 -0.0243,0.11114 0.0814,0.14514 0.24997,0.0804 0.21162,-0.0812 0.2522,-0.0476 0.14734,0.12207 -0.0963,0.15578 -0.0764,0.19192 0.0594,0.10799 0.11225,-0.0694 0.20409,-0.0372 0.20409,0.0715 0,0.10871 0.0796,0.14848 0.17678,0.0884 0.0972,-0.0601 0.17677,-0.0203 0.17677,0.0884 0,0.1087 0.0795,0.14848 0.17678,0.0884 0.0972,-0.0601 0.17678,-0.0203 0.17678,0.0884 0,0.1087 0.0796,0.14847 0.17677,0.0884 0.0972,-0.0601 0.17708,-0.0449 0.17744,0.0338 3.7e-4,0.0787 0.35834,0.29011 0.7955,0.46989 0.43716,0.17978 0.79483,0.40423 0.79483,0.49877 0,0.39981 6.7676,3.35555 10.22163,4.46428 4.16333,1.33641 6.26136,1.50855 20.44913,1.67782 10.99662,0.13121 18.29772,0.0797 24.57196,-0.17342 z m 36.13282,-5.81826 c 0.33038,-0.23028 1.48384,-0.88032 2.56326,-1.44452 2.59475,-1.35627 2.271,-1.32369 -0.47085,0.0474 -3.67098,1.8357 -4.54927,2.40045 -4.54927,2.92522 0,0.44814 0.0152,0.44276 0.92807,-0.32688 0.51045,-0.43038 1.19839,-0.97092 1.52879,-1.2012 z m 6.2052,-3.18577 c 0.14584,-0.0942 0.18561,-0.17136 0.0884,-0.17136 -0.0972,0 -0.2961,0.0771 -0.44194,0.17136 -0.14584,0.0942 -0.18561,0.17136 -0.0884,0.17136 0.0972,0 0.2961,-0.0771 0.44195,-0.17136 z m 0.88388,-0.35355 c 0.14584,-0.0942 0.18561,-0.17136 0.0884,-0.17136 -0.0972,0 -0.2961,0.0771 -0.44194,0.17136 -0.14585,0.0942 -0.18562,0.17136 -0.0884,0.17136 0.0972,0 0.2961,-0.0771 0.44194,-0.17136 z m 0.88388,-0.35356 c 0.14584,-0.0942 0.18562,-0.17136 0.0884,-0.17136 -0.0972,0 -0.2961,0.0771 -0.44194,0.17136 -0.14584,0.0943 -0.18562,0.17137 -0.0884,0.17137 0.0972,0 0.2961,-0.0771 0.44194,-0.17137 z m -126.04178,-13.6917 c 0,-0.0439 -0.35797,-0.32619 -0.7955,-0.62721 -0.43752,-0.30102 -0.79549,-0.50807 -0.79549,-0.46012 0,0.0739 1.41744,1.13628 1.54679,1.15935 0.0243,0.004 0.0442,-0.0281 0.0442,-0.072 z m -1.85107,-1.32608 c -0.0573,-0.0927 -0.3603,-0.33892 -0.67335,-0.54716 -0.56674,-0.37699 -0.56653,-0.37629 0.0495,0.16379 0.65291,0.57237 0.79434,0.65929 0.62381,0.38337 z"
         id="path8"
         transform="translate(0.6760047,-0.95325521)" />
      <path
         style="fill:#fb90ac;fill-opacity:1;stroke:#fb90ac;stroke-width:0.176777;stroke-opacity:1"
         d="m 337.52195,644.76062 c 0.12761,-0.0511 0.28008,-0.0448 0.33883,0.014 0.0587,0.0587 -0.0457,0.10052 -0.23202,0.0928 -0.20594,-0.008 -0.24783,-0.0504 -0.10681,-0.10681 z"
         id="path9"
         transform="translate(0.6760047,-0.95325521)" />
      <path
         style="fill:#fb90ac;fill-opacity:1;stroke:#fb90ac;stroke-width:0.176777;stroke-opacity:1"
         d=""
         id="path10"
         transform="translate(0.6760047,-0.95325521)" />
      <path
         style="fill:#fb90ac;fill-opacity:1;stroke:#fb90ac;stroke-width:0.176777;stroke-opacity:1"
         d=""
         id="path11"
         transform="translate(0.6760047,-0.95325521)" />
      <path
         style="fill:#fb90ac;fill-opacity:1;stroke:#fb90ac;stroke-opacity:1"
         d="m 341.34634,646.50934 c 0.0295,-0.0769 0.0537,-0.21256 0.0537,-0.30148 0,-0.14936 0.045,-0.14381 0.59121,0.0729 l 0.59121,0.23457 -0.34814,0.0618 c -0.19148,0.034 -0.48167,0.0641 -0.64486,0.0669 -0.23535,0.004 -0.28562,-0.0238 -0.24307,-0.13472 z"
         id="path12"
         transform="translate(0.6760047,-0.95325521)" />
      <path
         style="fill:#fb90ac;fill-opacity:1;stroke:#fb90ac;stroke-width:0.0883883;stroke-opacity:1"
         d="m 341.39999,646.38398 c 0,-0.0998 0.0589,-0.17677 0.13542,-0.17677 0.16564,0 0.74847,0.23738 0.74847,0.30485 0,0.0268 -0.19888,0.0487 -0.44195,0.0487 -0.38301,0 -0.44194,-0.0236 -0.44194,-0.17678 z"
         id="path13"
         transform="translate(0.6760047,-0.95325521)" />
      <path
         style="fill:#fb90ac;fill-opacity:1;stroke:#fb90ac;stroke-width:0.0883883;stroke-opacity:1"
         d="m 341.39999,646.39872 c 0,-0.25707 0.0838,-0.27994 0.47405,-0.1293 0.57052,0.22024 0.57778,0.29134 0.0298,0.29134 -0.42963,0 -0.50382,-0.0239 -0.50382,-0.16204 z"
         id="path14"
         transform="translate(0.6760047,-0.95325521)" />
      <path
         style="fill:#fb90ac;fill-opacity:1;stroke:#fb90ac;stroke-width:0.176777;stroke-opacity:1"
         d="m 490.64372,392.42209 c -1.21534,-0.0771 -4.51665,-0.22452 -7.33624,-0.3276 -6.89591,-0.25208 -7.22124,-0.2842 -24.2184,-2.39052 -8.16709,-1.01208 -17.27551,-2.12337 -20.24094,-2.46953 -28.56668,-3.33462 -46.3854,-7.55923 -60.01568,-14.22903 -13.73261,-6.71987 -21.69064,-15.39432 -24.57111,-26.78314 -0.4908,-1.94055 -0.59657,-2.20579 -0.67169,-1.68449 -0.049,0.34029 -0.0766,-0.25921 -0.0612,-1.33223 0.0268,-1.87121 0.051,-1.9868 0.59282,-2.82842 0.31068,-0.48262 1.02594,-1.32943 1.58948,-1.8818 0.92824,-0.90985 1.3239,-1.13153 4.20659,-2.35687 2.91337,-1.23839 9.02617,-3.39821 10.51821,-3.71638 0.54158,-0.11548 0.57464,-0.15109 0.26517,-0.28559 -0.24138,-0.10491 -0.13771,-0.12143 0.32676,-0.0521 0.39693,0.0592 0.63831,0.0336 0.57948,-0.0616 -0.17421,-0.28189 6.27336,-0.9446 12.61718,-1.29684 5.10817,-0.28364 23.75337,-0.2858 27.71407,-0.003 2.63863,0.18826 3.52013,0.33578 6.48484,1.08524 9.20398,2.32672 19.54548,6.58231 27.93809,11.4967 13.37538,7.83212 25.06362,18.08162 35.97903,31.55029 1.73445,2.14016 7.50328,8.86558 8.264,9.63433 0.47444,0.47946 -1.58624,-2.54118 -2.41195,-3.53553 -0.44405,-0.53475 -1.75243,-2.07157 -2.90751,-3.41516 -1.15508,-1.34359 -2.06132,-2.4817 -2.01387,-2.52915 0.17187,-0.17188 13.54676,15.26818 14.5039,16.7434 l 0.29693,0.45765 -0.6851,0.20526 c -0.7464,0.22363 -3.28,0.226 -6.74286,0.006 z m 3.53253,-4.48908 c -0.89038,-1.02278 -1.87045,-1.98934 -2.17795,-2.14791 -0.47443,-0.24466 -0.37465,-0.0768 0.65896,1.1083 1.28397,1.47218 2.74885,2.88946 2.99284,2.89558 0.0798,0.002 -0.58347,-0.83319 -1.47385,-1.85597 z"
         id="path15"
         transform="translate(0.6760047,-0.95325521)" />
      <path
         style="fill:#fb90ac;fill-opacity:1;stroke:#fb90ac;stroke-width:0.03125;stroke-opacity:1"
         d="m 343.8125,244.48106 c -1.08635,-0.0634 -1.40595,-0.0856 -2,-0.13918 -2.73783,-0.24674 -5.95653,-0.81268 -8.98009,-1.57894 -0.36717,-0.0931 -0.67303,-0.16919 -0.67969,-0.16919 -0.007,0 -0.0121,-3.9375 -0.0121,-8.75 v -8.75 h 7.73096 7.73095 l 0.40317,0.41749 c 1.27822,1.3236 2.32171,2.8945 3.52143,5.30126 2.38767,4.7899 3.09139,7.76538 2.35993,9.97826 -0.11822,0.35763 -0.38144,0.91359 -0.57528,1.21504 -0.19162,0.298 -0.71064,0.81012 -1.04616,1.03224 -1.10611,0.7323 -2.72658,1.18856 -4.92187,1.38582 -0.52701,0.0474 -3.01069,0.0876 -3.53125,0.0572 z m 8.78262,-3.44077 c 0.088,-0.80463 0.11719,-1.60717 0.0947,-2.60279 -0.0122,-0.54141 -0.0337,-1.06875 -0.0478,-1.17188 l -0.0256,-0.1875 0.0124,0.21875 c 0.076,1.34217 0.0281,3.2691 -0.10063,4.04688 -0.01,0.0602 -0.008,0.0994 0.004,0.0872 0.0123,-0.0122 0.0405,-0.188 0.0627,-0.39062 z m 0.005,-4.2356 c -0.007,-0.0387 -0.0135,-0.007 -0.0135,0.0703 0,0.0773 0.006,0.10898 0.0135,0.0703 0.007,-0.0387 0.007,-0.10195 0,-0.14062 z m -0.0326,-0.28125 c -0.009,-0.0215 -0.0158,-0.004 -0.0158,0.0391 0,0.043 0.007,0.0606 0.0158,0.0391 0.009,-0.0215 0.009,-0.0566 0,-0.0781 z m -0.0306,-0.2168 c -0.01,-0.0249 -0.0174,-0.0175 -0.0189,0.0189 -10e-4,0.0329 0.006,0.0514 0.0164,0.041 0.0104,-0.0104 0.0115,-0.0373 0.002,-0.0599 z m -0.66197,-2.83789 c -0.0465,-0.13968 -0.0898,-0.24875 -0.0962,-0.24239 -0.006,0.006 0.026,0.12631 0.072,0.26654 0.046,0.14022 0.0892,0.2493 0.0962,0.24238 0.007,-0.007 -0.0255,-0.12685 -0.072,-0.26653 z m -0.26647,-0.71791 c -0.089,-0.22607 -0.16689,-0.40603 -0.17301,-0.39991 -0.006,0.006 0.0615,0.19634 0.15021,0.42272 0.0887,0.22637 0.16658,0.40633 0.173,0.39991 0.006,-0.006 -0.0612,-0.19665 -0.1502,-0.42272 z m -0.24551,-0.58383 c -0.0349,-0.0661 -0.064,-0.11007 -0.0648,-0.0978 -0.002,0.0359 0.10234,0.24369 0.11585,0.23018 0.007,-0.007 -0.0162,-0.0663 -0.0511,-0.13242 z m -0.125,-0.28125 c -0.0349,-0.0661 -0.064,-0.11007 -0.0648,-0.0978 -0.002,0.0359 0.10234,0.24369 0.11585,0.23018 0.007,-0.007 -0.0162,-0.0663 -0.0511,-0.13242 z"
         id="path46"
         transform="translate(0.6760047,-0.95325521)" />
      <path
         style="fill:#fb90ac;fill-opacity:1;stroke:#fb90ac;stroke-width:0.0220971;stroke-opacity:1"
         d="m 335.90887,188.38871 v -8.87198 h 6.12438 6.12438 l 0.51027,0.33968 c 1.10467,0.73537 1.92541,1.39636 2.71982,2.19044 0.58428,0.58404 1.16052,1.27824 1.50275,1.81037 1.04472,1.62444 1.68707,3.8941 1.84695,6.52598 0.0343,0.56527 0.0148,2.09163 -0.0334,2.61276 -0.14111,1.52457 -0.41368,2.81368 -0.84216,3.983 l -0.10324,0.28173 h -8.92486 -8.92486 z m 18.33121,1.29573 c -0.1792,-0.64478 -0.41337,-1.26123 -0.72305,-1.9034 -0.19646,-0.40738 -0.54812,-1.04701 -0.56588,-1.02925 -0.005,0.005 0.0668,0.14187 0.15981,0.30385 0.46847,0.81558 0.89533,1.84256 1.13021,2.71918 0.0349,0.13038 0.0668,0.22746 0.0708,0.21574 0.004,-0.0117 -0.0283,-0.14948 -0.0719,-0.30612 z"
         id="path47"
         transform="translate(0.6760047,-0.95325521)" />
    </g>
  </g>
</svg>
